<!DOCTYPE svg PUBLIC "-//W3C//DTD SVG 20010904//EN" "http://www.w3.org/TR/2001/REC-SVG-20010904/DTD/svg10.dtd">
<svg version="1.0" xmlns="http://www.w3.org/2000/svg" width="346px" height="1600px" viewBox="0 0 3460 16000" preserveAspectRatio="xMidYMid meet">
<g id="layer101" fill="#4f2d45" stroke="none">
 <path d="M2102 15956 c-76 -87 -83 -109 -91 -297 -4 -96 -4 -195 1 -222 14 -74 6 -75 -29 -5 -103 204 -150 412 -98 432 11 4 13 -2 9 -24 -6 -25 -3 -30 21 -36 38 -9 59 6 63 46 3 24 -3 39 -24 61 -41 43 -94 38 -119 -10 -33 -66 -26 -208 16 -318 16 -41 20 -83 8 -83 -6 0 -23 8 -37 18 -45 31 -174 97 -222 115 -50 17 -270 60 -277 54 -4 -4 -136 32 -183 51 -14 5 -47 26 -73 46 -26 20 -52 36 -57 36 -20 0 -9 -18 28 -51 67 -59 82 -69 100 -69 9 -1 28 -8 42 -16 23 -14 21 -15 -45 -9 -75 6 -188 36 -245 65 -54 27 -239 90 -265 90 -75 0 -129 -95 -70 -122 30 -14 72 10 77 44 2 13 10 24 19 26 26 5 132 -46 123 -59 -5 -8 -3 -9 5 -5 7 5 31 -1 54 -12 23 -11 72 -33 110 -47 37 -15 70 -31 72 -35 5 -8 -49 -40 -67 -40 -17 0 -130 -82 -169 -123 -35 -35 -58 -65 -152 -191 -44 -59 -106 -129 -129 -144 -13 -8 -36 -27 -53 -43 -36 -32 -104 -79 -117 -79 -4 0 -14 11 -20 25 -11 25 -38 35 -38 15 0 -6 7 -24 15 -40 15 -29 15 -30 -21 -45 -44 -18 -44 -18 -44 -1 0 20 -19 31 -32 18 -7 -7 -6 -17 1 -31 10 -17 8 -24 -9 -38 -11 -10 -20 -23 -20 -30 0 -16 5 -16 31 -3 16 9 21 7 31 -15 6 -14 18 -25 26 -25 14 0 13 13 -2 51 -6 12 1 19 25 28 18 6 34 11 36 11 2 0 10 -18 19 -39 32 -81 59 -50 29 33 -13 37 -12 39 12 62 14 13 29 24 32 24 3 0 20 12 36 26 17 14 43 35 59 47 16 12 52 45 79 72 l49 50 -6 -35 c-9 -51 -28 -344 -28 -420 0 -81 35 -241 62 -288 15 -25 18 -38 10 -47 -12 -14 -13 -33 -10 -160 1 -77 -7 -267 -15 -330 -2 -16 -13 -77 -24 -135 -12 -62 -17 -108 -12 -113 14 -14 37 39 47 103 11 70 11 74 14 80 7 19 17 103 25 215 11 135 11 155 3 155 -4 0 -7 11 -6 25 1 14 5 25 9 25 14 0 27 -29 53 -115 15 -49 36 -108 46 -131 11 -23 20 -51 20 -63 0 -11 4 -21 8 -21 11 0 10 6 17 -190 3 -91 8 -190 11 -220 8 -72 -13 -220 -31 -220 -16 0 -45 -27 -45 -41 0 -5 9 -9 20 -9 13 0 20 -7 20 -19 0 -20 -25 -35 -42 -25 -6 4 -14 0 -19 -7 -12 -20 -11 -31 3 -23 7 5 8 3 3 -6 -4 -7 -2 -16 5 -20 10 -6 8 -16 -8 -45 -25 -41 -26 -45 -12 -45 5 0 22 18 36 40 23 35 31 40 65 40 31 0 39 4 39 19 0 10 -7 24 -15 31 -24 20 -18 35 18 45 22 7 33 17 35 33 3 18 -1 22 -23 22 -21 0 -25 4 -20 19 25 80 30 164 20 346 l-6 120 21 -40 c12 -22 23 -45 24 -51 1 -6 9 -23 19 -37 9 -15 17 -31 17 -38 0 -14 42 -93 53 -97 4 -2 7 -9 7 -16 0 -18 24 -66 33 -66 4 0 7 -5 7 -11 0 -7 34 -81 75 -165 41 -84 76 -162 78 -173 2 -11 6 -24 10 -27 4 -4 7 -15 7 -24 0 -9 8 -25 19 -36 10 -11 24 -37 32 -57 7 -20 17 -37 21 -37 4 0 8 -6 8 -13 0 -8 13 -41 30 -75 16 -34 30 -67 30 -72 0 -6 4 -10 8 -10 4 0 13 -18 18 -40 10 -36 9 -41 -13 -55 l-23 -16 6 38 c3 21 1 50 -5 65 -8 22 -18 28 -55 33 -33 5 -46 12 -46 24 0 9 -11 33 -25 53 -17 25 -24 47 -21 67 5 41 -14 40 -61 -3 l-38 -33 -30 28 c-16 16 -33 29 -37 29 -5 0 -8 6 -8 14 0 11 -20 26 -35 26 -2 0 -6 -13 -10 -29 -3 -16 -15 -37 -27 -47 -11 -11 -27 -32 -35 -48 -13 -25 -19 -28 -49 -23 -20 3 -34 2 -34 -4 0 -6 -4 -7 -10 -4 -18 11 -10 -4 15 -30 25 -24 25 -26 8 -44 -10 -11 -30 -22 -46 -26 -41 -11 -42 -22 -7 -55 34 -32 46 -38 34 -17 -4 6 3 2 15 -10 11 -12 21 -26 21 -32 0 -9 -41 -92 -50 -101 -3 -3 -11 -12 -18 -21 -11 -15 -9 -17 20 -16 101 0 109 -2 145 -40 32 -36 34 -41 29 -88 l-6 -50 40 43 c21 23 45 42 52 42 7 0 19 9 26 20 19 30 65 26 100 -10 48 -47 105 -33 61 16 -18 20 -18 21 2 60 14 27 19 51 16 77 l-5 37 43 0 c24 0 54 4 67 9 22 8 23 6 26 -33 2 -22 7 -45 12 -50 18 -18 11 -46 -13 -55 -13 -5 -29 -16 -36 -25 -11 -14 -11 -16 2 -16 9 0 28 5 43 10 33 13 43 5 74 -55 16 -30 30 -45 43 -45 17 0 19 5 14 35 -3 19 -15 48 -26 64 -28 38 -27 42 14 70 19 13 35 30 35 37 0 20 -12 17 -50 -11 -39 -29 -50 -31 -50 -10 0 8 -4 15 -10 15 -5 0 -10 14 -10 31 0 17 -5 39 -11 50 -7 15 -7 24 1 34 15 18 -4 89 -46 173 -19 37 -34 72 -34 78 0 6 -7 17 -15 24 -8 7 -15 18 -15 26 0 7 -13 36 -30 64 -16 27 -27 50 -25 50 3 0 -1 10 -9 23 -8 12 -26 54 -41 92 -14 39 -39 94 -56 122 -16 29 -29 54 -28 55 2 8 -24 65 -35 78 -7 8 -16 27 -20 42 -3 15 -12 33 -19 40 -16 17 -77 145 -77 162 0 7 -7 19 -15 26 -9 7 -14 19 -11 27 3 8 1 11 -4 8 -6 -3 -10 0 -10 7 -1 7 -9 31 -20 53 -11 22 -19 43 -20 46 0 4 -8 24 -17 45 -9 22 -16 42 -15 47 1 4 -2 7 -8 7 -5 0 -10 8 -10 18 0 9 -9 35 -19 57 -31 64 -51 112 -51 124 0 6 -4 19 -10 29 -11 20 -41 117 -45 150 -2 13 -10 31 -18 40 -8 10 -15 24 -15 32 -3 32 -11 67 -32 130 -35 104 -50 168 -50 208 l0 37 18 -32 c9 -17 27 -50 40 -72 34 -61 132 -187 206 -266 37 -38 64 -75 61 -82 -2 -8 4 -13 15 -13 11 0 20 -7 20 -15 0 -8 4 -14 9 -13 10 4 62 -50 118 -123 70 -91 151 -159 191 -159 19 0 23 5 20 22 -2 13 -11 24 -23 27 -33 6 -88 56 -136 122 -24 34 -75 94 -113 133 -37 38 -100 106 -139 150 -39 45 -73 83 -76 86 -16 14 -61 80 -81 120 -12 25 -35 61 -50 80 -41 53 -45 69 -8 29 84 -91 191 -130 363 -130 103 -1 113 -2 100 -16 -11 -10 -14 -25 -9 -49 5 -29 2 -37 -20 -55 -51 -40 -18 -65 51 -38 38 15 72 18 79 8 10 -17 -6 -45 -36 -62 -51 -30 -39 -46 38 -49 l67 -3 3 -32 c2 -18 9 -33 15 -33 7 0 44 15 82 34 39 18 76 31 83 29 6 -3 12 -18 12 -34 0 -40 16 -36 62 16 22 25 48 45 59 45 10 0 42 -9 71 -20 29 -11 56 -20 59 -20 4 0 7 26 8 57 3 124 19 149 91 139 46 -6 75 15 66 48 -3 12 -6 31 -6 43 0 11 -20 46 -44 76 l-45 54 62 62 c63 65 65 80 9 81 -27 0 -73 22 -91 44 -10 12 -7 25 13 69 14 30 26 56 26 58 0 3 -28 3 -62 1 -81 -5 -97 7 -102 73 -5 58 -19 67 -47 31 -11 -14 -36 -33 -55 -42 -45 -21 -76 -9 -106 42 l-22 37 -38 -44 c-21 -24 -47 -54 -58 -66 -17 -21 -29 -23 -108 -23 l-89 0 -15 -47 c-13 -42 -20 -50 -54 -61 -46 -16 -46 -15 -39 -34 4 -9 26 -23 51 -33 46 -18 49 -21 35 -44 -6 -10 -26 -14 -60 -12 -51 1 -51 1 -51 -30 0 -31 34 -74 89 -112 14 -9 22 -20 17 -24 -12 -13 -148 -5 -226 13 -113 25 -167 69 -223 181 -51 102 -62 159 -47 251 7 41 16 83 20 91 5 9 23 50 40 91 18 41 41 87 52 103 45 63 207 159 325 194 81 24 253 28 345 9 173 -36 344 -122 446 -226 51 -52 173 -211 195 -255 22 -45 75 -224 81 -273 3 -24 11 -83 18 -130 14 -95 17 -458 5 -587 -4 -44 -10 -107 -12 -140 -7 -77 -12 -119 -24 -175 -6 -25 -12 -65 -16 -90 -9 -71 -40 -191 -63 -240 -11 -25 -24 -59 -28 -75 -4 -17 -20 -70 -35 -118 -16 -49 -29 -97 -29 -108 0 -22 -11 -24 -28 -7 -9 9 -15 9 -23 1 -17 -17 -3 -42 33 -59 20 -9 24 -13 11 -10 -16 3 -23 -1 -23 -11 0 -11 -7 -14 -26 -10 -37 7 -44 -21 -12 -48 l26 -22 -18 -44 c-22 -53 -75 -211 -98 -294 -9 -33 -20 -62 -24 -65 -4 -3 -9 -17 -11 -30 -6 -31 -36 -128 -48 -155 -5 -11 -20 -56 -35 -100 -14 -44 -36 -102 -48 -130 -12 -27 -38 -85 -56 -127 -31 -71 -35 -77 -50 -63 -36 32 -54 7 -27 -38 17 -27 1 -82 -23 -82 -8 0 -13 -7 -11 -15 2 -8 4 -22 5 -30 1 -15 -53 -160 -64 -170 -3 -3 -6 -10 -7 -17 -1 -6 -16 -41 -33 -77 -16 -37 -30 -71 -30 -76 0 -5 -10 -31 -21 -57 -37 -81 -39 -87 -43 -108 -8 -40 -78 -237 -106 -301 -17 -36 -30 -73 -30 -81 0 -8 -9 -17 -20 -20 -22 -6 -25 -14 -10 -29 15 -15 -7 -61 -32 -67 -16 -5 -18 -9 -10 -23 11 -20 -4 -66 -46 -144 -33 -61 -35 -62 -27 -13 4 23 4 72 0 107 -12 108 -68 146 -134 90 -54 -46 -37 -119 26 -112 24 3 28 7 28 35 0 27 2 30 17 22 33 -18 20 -126 -32 -259 -26 -66 -26 -66 -44 -51 -19 16 -30 -2 -22 -34 3 -13 2 -26 -3 -29 -17 -11 -31 50 -28 119 6 112 -15 236 -48 287 -49 76 -64 88 -112 88 -23 0 -60 -7 -81 -15 -71 -29 -132 -178 -88 -214 8 -7 32 -11 53 -9 31 2 39 7 41 25 2 14 -6 32 -21 47 -22 22 -23 27 -11 54 7 17 23 37 36 45 31 20 93 33 84 18 -4 -6 -1 -9 7 -5 17 6 52 -35 73 -85 23 -55 38 -258 25 -343 -14 -89 -42 -188 -53 -188 -5 0 -6 -5 -3 -10 4 -6 -14 -53 -39 -104 -25 -51 -46 -100 -46 -109 0 -9 -5 -19 -10 -22 -6 -3 -10 -17 -10 -30 0 -13 -4 -34 -9 -47 -16 -41 -35 -152 -33 -196 1 -55 -15 -103 -28 -82 -6 8 -10 26 -10 39 0 14 -18 62 -40 107 -44 91 -102 151 -245 253 -116 83 -140 85 -209 16 -44 -43 -69 -90 -61 -114 18 -58 97 -84 109 -37 3 14 3 32 0 40 -3 9 1 27 10 41 14 22 24 25 72 25 45 0 63 -5 97 -30 124 -88 177 -165 207 -305 5 -22 16 -67 24 -100 52 -211 53 -222 29 -332 -16 -73 -21 -81 -87 -152 -174 -186 -241 -241 -294 -241 -30 0 -52 16 -52 37 0 8 14 13 39 13 47 0 58 13 41 46 -15 27 -43 39 -80 35 -42 -5 -50 -19 -50 -88 0 -73 10 -88 63 -98 58 -11 115 24 246 151 64 63 118 114 120 114 5 0 -5 -104 -18 -202 -9 -66 -35 -168 -51 -198 -4 -9 -11 -35 -15 -59 -7 -42 -8 -43 -40 -37 -45 9 -52 -8 -16 -34 44 -31 31 -48 -30 -42 -49 5 -51 4 -47 -19 3 -23 9 -25 107 -36 58 -7 106 -11 108 -10 9 10 -13 47 -28 47 -10 0 -21 5 -24 10 -8 13 7 13 41 0 20 -8 29 -8 35 2 10 16 2 28 -19 28 -22 0 -46 38 -34 53 5 7 12 23 15 37 3 14 10 43 16 65 31 114 45 204 57 363 5 52 12 86 21 94 13 10 14 7 10 -19 -3 -18 -2 -34 1 -37 6 -7 7 -18 16 -136 4 -47 11 -101 16 -120 5 -19 9 -44 9 -55 0 -28 29 -170 46 -225 8 -25 28 -88 46 -140 17 -52 36 -113 42 -135 7 -22 14 -42 18 -45 9 -8 20 -41 29 -89 l8 -43 -44 6 c-24 3 -44 2 -44 -3 0 -15 28 -32 61 -36 39 -5 37 -4 45 -44 l7 -33 -58 7 c-52 7 -58 6 -52 -9 4 -10 7 -21 7 -25 0 -7 27 -11 89 -14 33 -2 35 -4 57 -72 96 -301 173 -528 202 -598 7 -16 12 -32 12 -37 0 -10 51 -131 90 -216 44 -94 43 -99 -12 -99 -25 0 -49 -3 -53 -7 -10 -10 47 -37 89 -41 29 -3 42 -11 56 -35 l20 -32 -40 -6 c-47 -8 -76 -26 -66 -42 8 -14 42 -16 50 -3 7 11 64 7 75 -5 5 -5 14 -27 21 -49 7 -22 25 -67 40 -100 15 -33 42 -102 59 -154 18 -52 40 -110 50 -130 10 -20 35 -88 56 -151 20 -63 45 -133 55 -155 11 -22 26 -60 34 -85 l14 -45 -26 -3 c-48 -5 -56 -10 -41 -28 8 -9 25 -14 46 -12 35 3 53 -12 53 -44 0 -13 -8 -18 -29 -18 -33 0 -49 -26 -28 -47 10 -11 20 -11 41 -3 35 13 42 9 70 -48 13 -26 38 -74 54 -107 74 -146 85 -176 71 -201 -16 -31 -25 -30 -57 8 -39 46 -59 81 -55 95 3 7 -7 18 -21 24 -29 14 -61 5 -49 -13 13 -21 3 -50 -27 -78 -15 -14 -30 -35 -34 -47 l-7 -22 -42 27 c-23 15 -44 31 -46 35 -10 24 -44 44 -66 39 -27 -5 -32 -21 -13 -40 12 -12 4 -24 -25 -34 -4 -2 -9 -24 -10 -51 l-2 -47 -46 0 c-25 0 -54 7 -65 15 -34 26 -83 10 -55 -18 6 -6 11 -34 11 -62 l0 -51 -47 2 c-27 1 -72 6 -100 10 -62 8 -66 -1 -23 -44 17 -18 30 -41 30 -55 0 -14 3 -32 6 -40 6 -17 -61 -55 -90 -51 -11 1 -28 -2 -38 -7 -24 -13 -7 -49 25 -49 16 -1 28 -13 45 -47 12 -25 20 -48 17 -52 -4 -3 -30 -8 -58 -11 -43 -4 -52 -8 -52 -25 0 -11 11 -25 26 -32 15 -7 38 -28 52 -47 l26 -33 -38 -12 c-21 -6 -50 -11 -65 -11 -19 0 -26 -5 -26 -19 0 -20 18 -31 51 -31 23 0 61 -42 71 -78 10 -34 -12 -52 -61 -52 -20 0 -45 -7 -55 -15 -28 -21 -6 -41 51 -48 54 -6 88 -37 78 -71 -3 -12 -8 -36 -12 -54 l-6 -32 45 0 c24 0 53 -7 64 -15 29 -22 87 -19 119 7 l27 21 59 -61 c32 -34 53 -62 46 -62 -6 0 -70 9 -142 20 -253 40 -478 96 -568 141 -56 29 -49 -1 11 -44 65 -47 157 -81 287 -107 61 -11 138 -27 172 -35 34 -8 78 -15 98 -15 22 0 38 -6 41 -14 7 -19 -25 -86 -42 -86 -43 0 -18 -55 32 -69 20 -5 42 -18 50 -28 17 -23 18 -53 1 -53 -7 0 -22 -7 -33 -15 -16 -13 -17 -16 -4 -25 8 -6 26 -13 40 -17 23 -6 39 -20 40 -34 0 -4 -13 -9 -30 -12 -39 -8 -39 -32 0 -52 16 -8 34 -24 40 -35 9 -17 8 -20 -13 -20 -28 0 -68 -29 -50 -36 48 -20 89 -84 55 -84 -10 0 -28 -9 -42 -20 l-25 -20 22 -18 c12 -9 34 -25 48 -35 35 -25 31 -44 -12 -54 -28 -6 -38 -14 -38 -28 0 -12 8 -21 20 -24 11 -2 33 -12 48 -23 30 -21 26 -35 -11 -43 -11 -2 -30 -9 -42 -15 -21 -11 -21 -12 -4 -31 9 -10 24 -19 33 -19 20 -1 51 -24 51 -39 0 -6 -15 -11 -34 -11 -43 0 -52 -12 -25 -36 12 -10 29 -35 39 -55 l17 -37 -36 -6 c-20 -3 -42 -10 -50 -15 -21 -14 -6 -38 29 -46 17 -4 34 -14 37 -23 3 -10 13 -25 20 -34 19 -22 10 -36 -21 -31 -31 6 -70 -25 -54 -44 6 -7 15 -13 20 -13 21 0 59 -68 40 -71 -4 -1 -16 -3 -27 -4 -28 -3 -65 -23 -65 -36 0 -5 21 -23 48 -39 65 -42 82 -54 82 -60 0 -3 -21 -12 -48 -19 -26 -7 -53 -15 -60 -17 -21 -6 -9 -26 29 -52 19 -13 38 -30 42 -38 11 -20 -8 -49 -43 -64 -16 -7 -30 -16 -30 -21 0 -5 16 -31 36 -59 l36 -50 -35 0 c-51 0 -56 -18 -14 -54 42 -37 71 -81 62 -95 -3 -6 -21 -10 -39 -9 -49 2 -62 -10 -38 -36 38 -41 43 -61 27 -100 -23 -54 -53 -49 -118 18 -69 70 -107 89 -177 88 -66 -1 -162 -25 -200 -49 -34 -22 -100 -80 -100 -88 0 -3 -10 -19 -22 -36 -18 -23 -22 -42 -21 -87 1 -32 8 -70 16 -85 20 -38 80 -88 145 -121 29 -15 50 -31 47 -36 -3 -5 -27 -16 -52 -23 -55 -16 -65 -33 -28 -47 15 -6 38 -19 51 -29 19 -15 21 -21 10 -30 -18 -15 -105 -41 -137 -41 -15 0 -32 -6 -39 -14 -9 -12 -4 -19 29 -40 23 -15 49 -43 61 -65 l19 -39 -24 -16 c-13 -8 -42 -18 -65 -22 -51 -8 -60 -22 -29 -46 13 -10 46 -37 72 -60 l48 -40 -35 -24 c-19 -13 -49 -24 -66 -24 -30 0 -56 -30 -32 -38 14 -4 79 -49 118 -80 l29 -24 -37 -34 c-21 -19 -47 -34 -58 -34 -13 0 -20 -7 -20 -20 0 -11 6 -20 14 -20 8 0 36 -20 64 -45 27 -24 62 -49 77 -55 l27 -10 -19 -32 c-10 -18 -30 -35 -43 -38 -23 -5 -21 -8 25 -40 28 -18 77 -41 110 -50 l60 -17 -3 -46 c-2 -25 1 -55 8 -66 7 -13 7 -28 2 -39 -5 -9 -12 -29 -16 -44 -8 -34 22 -46 61 -24 31 17 143 37 143 26 0 -4 12 -19 27 -34 19 -19 29 -41 33 -74 4 -38 9 -48 26 -50 14 -2 24 5 32 23 6 14 25 33 42 43 l30 19 39 -36 c21 -20 41 -48 45 -63 8 -36 34 -36 47 0 6 15 32 44 59 65 46 35 49 36 55 17 4 -13 18 -23 36 -27 16 -3 46 -21 66 -39 52 -48 66 -45 57 11 -5 34 -2 51 10 70 l17 26 26 -21 c15 -12 41 -20 63 -20 24 0 43 -7 55 -20 10 -11 27 -20 38 -20 16 0 18 4 12 27 -4 16 -7 37 -6 48 0 19 12 85 15 85 14 0 142 -42 152 -50 21 -18 34 -3 24 28 -5 15 -11 46 -14 70 -5 42 -5 42 27 42 19 0 57 -7 86 -16 67 -19 89 -13 69 19 -13 21 -32 76 -41 124 -4 20 -1 22 32 18 20 -2 51 -6 69 -10 31 -5 33 -4 26 17 -3 12 -13 28 -20 36 -8 7 -17 31 -20 53 -4 21 -10 39 -15 39 -5 0 -9 6 -9 14 0 17 33 27 51 15 22 -14 69 -10 75 6 6 16 -35 95 -69 132 -31 35 -17 50 42 46 45 -4 51 -2 51 15 0 11 -7 25 -15 32 -8 7 -15 17 -15 22 0 16 -43 67 -52 62 -4 -3 -8 4 -8 15 0 22 27 41 59 41 26 0 27 12 1 35 -11 10 -20 24 -20 30 0 7 -16 26 -36 43 -20 17 -33 36 -29 41 3 6 26 11 51 11 24 0 44 2 44 5 0 3 -7 17 -16 31 -9 13 -14 27 -12 30 10 10 150 -53 291 -130 37 -20 72 -34 78 -30 18 11 -20 36 -171 112 -80 40 -186 95 -237 122 -50 27 -94 46 -97 43 -3 -4 -6 -1 -6 5 0 7 -6 12 -13 12 -28 0 -195 94 -234 133 -24 22 -40 43 -38 45 3 3 13 -2 23 -11 10 -9 60 -37 112 -62 52 -25 129 -66 170 -90 41 -24 98 -54 125 -67 28 -12 93 -44 145 -72 150 -77 209 -106 221 -106 21 0 2 25 -32 42 -19 10 -113 59 -209 109 -96 51 -240 125 -320 166 -80 41 -153 82 -163 91 -10 9 -61 37 -114 63 -150 75 -148 56 11 -104 89 -88 119 -126 144 -179 39 -83 49 -118 32 -118 -9 0 -7 -7 5 -20 37 -41 47 -156 31 -378 -6 -88 -11 -109 -36 -153 -17 -27 -30 -52 -30 -55 0 -3 -10 -15 -23 -28 -12 -13 -30 -32 -39 -42 -36 -40 -126 -103 -207 -143 -126 -63 -354 -90 -480 -56 -56 14 -157 61 -179 82 -7 7 -17 13 -22 13 -4 0 -31 18 -59 40 -59 47 -120 133 -149 212 -46 124 -53 325 -14 438 11 30 20 60 22 65 13 49 27 78 79 158 60 95 92 123 196 173 115 56 179 68 330 61 154 -8 290 -48 353 -105 127 -115 178 -228 194 -427 14 -179 5 -249 -42 -321 -63 -96 -157 -185 -260 -246 -84 -51 -106 -59 -194 -74 -121 -20 -215 -15 -306 18 -52 18 -81 38 -144 98 -91 87 -171 201 -181 261 -9 53 8 72 24 27 34 -89 99 -208 139 -250 95 -101 193 -141 352 -142 128 -1 300 43 300 76 0 4 5 8 10 8 33 0 190 154 190 186 0 5 14 36 30 68 83 159 72 353 -34 586 -49 109 -271 210 -460 210 -67 0 -255 -34 -290 -52 -12 -6 -49 -29 -82 -51 -58 -39 -72 -56 -145 -171 -32 -52 -66 -160 -79 -256 -6 -41 -12 -84 -14 -95 -2 -11 0 -33 4 -50 4 -16 16 -63 25 -104 25 -107 78 -194 172 -281 118 -110 255 -153 433 -138 121 10 178 27 304 89 114 57 173 108 211 183 14 28 29 58 34 66 6 8 17 40 26 70 22 74 17 335 -8 430 -36 136 -109 250 -199 308 -85 55 -235 111 -299 113 -19 0 -43 4 -54 9 -16 7 -13 9 18 9 20 1 86 13 145 27 128 30 129 31 167 42 25 7 39 4 82 -20 29 -15 83 -44 120 -64 37 -19 95 -53 128 -74 68 -44 87 -56 168 -99 32 -17 83 -48 115 -69 31 -20 71 -44 87 -52 17 -8 44 -24 60 -36 17 -11 48 -29 70 -39 22 -9 54 -28 72 -41 32 -24 63 -32 63 -15 0 5 -13 14 -30 21 -16 7 -30 16 -30 21 0 4 -10 11 -22 15 -13 3 -45 21 -73 39 -92 58 -104 65 -120 65 -8 0 -15 3 -15 8 0 4 -37 27 -81 52 -44 25 -111 65 -150 88 -73 47 -72 43 -53 114 11 38 104 32 104 -7 0 -35 42 -88 78 -99 27 -8 38 -5 62 13 l30 21 37 -20 c21 -11 52 -20 70 -20 61 0 79 71 35 139 l-16 23 70 -6 c38 -4 117 -8 175 -9 126 -1 159 12 159 64 0 27 2 30 15 19 12 -10 26 -9 70 4 45 15 60 26 90 68 48 66 43 88 -26 102 -15 3 -37 14 -50 25 l-23 18 25 31 c13 17 36 37 52 44 34 16 34 33 0 55 -16 10 -39 28 -53 40 l-25 23 27 25 c15 14 38 25 52 25 14 0 27 4 30 9 8 13 -25 45 -61 60 -57 23 -40 55 36 66 60 9 48 36 -37 79 -28 14 -54 31 -57 37 -11 16 10 32 47 36 37 3 88 22 88 32 -1 17 -18 29 -51 35 -20 3 -49 18 -63 31 l-27 25 27 25 c15 14 38 25 51 25 13 0 26 7 30 15 7 19 -23 55 -46 55 -27 1 -81 34 -73 46 4 6 28 16 55 24 26 7 50 17 53 22 8 13 -36 48 -69 55 -44 9 -41 20 10 39 27 9 52 20 56 24 13 11 -4 40 -23 40 -22 0 -83 67 -74 81 3 6 26 19 51 30 38 16 43 22 33 34 -7 8 -17 15 -22 15 -15 0 -61 47 -55 57 3 5 24 15 46 23 44 14 53 37 26 64 -8 8 -15 18 -15 21 0 4 -9 18 -19 32 -25 30 -18 48 21 62 22 8 29 15 24 27 -3 8 -6 18 -6 20 0 2 -7 4 -15 4 -23 0 -65 30 -65 46 0 8 9 14 20 14 33 0 80 29 80 48 -1 9 -21 30 -46 46 -55 35 -65 55 -36 74 47 31 63 51 60 73 -2 15 -10 23 -24 24 -26 2 -58 31 -49 45 3 6 19 17 36 25 32 17 38 42 13 52 -12 5 -9 13 20 42 75 77 71 138 -13 221 -67 65 -125 96 -201 107 -63 9 -539 0 -587 -12 -32 -7 -33 -7 -33 27 0 22 -7 42 -20 53 -11 10 -20 23 -20 28 0 13 31 36 51 37 52 1 92 53 52 67 -10 3 -38 14 -62 24 -51 22 -46 38 18 59 62 20 66 53 8 65 -44 10 -91 54 -76 72 6 7 19 13 29 13 23 0 34 28 18 47 -6 8 -29 23 -49 34 -50 25 -54 35 -33 67 15 21 43 86 44 100 0 1 -11 2 -25 2 -14 0 -44 9 -65 20 -42 22 -50 43 -27 74 19 26 0 68 -24 55 -12 -6 -31 -2 -61 11 -23 11 -50 20 -59 20 -22 0 -30 33 -18 73 5 17 9 38 9 44 0 16 -34 17 -61 2 -13 -6 -44 -8 -84 -4 l-63 7 -6 40 c-8 51 -32 98 -51 98 -7 0 -20 -8 -27 -19 -7 -10 -22 -21 -33 -25 -18 -5 -28 9 -80 121 -33 70 -71 143 -84 162 -20 30 -22 40 -13 64 10 25 9 30 -7 34 -26 7 -45 51 -30 69 12 15 3 38 -12 29 -5 -4 -12 2 -15 12 -3 10 -23 61 -44 113 -39 99 -89 240 -96 275 -2 11 -8 29 -13 40 -5 11 -15 38 -24 60 -8 22 -31 78 -50 125 -20 47 -39 97 -42 113 -4 15 -11 27 -16 27 -5 0 -9 7 -9 15 0 8 -4 23 -9 33 -27 53 -32 72 -29 103 2 25 -1 34 -12 34 -24 0 -40 55 -23 82 27 45 9 70 -27 38 -15 -14 -19 -8 -50 63 -18 42 -44 100 -56 127 -31 70 -124 349 -124 372 0 10 -6 27 -14 38 -7 11 -14 22 -14 25 -2 21 -16 72 -32 110 -10 25 -28 79 -40 120 -13 41 -30 93 -40 114 l-17 39 31 28 c34 32 25 50 -20 41 -17 -3 -24 0 -24 11 0 11 -7 14 -23 10 -13 -3 -8 2 13 14 21 11 36 27 38 41 4 26 0 27 -41 5 -24 -12 -29 -12 -20 -2 9 11 4 36 -21 114 -18 55 -36 113 -40 130 -4 16 -17 50 -28 75 -22 46 -26 62 -51 185 -43 208 -52 273 -64 505 -12 200 -9 433 4 535 7 50 15 110 18 135 7 56 61 232 87 284 11 22 41 67 67 100 60 79 217 236 236 236 8 0 43 17 77 38 76 46 188 87 283 102 80 14 239 9 305 -9 74 -20 198 -79 255 -121 68 -50 95 -86 135 -180 18 -41 35 -82 40 -91 4 -8 13 -50 20 -91 15 -92 4 -149 -47 -252 -57 -113 -114 -157 -233 -182 -66 -14 -206 -21 -217 -11 -7 7 15 30 44 46 36 19 76 77 68 101 -5 17 -14 20 -57 19 -34 -2 -53 2 -59 12 -14 23 -11 26 35 44 25 10 47 24 51 33 7 19 7 18 -39 34 -32 11 -41 20 -53 58 -8 25 -17 47 -19 49 -2 2 -40 3 -84 2 -79 -2 -82 -1 -114 31 -18 18 -37 40 -42 48 -5 8 -19 23 -31 33 -21 19 -22 18 -37 -12 -9 -17 -28 -38 -42 -47 -23 -16 -27 -16 -65 1 -22 10 -49 30 -59 43 -27 34 -41 24 -46 -33 -5 -66 -21 -78 -101 -73 -35 2 -63 1 -63 -3 0 -3 12 -27 26 -53 14 -26 24 -53 21 -61 -9 -21 -51 -46 -89 -52 -68 -10 -68 -17 0 -83 l63 -60 -46 -56 c-25 -31 -45 -66 -45 -77 0 -12 -3 -31 -6 -43 -9 -33 20 -55 63 -48 64 10 80 0 88 -56 4 -27 7 -70 7 -95 1 -49 5 -52 47 -30 16 8 47 17 68 21 37 6 42 4 80 -40 47 -53 63 -58 63 -17 0 16 6 31 13 34 6 2 45 -11 86 -30 40 -18 77 -33 81 -33 4 0 11 16 14 35 7 37 6 37 93 40 42 1 53 13 28 31 -44 32 -56 46 -53 62 4 20 31 22 75 5 73 -29 110 -5 57 36 -22 18 -25 26 -20 55 5 24 2 39 -9 49 -13 14 -3 15 100 16 172 0 279 39 363 130 37 40 33 24 -8 -29 -15 -19 -38 -55 -50 -80 -22 -44 -59 -98 -90 -130 -8 -9 -38 -43 -66 -76 -28 -32 -85 -93 -125 -134 -41 -41 -85 -91 -98 -110 -54 -78 -114 -140 -151 -156 -25 -11 -40 -24 -40 -36 0 -21 30 -24 62 -5 29 16 128 113 162 159 37 49 93 108 103 108 4 0 14 9 21 20 7 12 18 18 24 14 7 -5 9 -2 6 8 -4 10 17 39 59 84 71 75 173 206 198 254 8 16 26 46 40 66 l25 37 0 -31 c0 -34 -17 -102 -50 -202 -12 -36 -24 -81 -26 -100 -3 -19 -12 -45 -20 -59 -9 -13 -17 -33 -19 -45 -5 -31 -34 -128 -45 -148 -6 -10 -10 -23 -10 -29 0 -11 -11 -39 -50 -124 -10 -22 -21 -55 -25 -72 -4 -18 -11 -33 -16 -33 -5 0 -9 -7 -9 -15 0 -8 -4 -23 -9 -33 -5 -9 -20 -43 -33 -74 -14 -32 -28 -55 -32 -51 -4 4 -4 0 -1 -8 3 -9 -1 -22 -10 -29 -8 -7 -15 -19 -15 -26 0 -7 -13 -40 -30 -72 -16 -33 -30 -65 -30 -71 0 -6 -4 -11 -9 -11 -5 0 -14 -15 -21 -32 -6 -18 -16 -40 -21 -48 -12 -20 -39 -78 -39 -85 0 -3 -13 -29 -29 -58 -17 -28 -42 -83 -56 -121 -14 -38 -31 -79 -38 -90 -6 -12 -12 -23 -12 -26 -2 -7 -65 -133 -75 -150 -21 -33 -71 -153 -73 -171 -1 -10 -5 -19 -9 -19 -12 0 -9 -78 3 -86 7 -4 8 -9 1 -13 -5 -3 -13 -23 -16 -44 -6 -36 -25 -77 -36 -77 -4 0 -21 11 -40 25 -38 28 -50 31 -50 11 0 -7 16 -24 35 -37 41 -28 42 -32 14 -70 -11 -16 -23 -45 -26 -64 -5 -30 -3 -35 14 -35 13 0 30 19 53 59 30 51 37 58 53 49 10 -5 31 -12 45 -14 26 -4 26 -3 -11 29 l-38 33 16 37 c9 21 14 41 11 45 -12 20 13 29 71 24 l61 -4 -5 -34 c-4 -23 1 -46 17 -76 l22 -42 -21 -17 c-25 -21 -18 -49 13 -49 12 0 32 13 46 30 30 37 82 42 102 10 7 -11 19 -20 27 -20 8 0 31 -18 52 -40 l38 -40 -5 48 c-5 43 -3 50 30 85 36 38 47 41 139 40 37 -1 39 5 7 37 -9 9 -50 92 -50 101 0 6 10 20 21 32 12 12 19 16 15 10 -12 -21 0 -15 34 17 35 33 34 44 -7 55 -16 4 -36 16 -47 27 -18 20 -18 20 9 45 32 30 20 44 -31 36 -28 -5 -34 -2 -47 23 -8 16 -24 38 -36 48 -12 11 -21 31 -21 48 0 15 -4 28 -9 28 -20 0 -41 -13 -41 -25 0 -7 -16 -23 -35 -36 -19 -13 -35 -28 -35 -33 0 -4 -18 8 -40 28 -50 45 -69 47 -64 5 3 -20 -3 -41 -16 -59 -11 -15 -24 -38 -29 -51 -6 -17 -22 -28 -54 -36 -51 -14 -62 -35 -51 -104 l7 -42 -21 21 c-12 12 -22 28 -22 36 0 13 56 143 81 188 5 10 9 25 9 33 0 8 4 15 8 15 4 0 14 17 21 37 8 20 22 46 32 57 11 11 19 27 19 36 0 9 3 20 7 24 4 3 8 16 10 27 2 12 48 111 102 220 55 109 96 199 93 199 -4 0 -2 4 5 8 9 6 86 156 88 172 0 3 7 16 15 30 8 14 15 31 16 38 1 8 5 17 9 20 4 4 4 -63 0 -148 -7 -142 1 -263 21 -314 5 -12 0 -16 -20 -16 -41 0 -35 -36 9 -51 38 -14 44 -29 20 -49 -8 -7 -15 -21 -15 -31 0 -15 8 -19 39 -19 34 0 42 -5 65 -40 14 -22 31 -40 36 -40 14 0 13 4 -11 45 -20 33 -20 37 -5 54 21 23 11 54 -14 46 -20 -6 -54 21 -45 36 4 5 15 9 26 9 10 0 19 4 19 9 0 14 -29 41 -45 41 -18 0 -39 148 -32 225 4 33 8 135 11 227 3 92 8 173 13 180 4 7 9 19 10 26 2 6 4 18 6 25 1 6 10 23 20 37 9 13 17 29 17 34 0 18 53 181 63 194 15 18 22 15 25 -13 1 -14 -2 -25 -6 -25 -4 0 -7 -19 -5 -42 12 -195 24 -309 32 -320 1 -2 4 -18 7 -37 10 -79 38 -161 56 -161 11 0 10 43 -1 73 -5 13 -10 44 -12 68 -1 24 -6 49 -10 54 -4 6 -10 44 -13 85 -4 41 -9 95 -11 120 -2 25 -3 95 -3 155 0 173 0 176 -12 190 -9 11 -7 21 7 42 37 53 66 195 65 313 0 93 -18 355 -28 409 l-6 33 54 -53 c58 -59 151 -139 177 -153 9 -5 24 -17 33 -26 15 -16 15 -22 3 -56 -30 -83 -3 -114 29 -33 9 21 17 39 19 39 2 0 18 -5 36 -11 24 -9 31 -16 25 -28 -16 -40 -16 -51 0 -51 9 0 21 11 26 25 8 22 13 24 29 15 26 -13 31 -13 31 3 0 7 -10 21 -21 31 -16 13 -18 21 -10 29 16 16 13 47 -5 47 -9 0 -18 -9 -21 -20 -6 -24 -2 -23 -47 -5 -36 15 -36 16 -21 45 8 16 15 34 15 40 0 20 -27 10 -38 -15 -6 -14 -16 -25 -20 -25 -20 0 -110 69 -201 153 -46 43 -154 187 -156 206 -1 22 -15 42 -24 37 -4 -3 -25 15 -45 39 -36 41 -174 145 -194 145 -18 0 -72 32 -67 40 2 4 35 20 72 35 38 15 109 47 158 72 107 52 148 59 153 25 2 -12 15 -30 28 -39 48 -31 90 13 68 72 -8 20 -56 45 -87 45 -27 0 -212 -62 -267 -90 -57 -29 -170 -59 -245 -65 -66 -6 -68 -5 -45 9 14 8 33 15 42 16 18 0 33 10 100 69 37 33 48 51 28 51 -5 0 -32 -17 -60 -38 -55 -42 -217 -103 -252 -94 -17 4 -239 -42 -288 -60 -30 -11 -68 -21 -83 -22 -24 -2 -37 -11 -49 -36 -3 -7 -94 -60 -102 -60 -3 0 21 51 53 113 31 61 66 134 76 160 22 57 25 60 61 47 21 -8 31 -8 41 3 21 21 5 47 -28 47 -19 0 -29 5 -29 15 0 27 22 53 41 48 24 -7 69 5 69 17 0 6 -12 10 -27 10 -50 0 -56 11 -38 61 9 24 25 62 35 84 11 22 26 63 34 90 20 68 70 204 89 241 8 16 29 72 47 124 18 52 42 115 55 140 12 25 28 66 35 93 7 26 17 50 23 54 17 10 67 11 73 2 8 -13 42 -11 50 3 10 16 -19 34 -66 42 l-40 6 20 32 c14 24 27 32 56 35 45 5 97 30 89 44 -4 5 -26 7 -51 4 -39 -4 -44 -3 -44 15 0 11 16 53 35 94 19 41 35 77 35 80 0 3 11 29 23 58 25 56 36 86 69 183 11 33 24 69 29 80 17 39 67 191 149 455 16 52 19 55 51 57 62 3 89 7 89 14 0 4 3 15 7 25 6 15 0 16 -52 9 l-58 -7 7 33 c8 40 6 39 45 44 36 4 61 21 61 41 0 11 -6 11 -32 0 -41 -17 -57 -11 -51 17 13 66 27 107 34 107 5 0 9 9 9 19 0 11 9 40 19 64 24 55 88 271 102 341 6 28 13 62 16 76 2 14 6 39 9 55 2 17 6 48 9 70 14 99 28 233 27 263 -1 34 13 44 22 15 2 -10 7 -52 11 -93 7 -80 9 -99 19 -170 6 -41 9 -56 20 -115 2 -11 14 -54 26 -95 33 -115 33 -117 -5 -130 -47 -15 -37 -40 13 -34 29 4 33 3 16 -5 -22 -10 -38 -37 -26 -45 4 -2 52 1 107 7 92 11 100 14 103 34 3 22 1 23 -46 18 -61 -6 -74 12 -31 44 36 27 29 44 -16 35 -32 -6 -33 -5 -40 37 -4 24 -11 50 -15 59 -30 57 -59 222 -60 331 l0 66 113 -112 c124 -124 184 -161 244 -152 55 9 63 21 63 96 0 77 -9 91 -60 91 -41 0 -87 -38 -77 -64 8 -21 54 -31 72 -16 13 10 15 8 15 -13 0 -14 -7 -28 -16 -31 -24 -9 -84 -7 -84 3 0 5 -9 13 -20 16 -29 9 -268 253 -289 295 -37 72 -45 201 -18 293 9 32 17 72 17 90 1 18 7 43 15 57 8 14 14 41 15 61 0 19 7 44 15 55 8 10 15 27 15 37 1 54 88 159 179 218 62 40 131 41 166 3 20 -21 22 -30 14 -41 -20 -24 5 -63 40 -63 23 0 34 8 52 36 22 36 22 37 3 72 -22 42 -79 100 -110 112 -22 9 -64 3 -74 -10 -3 -4 -34 -26 -69 -50 -176 -118 -261 -227 -292 -371 -14 -64 -29 -49 -29 30 0 29 -4 70 -10 90 -5 20 -17 72 -26 116 -9 44 -21 84 -26 90 -4 5 -8 16 -8 25 0 9 -20 57 -45 106 -25 49 -43 95 -40 101 2 7 1 13 -3 13 -11 0 -40 102 -53 188 -13 87 2 290 26 343 22 50 60 93 75 84 9 -6 11 -4 5 5 -6 10 -1 11 21 6 62 -14 83 -28 97 -64 15 -36 14 -38 -10 -64 -35 -37 -28 -62 20 -66 21 -2 45 2 53 9 22 18 17 85 -12 137 -33 60 -58 80 -114 87 -25 4 -52 9 -61 11 -10 3 -29 -9 -47 -30z m-602 -881 c0 -11 -48 -51 -58 -47 -18 6 -14 40 6 45 24 7 52 8 52 2z m129 -18 c-8 -7 -20 -21 -27 -32 -10 -18 -11 -19 -17 -2 -11 28 2 47 32 47 24 -1 26 -2 12 -13z m-294 -47 c3 -5 -1 -10 -9 -10 -8 0 -20 -10 -27 -21 -9 -18 -8 -24 5 -31 16 -9 14 -28 -3 -28 -16 0 -51 42 -51 61 0 29 70 53 85 29z m420 -19 c3 -5 -3 -12 -14 -16 -21 -6 -57 -55 -41 -55 5 0 10 -4 10 -10 0 -19 -39 -10 -45 10 -8 25 -1 37 39 61 35 21 42 23 51 10z m-326 -37 c37 -8 40 -20 6 -36 -27 -12 -55 2 -55 28 0 16 5 17 49 8z m116 -13 c3 -5 1 -12 -5 -16 -5 -3 -10 -21 -10 -40 0 -36 -14 -53 -26 -34 -8 14 -7 75 1 89 8 13 32 13 40 1z m295 -76 c0 -9 -11 -20 -24 -25 -37 -14 -24 -50 18 -51 l31 -1 -30 -13 c-50 -23 -61 -19 -61 23 1 20 -3 47 -7 60 -8 20 -6 22 32 22 30 0 41 -4 41 -15z m-558 -40 c-5 -28 -41 -75 -57 -75 -18 0 -37 34 -30 52 7 19 57 48 75 45 9 -2 14 -11 12 -22z m104 5 c8 0 14 -7 14 -15 0 -8 -4 -15 -9 -15 -5 0 -12 -11 -15 -25 -10 -37 -66 -31 -66 8 0 26 30 59 48 52 7 -3 20 -5 28 -5z m311 -24 c24 -21 26 -26 15 -50 -11 -24 -42 -37 -42 -17 0 4 -11 24 -24 44 -13 19 -22 38 -18 41 12 13 42 5 69 -18z m-117 -51 c12 -15 12 -18 -3 -26 -9 -6 -17 -17 -17 -24 0 -24 -13 -18 -42 19 -34 42 -35 53 -5 58 26 5 48 -4 67 -27z m-135 -63 c6 -4 20 -19 33 -33 22 -25 22 -29 9 -61 -13 -31 -17 -34 -50 -30 -36 4 -57 31 -57 73 0 46 35 73 65 51z m408 -21 c8 -8 5 -11 -8 -12 -11 -1 -23 -1 -27 0 -14 2 -9 -34 8 -57 14 -21 14 -22 -8 -22 -33 0 -43 9 -66 58 l-21 43 22 8 c24 9 84 -2 100 -18z m-163 -40 c0 -4 -12 -7 -27 -6 -23 0 -29 -5 -31 -27 -4 -31 -14 -35 -32 -13 -11 13 -7 21 21 50 31 31 35 33 51 18 10 -9 18 -19 18 -22z m-372 -13 c0 -20 -2 -27 -7 -19 -11 17 -41 11 -55 -11 -8 -13 -6 -22 9 -39 l20 -22 -22 12 c-41 21 -38 75 5 100 33 20 49 13 50 -21z m229 -84 c8 -22 -16 -35 -38 -21 -13 8 -15 15 -7 24 14 18 37 16 45 -3z m222 -40 c3 -17 2 -17 -23 -1 -24 16 -31 15 -27 -7 3 -15 -23 -25 -36 -14 -20 16 -16 32 15 50 23 14 30 15 47 4 11 -7 22 -22 24 -32z m-371 20 c12 -4 22 -11 22 -16 0 -14 -63 -5 -68 10 -4 13 10 15 46 6z m207 -34 c-3 -5 -13 -10 -21 -10 -8 0 -14 -9 -14 -20 0 -11 -4 -20 -10 -20 -14 0 -13 33 2 48 14 14 52 16 43 2z m-145 -50 c0 -5 -9 -10 -19 -10 -11 0 -23 5 -26 10 -4 6 5 10 19 10 14 0 26 -4 26 -10z m-406 -1566 c20 -8 22 -74 2 -74 -24 0 -76 22 -76 32 0 37 35 57 74 42z m132 -52 c15 -10 26 -59 19 -83 -6 -19 -8 -18 -38 7 -39 32 -50 51 -43 70 6 15 43 19 62 6z m-172 -88 c8 -22 -4 -43 -33 -58 -22 -12 -30 -12 -52 0 -28 14 -43 39 -33 56 17 27 108 28 118 2z m310 -41 c13 -46 -4 -64 -47 -50 -18 5 -38 11 -44 13 -18 5 -16 15 10 47 31 38 68 34 81 -10z m-205 2 c45 -23 53 -114 10 -115 -3 0 -20 13 -37 30 -40 38 -50 74 -25 89 23 13 19 13 52 -4z m-108 -108 c15 -30 15 -33 -3 -52 -24 -24 -57 -21 -79 8 -28 35 -2 72 51 76 8 0 22 -14 31 -32z m233 -42 c9 -13 16 -36 16 -50 0 -22 -4 -25 -34 -25 -38 0 -46 8 -51 48 -6 53 40 71 69 27z m-124 -51 c10 -29 10 -39 -2 -50 -11 -12 -18 -11 -46 6 -58 35 -56 80 2 80 31 0 36 -4 46 -36z m-240 -2071 c-1 -5 -12 -28 -26 -53 l-25 -45 5 40 c3 22 6 46 6 53 0 6 9 12 20 12 11 0 20 -3 20 -7z m371 -393 c17 -10 28 -50 13 -50 -11 0 -52 48 -46 54 7 8 10 8 33 -4z m167 -16 c4 -28 -25 -40 -33 -13 -4 10 -13 19 -21 19 -8 0 -14 5 -14 11 0 6 14 9 33 7 24 -2 33 -8 35 -24z m175 -53 c14 -14 0 -54 -23 -69 -27 -16 -50 -4 -26 14 14 10 15 16 6 33 -6 12 -18 21 -26 21 -8 0 -12 5 -8 11 7 12 62 5 77 -10z m-442 -24 c41 -28 48 -70 12 -75 -13 -2 -23 1 -23 7 0 6 5 11 10 11 16 0 -20 49 -41 55 -11 4 -17 11 -14 16 9 14 19 11 56 -14z m319 -30 c0 -16 -20 -37 -35 -37 -6 0 -20 6 -31 14 -18 14 -18 15 6 25 35 14 60 13 60 -2z m-119 -31 c9 -32 -6 -80 -21 -71 -5 3 -10 21 -10 40 0 19 -5 37 -11 41 -8 4 -7 9 2 15 21 13 32 6 40 -25z m-266 -58 c-5 -13 -8 -40 -9 -60 0 -42 -11 -46 -61 -23 l-30 13 31 1 c42 1 55 37 18 51 -41 16 -30 40 17 40 38 0 41 -2 34 -22z m541 -29 c37 -22 43 -49 18 -70 -20 -17 -41 -4 -65 41 -29 53 -10 65 47 29z m-103 -3 c21 -16 22 -62 1 -70 -29 -11 -42 -6 -48 19 -4 14 -11 25 -16 25 -20 0 -9 29 13 33 12 2 24 5 27 5 3 1 13 -5 23 -12z m-301 -2 c4 -3 -5 -22 -18 -41 -13 -20 -24 -40 -24 -44 0 -20 -31 -7 -42 17 -11 24 -9 29 15 50 27 23 57 31 69 18z m129 -44 c16 0 10 -20 -17 -56 l-27 -34 -25 27 -25 27 28 23 c15 14 34 22 42 19 8 -3 19 -6 24 -6z m109 -96 c0 -8 5 -14 10 -14 12 0 7 -34 -11 -72 -10 -23 -19 -28 -50 -28 -70 0 -66 84 6 126 24 13 45 7 45 -12z m-340 2 c0 -1 -11 -26 -25 -54 -23 -47 -28 -52 -58 -52 -19 0 -27 3 -20 8 7 4 16 22 19 40 6 30 5 32 -21 32 -23 0 -25 2 -15 14 12 15 59 24 98 17 12 -2 22 -4 22 -5z m131 -100 c-19 -23 -29 -20 -33 12 -2 22 -8 27 -30 27 -33 -1 -34 2 -11 27 16 18 18 18 52 -16 29 -30 32 -37 22 -50z m329 54 c45 -24 49 -80 7 -101 l-22 -12 20 22 c15 17 17 26 9 39 -14 22 -44 28 -55 11 -5 -8 -7 -1 -7 19 1 34 14 40 48 22z m-230 -100 c13 -8 12 -11 -5 -23 -21 -16 -45 -12 -45 7 0 26 23 33 50 16z m-176 -33 c7 -10 6 -20 -3 -31 -14 -17 -45 -10 -37 9 8 21 -5 25 -30 8 -22 -14 -24 -14 -24 0 0 42 70 52 94 14z m324 1 c-5 -15 -68 -24 -68 -9 0 10 21 18 53 20 11 1 17 -4 15 -11z m-210 -30 c15 -15 16 -48 2 -48 -5 0 -10 9 -10 20 0 11 -6 20 -14 20 -8 0 -18 5 -21 10 -9 14 29 12 43 -2z m152 -48 c0 -5 -9 -10 -20 -10 -11 0 -20 5 -20 10 0 6 9 10 20 10 11 0 20 -4 20 -10z m418 -1572 c23 -23 13 -46 -24 -58 -30 -10 -38 -10 -45 1 -21 33 -2 69 36 69 12 0 26 -5 33 -12z m-128 -59 c0 -11 -17 -35 -37 -54 -31 -28 -39 -32 -46 -19 -8 13 -1 67 10 87 2 4 20 7 39 7 28 0 34 -4 34 -21z m220 -74 c14 -17 4 -40 -26 -60 -21 -14 -27 -14 -53 -1 -52 27 -48 71 7 78 35 4 59 -1 72 -17z m-344 -32 c27 -32 30 -42 12 -47 -7 -2 -27 -8 -45 -13 -48 -16 -64 7 -43 61 13 35 46 34 76 -1z m176 -4 c15 -8 18 -17 14 -35 -6 -22 -61 -84 -75 -84 -41 1 -35 92 8 115 32 17 28 17 53 4z m121 -88 c35 -13 40 -45 12 -75 -42 -45 -99 -3 -73 55 14 31 23 34 61 20z m-235 -53 c8 -11 9 -23 3 -70 -2 -11 -40 -20 -61 -13 -24 8 -26 37 -4 70 18 27 46 33 62 13z m150 -54 c4 -26 -20 -52 -54 -60 -37 -10 -48 7 -34 51 11 34 14 36 48 33 29 -2 38 -8 40 -24z m-44 -2076 c19 -27 21 -72 4 -85 -7 -5 -35 -15 -62 -21 -59 -15 -74 -6 -68 40 5 39 28 68 54 68 10 0 18 5 18 10 0 19 39 10 54 -12z m227 -5 c0 -5 2 -19 4 -33 4 -29 -13 -80 -26 -80 -5 0 -14 12 -20 27 -6 15 -14 30 -18 33 -4 3 -11 17 -15 33 -6 26 -5 27 34 27 22 0 40 -3 41 -7z m-431 -33 c6 -11 12 -36 13 -56 2 -35 0 -38 -40 -52 -40 -15 -43 -15 -64 3 -42 39 -43 53 -6 90 40 40 80 46 97 15z m336 -27 c4 -16 12 -35 19 -43 28 -34 28 -42 4 -35 -37 11 -56 39 -51 74 5 38 19 40 28 4z m257 -55 c15 -23 -3 -87 -28 -104 -18 -12 -24 -10 -49 11 -16 14 -33 25 -38 25 -15 0 -8 53 9 72 21 24 91 21 106 -4z m-749 -38 c14 -5 26 -13 26 -18 0 -5 -24 -25 -54 -46 -55 -38 -80 -39 -91 -6 -7 22 9 66 27 73 22 9 65 8 92 -3z m482 -11 c3 -5 13 -9 22 -9 26 0 141 -51 191 -85 89 -61 171 -162 171 -212 0 -7 4 -21 9 -31 10 -19 27 -78 38 -137 4 -22 7 -81 6 -130 -2 -105 -24 -175 -80 -257 -69 -101 -120 -134 -265 -170 -250 -62 -528 48 -631 251 -31 61 -38 89 -54 226 -7 59 15 193 42 250 12 28 37 62 54 78 52 45 56 32 11 -40 -43 -70 -65 -176 -64 -308 1 -98 4 -116 28 -161 14 -29 26 -57 26 -63 0 -6 4 -11 9 -11 5 0 12 -11 15 -25 19 -77 125 -141 286 -175 76 -15 297 -11 311 7 6 7 18 13 26 13 8 0 24 10 37 23 12 12 34 28 48 36 14 7 32 25 39 39 8 15 25 38 38 52 67 73 92 292 51 446 -23 87 -50 150 -78 180 -9 10 -32 39 -50 63 -17 25 -32 42 -32 38 0 -3 -16 5 -36 18 -66 45 -157 67 -272 66 -56 0 -110 -4 -120 -9 -9 -5 -34 -13 -56 -16 -34 -7 -104 -34 -173 -68 -38 -19 -130 -112 -146 -149 -53 -120 -49 -396 8 -509 43 -87 92 -160 113 -170 13 -5 40 -23 60 -39 20 -16 46 -32 57 -35 11 -3 2 -3 -20 0 -38 5 -105 45 -151 89 -39 37 -104 144 -104 170 0 8 -4 15 -8 15 -14 0 -34 93 -39 187 -4 68 -1 110 12 165 17 69 51 149 68 156 4 2 7 12 7 22 0 52 183 177 300 206 8 1 29 7 45 12 38 12 243 13 251 1z m404 -55 l39 -16 -20 -40 c-11 -22 -23 -37 -26 -34 -4 3 -15 -1 -25 -10 -15 -14 -20 -15 -34 -3 -35 29 -31 86 8 110 16 11 11 12 58 -7z m-285 -55 c33 -18 66 -37 73 -43 36 -31 44 -40 34 -44 -6 -2 -24 8 -39 23 -36 34 -66 49 -128 64 -27 7 -59 17 -70 22 -11 4 -33 10 -50 13 -16 3 4 3 45 1 62 -3 86 -9 135 -36z m-744 15 c34 -17 34 -14 -6 -77 -33 -50 -52 -57 -79 -28 -19 21 -23 44 -13 83 6 24 14 29 60 37 4 0 22 -6 38 -15z m595 -61 c3 -10 11 -28 17 -41 8 -17 8 -38 -1 -82 -16 -75 -5 -99 60 -141 45 -29 60 -33 173 -42 l125 -11 0 -28 c0 -19 -4 -27 -11 -22 -7 4 -68 10 -137 15 -69 4 -128 12 -131 17 -3 5 -31 15 -61 22 -30 7 -80 23 -111 37 -56 24 -56 25 -44 51 26 52 28 108 6 151 -25 48 -21 64 22 78 52 17 87 15 93 -4z m-181 -67 c33 -36 44 -111 21 -150 -14 -24 -15 -32 -4 -42 19 -18 205 -124 220 -125 7 -1 2 -5 -12 -9 -42 -14 -110 -11 -148 6 -53 23 -71 30 -124 49 -55 20 -63 35 -43 75 21 40 19 76 -5 93 -15 11 -20 25 -20 63 0 96 -2 94 48 79 24 -8 54 -25 67 -39z m720 32 c30 -14 31 -21 4 -59 -25 -35 -69 -39 -99 -9 -27 27 -26 33 18 58 44 25 44 25 77 10z m-884 -30 c-3 -21 -6 -26 -9 -15 -3 17 3 47 11 47 2 0 1 -15 -2 -32z m535 -32 c3 -8 18 -18 34 -21 37 -8 118 -80 126 -111 13 -51 -40 -65 -161 -43 -90 17 -144 50 -145 89 0 9 12 34 26 56 23 36 31 41 70 43 32 1 46 -2 50 -13z m-850 -8 c2 -3 -3 -29 -13 -57 -16 -51 -18 -53 -47 -47 -31 6 -65 40 -66 63 0 7 8 22 18 34 14 17 25 20 60 16 24 -3 45 -7 48 -9z m1232 -89 c50 -39 32 -67 -44 -68 -44 -1 -54 11 -54 64 0 30 62 33 98 4z m-915 -2 c60 -65 57 -79 -20 -103 -54 -17 -56 -17 -70 2 -13 17 -11 82 4 107 7 12 74 8 86 -6z m-365 -65 c7 -5 10 -22 8 -43 -2 -19 -4 -40 -5 -46 -1 -18 -72 -6 -88 15 -19 26 -11 45 27 64 40 20 41 21 58 10z m380 -72 c22 -1 58 -28 49 -37 -4 -3 -33 1 -64 11 -56 18 -56 19 -32 31 13 8 25 9 27 4 2 -5 11 -9 20 -9z m916 10 c15 -5 31 -21 38 -35 15 -32 -1 -50 -53 -59 -43 -8 -54 2 -63 62 -6 41 -6 42 23 42 16 0 41 -4 55 -10z m-1287 -102 c1 -18 5 -43 8 -55 4 -18 0 -24 -19 -29 -28 -7 -81 18 -90 43 -10 24 25 67 60 74 36 7 37 6 41 -33z m1076 22 c-7 -25 -51 -70 -69 -70 -8 0 -46 -21 -86 -47 -40 -27 -82 -53 -93 -59 -10 -6 -28 -22 -38 -36 l-19 -26 30 -29 c45 -42 56 -76 33 -104 -17 -21 -18 -21 -54 -4 -20 9 -41 23 -48 31 -10 12 -6 13 20 8 34 -7 41 7 17 39 -19 24 -46 22 -46 -5 0 -27 -10 -18 -15 14 -2 12 -8 38 -14 57 -12 40 -10 46 32 67 18 9 41 24 52 34 11 9 40 28 65 41 25 13 55 31 68 41 13 9 47 20 77 23 33 5 60 14 71 26 21 24 23 24 17 -1z m-569 -25 c49 -2 100 -6 114 -10 23 -6 22 -8 -29 -45 -29 -22 -58 -40 -65 -40 -6 0 -29 16 -50 35 -21 19 -43 35 -49 35 -19 0 -35 -23 -35 -51 0 -16 -10 -40 -23 -54 -18 -21 -28 -25 -49 -20 -41 11 -78 50 -77 82 0 27 1 27 11 6 15 -31 39 -37 60 -15 19 18 19 19 -6 43 -14 13 -26 27 -26 31 0 12 34 16 85 11 28 -3 90 -7 139 -8z m346 -9 c0 -2 -16 -14 -35 -26 -20 -12 -41 -27 -48 -34 -26 -25 -74 -54 -119 -71 -51 -19 -60 -36 -30 -57 41 -29 52 -97 22 -133 -17 -20 -69 -6 -76 21 -3 13 -10 24 -14 24 -15 0 -16 35 -2 69 7 19 11 42 9 51 -3 10 -2 22 2 27 18 27 86 66 142 82 35 10 80 25 99 34 37 16 50 20 50 13z m455 -50 c50 -21 48 -52 -4 -66 -26 -7 -48 -7 -65 0 -22 8 -25 14 -22 42 3 18 5 34 5 36 2 7 57 0 86 -12z m-240 -56 c10 -17 -22 -65 -62 -93 -22 -15 -43 -27 -48 -27 -5 0 -16 -7 -26 -16 -15 -14 -19 -12 -48 18 -17 18 -31 37 -31 41 0 4 14 16 31 25 17 9 43 27 57 39 15 13 37 23 49 23 12 0 25 5 28 10 7 11 39 -2 50 -20z m-1044 -17 c7 -16 16 -38 22 -50 6 -13 8 -25 6 -27 -2 -2 -31 -6 -65 -10 -47 -5 -64 -3 -73 8 -18 22 -2 66 33 87 43 26 64 24 77 -8z m439 5 c23 -17 30 -30 30 -55 0 -88 -58 -137 -106 -92 -13 12 -24 27 -24 32 0 13 60 137 66 137 3 0 18 -10 34 -22z m822 -53 c9 -3 22 -20 28 -36 11 -26 10 -31 -10 -49 -27 -23 -79 -35 -116 -26 -28 7 -28 8 -3 76 6 19 13 40 15 47 3 11 45 5 86 -12z m-1207 -97 c5 -19 1 -32 -14 -47 -26 -26 -51 -27 -51 -2 0 11 -5 23 -10 26 -15 9 7 44 33 55 26 9 33 4 42 -32z m1822 -52 c-4 -12 -21 -14 -162 -21 -106 -5 -181 -10 -455 -30 -36 -2 -99 -7 -140 -11 -83 -7 -89 6 -7 17 29 3 104 13 167 22 63 8 189 18 279 21 91 4 166 7 167 9 7 7 153 0 151 -7z m147 -3 c60 -10 122 -75 130 -139 11 -79 -27 -150 -76 -141 -21 4 -21 4 3 6 39 2 52 25 53 95 2 105 -45 150 -170 161 -41 4 -74 11 -74 16 0 10 77 12 134 2z m-139 -64 c-27 -5 -70 -14 -95 -19 -25 -5 -124 -15 -220 -21 -96 -6 -218 -17 -270 -25 -52 -7 -116 -14 -142 -14 -26 0 -57 -4 -70 -9 -13 -5 -68 -11 -123 -15 -77 -4 -93 -3 -70 5 83 29 191 45 405 58 115 8 329 25 490 40 115 11 157 11 95 0z m70 -198 c-5 -13 -7 -14 -15 -1 -15 23 -12 118 3 123 13 4 23 -93 12 -122z m-1660 109 c25 -11 -1 -11 -35 0 -20 6 -21 8 -5 8 11 0 29 -3 40 -8z m1600 -60 c-1 -3 -6 -65 -9 -139 -4 -74 -9 -137 -11 -141 -8 -13 -3 -1398 5 -1420 1 -3 3 -31 6 -63 2 -32 13 -130 24 -218 11 -88 20 -188 20 -224 0 -56 -3 -64 -21 -70 -28 -9 -31 -4 -14 27 8 17 9 28 3 30 -5 2 -14 55 -19 118 -27 357 -32 436 -30 540 1 63 2 122 2 130 0 8 -3 29 -7 45 -9 35 -9 -29 0 779 6 601 7 650 24 662 15 11 18 9 24 -19 3 -17 5 -34 3 -37z m-1427 33 c-10 -2 -26 -2 -35 0 -10 3 -2 5 17 5 19 0 27 -2 18 -5z m290 -10 c-10 -2 -28 -2 -40 0 -13 2 -5 4 17 4 22 1 32 -1 23 -4z m-471 -26 c0 -1 4 -18 8 -38 7 -35 6 -37 -27 -41 -43 -7 -58 0 -58 24 0 18 1 18 16 3 22 -22 38 -14 42 19 3 25 1 27 -25 26 -40 -3 -45 -1 -37 11 5 8 71 5 81 -4z m1516 -504 c-3 -280 -5 -587 -4 -683 1 -96 3 -251 5 -345 2 -181 20 -493 36 -613 8 -61 7 -77 -6 -97 -9 -14 -20 -22 -25 -19 -5 3 -9 1 -9 -4 0 -12 -65 -25 -89 -17 -10 3 -23 22 -29 43 -17 58 -48 279 -57 407 -3 44 -8 103 -10 130 -2 28 -6 91 -10 140 -3 50 -9 115 -13 145 -8 57 -8 262 0 365 3 33 8 229 13 436 l8 375 -29 12 c-16 7 -63 19 -104 26 -41 8 -133 30 -205 49 -71 19 -133 33 -136 31 -3 -2 -10 -108 -14 -236 -4 -128 -9 -258 -11 -288 -2 -30 -3 -253 -4 -495 -1 -458 -2 -438 50 -855 12 -91 25 -210 30 -265 5 -55 12 -113 16 -129 l7 -29 -32 19 c-17 10 -27 20 -21 22 5 2 8 8 5 12 -8 13 -25 141 -35 260 -4 58 -13 146 -19 195 -16 137 -31 415 -36 660 -3 121 -7 263 -10 315 -3 52 0 167 6 255 6 88 13 253 16 368 4 200 3 207 -15 207 -11 0 -23 -7 -26 -16 -4 -9 -11 -186 -16 -393 -6 -207 -12 -407 -13 -446 -5 -92 11 -581 24 -765 12 -173 25 -290 50 -464 21 -144 23 -166 11 -166 -36 0 -104 123 -121 220 -27 159 -48 648 -56 1320 -3 250 -8 514 -11 587 -4 123 -3 134 16 153 23 23 58 25 128 9 26 -5 67 -15 92 -20 25 -6 79 -19 120 -29 41 -10 118 -28 170 -40 222 -49 206 -29 204 -262 -1 -106 2 -305 6 -443 5 -137 12 -347 15 -465 3 -118 7 -233 9 -255 2 -22 8 -166 15 -320 13 -316 21 -358 65 -363 l29 -4 -7 194 c-4 106 -11 265 -16 353 -5 88 -12 265 -15 394 -3 129 -9 239 -12 243 -3 5 -5 222 -5 481 -1 465 0 473 21 522 19 43 47 85 57 85 2 0 0 -228 -3 -507z m-1405 490 c-1 -5 3 -26 10 -48 9 -36 30 -204 34 -292 1 -18 5 -33 8 -33 3 0 6 -21 6 -47 1 -27 9 -136 17 -243 25 -299 28 -369 26 -585 -1 -110 0 -245 0 -300 2 -87 -12 -332 -23 -405 -10 -69 -65 -255 -87 -293 -5 -10 -7 -22 -4 -27 3 -6 -5 -9 -19 -8 -15 1 -26 4 -26 7 0 7 21 70 41 126 41 111 57 216 64 414 3 107 8 198 11 203 3 4 1 16 -5 25 -5 11 -10 180 -12 393 -2 206 -6 398 -10 425 -4 28 -10 106 -13 175 -4 69 -8 139 -10 155 -7 60 -37 241 -46 282 -16 69 -13 83 15 83 14 0 24 -3 23 -7z m92 -12 c0 -20 33 -204 45 -251 43 -174 75 -920 56 -1315 -23 -449 -40 -595 -75 -634 -9 -10 -16 -24 -16 -33 0 -8 -3 -17 -6 -21 -11 -11 -34 5 -34 24 0 34 22 113 43 153 16 31 22 71 29 200 14 234 14 766 -1 1101 -11 273 -18 346 -55 590 -20 136 -21 206 -1 199 8 -4 15 -9 15 -13z m117 -31 c50 -106 96 -1491 62 -1865 -23 -240 -31 -286 -56 -313 l-24 -27 6 70 c4 39 11 99 16 135 11 71 13 101 25 320 8 146 7 892 -2 985 -2 28 -9 111 -14 185 -14 191 -28 309 -40 355 -6 22 -14 73 -18 113 -8 70 -7 73 12 70 12 -2 26 -14 33 -28z m1350 -66 c6 -145 0 -584 -10 -709 -7 -82 -10 -532 -4 -541 3 -5 8 -92 12 -194 3 -102 8 -197 11 -212 3 -14 0 -29 -6 -33 -7 -4 -8 -11 -2 -18 16 -20 24 -67 34 -197 17 -219 16 -244 -7 -248 -16 -4 -17 -2 -7 11 9 11 10 22 2 41 -5 15 -10 48 -10 72 0 25 -4 75 -10 112 -18 128 -21 158 -31 342 -16 262 -22 1282 -9 1400 6 52 12 123 13 157 2 69 21 82 24 17z m110 10 c22 -22 3 -38 -36 -29 -29 6 -40 23 -24 38 12 12 44 7 60 -9z m-1826 -28 l-23 -13 27 -21 c15 -12 23 -22 18 -22 -6 0 -23 10 -38 22 -26 20 -27 22 -9 35 10 7 25 13 33 13 11 -1 8 -5 -8 -14z m79 -5 c0 -11 3 -26 6 -35 5 -12 0 -16 -20 -16 -30 0 -31 3 -13 30 10 17 9 22 -3 30 -12 8 -11 10 8 10 15 0 22 -6 22 -19z m956 -55 c100 -34 154 -57 154 -65 0 -12 -64 -91 -73 -91 -6 0 -18 9 -28 21 -11 13 -36 23 -66 27 -44 7 -48 10 -48 35 -1 15 -6 32 -13 39 -14 14 -16 58 -4 58 5 0 40 -11 78 -24z m837 -15 c13 -13 -10 -61 -30 -61 -7 0 -13 -4 -13 -9 0 -11 -49 -21 -67 -14 -24 9 -13 23 13 17 17 -4 29 -2 34 7 12 18 -7 49 -30 49 -20 0 -26 11 -12 24 10 11 91 1 105 -13z m-1778 -56 c0 -54 -85 -62 -93 -8 -2 11 4 23 12 26 18 7 21 -4 6 -19 -14 -14 13 -37 37 -32 26 5 29 38 4 45 -27 7 -16 25 12 21 17 -2 22 -10 22 -33z m1179 -4 c4 -5 1 -33 -5 -63 -7 -29 -12 -59 -12 -65 0 -7 -3 -13 -6 -13 -4 0 -15 -16 -26 -36 -25 -47 -52 -62 -71 -37 -19 26 -17 70 4 85 11 7 25 24 32 38 7 14 16 27 20 30 4 3 15 20 24 38 17 32 30 40 40 23z m72 -113 c-26 -357 -44 -851 -34 -963 3 -44 9 -123 12 -175 9 -148 16 -221 26 -273 6 -26 7 -63 4 -81 -5 -34 18 -229 38 -316 17 -76 17 -79 8 -85 -33 -20 -60 50 -60 157 0 35 -5 94 -10 132 -7 44 -7 73 -1 79 6 6 5 15 -4 23 -9 9 -13 41 -14 99 0 47 -2 89 -5 93 -3 5 -12 78 -20 163 -15 152 -17 183 -18 237 -1 45 12 374 16 417 2 22 7 90 11 150 4 61 8 121 10 135 2 14 6 63 10 110 7 85 9 101 21 153 11 53 16 26 10 -55z m506 19 c35 -15 40 -29 22 -56 -19 -27 -54 -28 -54 -1 0 10 -10 25 -22 31 -18 10 -24 8 -35 -7 -12 -16 -13 -14 -13 18 0 37 0 37 38 31 20 -3 49 -10 64 -16z m-1737 1 c2 -7 7 -26 9 -41 5 -27 4 -28 -37 -25 -32 2 -44 8 -54 27 -6 14 -9 30 -5 35 4 6 8 -1 10 -16 5 -43 62 -51 62 -9 0 10 -10 23 -22 29 -23 10 -22 11 5 11 15 1 30 -5 32 -11z m967 -48 c10 -25 28 -61 38 -81 l19 -36 -24 -21 -25 -21 -26 24 c-17 16 -39 25 -60 25 -38 0 -43 11 -40 84 3 56 23 77 69 74 24 -2 32 -10 49 -48z m-950 -95 c12 -44 4 -56 -38 -53 -64 4 -87 72 -27 81 47 7 56 3 65 -28z m1106 -98 c-29 -41 -44 -57 -55 -57 -15 0 -53 40 -53 55 0 8 28 42 63 77 l62 63 3 -53 c2 -42 -2 -59 -20 -85z m617 91 c34 -15 35 -59 0 -78 -14 -7 -28 -10 -32 -7 -3 4 -1 7 5 7 19 0 14 18 -7 30 -26 13 -54 2 -48 -20 2 -10 -1 -17 -9 -17 -15 0 -21 77 -7 90 10 11 70 8 98 -5z m-815 -73 c4 2 34 -20 65 -51 l58 -55 -24 -27 c-13 -15 -25 -28 -25 -30 -1 -1 -24 9 -52 23 -27 14 -55 25 -60 25 -6 0 -19 16 -28 35 -15 32 -15 37 0 60 9 14 22 25 29 25 6 0 4 -5 -5 -11 -26 -15 -23 -58 5 -68 39 -15 64 23 32 49 -8 7 -15 20 -14 29 0 10 2 12 6 3 2 -6 8 -10 13 -7z m-895 -46 c7 -32 -4 -48 -32 -49 -16 0 -17 17 -1 22 22 8 -1 38 -29 39 -25 0 -26 1 -8 9 42 18 63 12 70 -21z m1714 -45 c7 -6 5 -63 -2 -71 -8 -8 -77 -12 -94 -6 -7 3 -13 9 -13 14 0 5 12 4 26 -1 43 -17 58 6 28 45 -12 17 -17 18 -35 7 -19 -12 -19 -11 -9 7 9 17 17 19 53 15 23 -4 44 -8 46 -10z m-599 -57 c0 -25 -44 -106 -81 -147 l-31 -35 -19 24 c-25 30 -18 53 32 110 22 24 39 49 39 56 0 7 10 17 23 22 24 11 37 1 37 -30z m-1112 -9 c3 -25 0 -27 -42 -33 -52 -8 -77 5 -69 35 7 25 21 26 19 3 -1 -14 7 -18 34 -18 45 0 48 27 5 37 -26 6 -25 6 10 5 35 -2 40 -5 43 -29z m892 -63 c6 -3 17 -22 25 -42 8 -19 29 -48 47 -63 l32 -29 -33 -31 c-22 -21 -38 -29 -49 -25 -9 4 -24 9 -33 12 -14 4 -13 8 8 29 28 29 27 40 -10 68 -26 19 -27 19 -47 1 l-20 -18 22 -35 c15 -24 17 -33 7 -30 -19 6 -37 44 -45 95 -5 34 -2 45 15 62 20 20 54 23 81 6z m754 -16 c-3 -5 -10 -7 -15 -4 -9 6 -14 -14 -11 -48 1 -11 -3 -17 -10 -14 -16 5 -14 67 3 77 15 10 41 1 33 -11z m60 -20 c22 -18 24 -22 12 -35 -8 -8 -24 -14 -37 -14 -17 0 -19 3 -10 14 9 10 8 16 -4 26 -14 12 -12 30 4 30 5 0 20 -9 35 -21z m-1704 -35 c0 -38 -3 -45 -17 -40 -10 2 -33 7 -51 11 -18 4 -37 15 -42 26 -17 30 7 48 63 49 l47 0 0 -46z m1053 -145 c-41 -78 -66 -95 -97 -64 -29 29 -29 30 83 150 l46 49 3 -31 c2 -20 -10 -55 -35 -104z m645 51 c35 -21 35 -21 26 -44 -9 -24 -42 -19 -71 10 -14 14 -31 23 -39 20 -9 -3 -14 2 -14 14 0 27 54 27 98 0z m-1698 -30 l0 -39 -52 6 c-29 3 -56 9 -60 12 -15 13 23 50 55 54 17 2 38 5 45 5 8 1 12 -12 12 -38z m895 -46 c13 -14 27 -34 30 -44 3 -9 18 -23 33 -31 15 -7 29 -14 31 -16 2 -1 -7 -16 -19 -32 -21 -31 -53 -41 -65 -21 -4 6 -14 8 -23 6 -23 -8 -80 28 -94 59 -15 34 -1 76 32 92 36 18 48 16 75 -13z m184 -76 c0 -28 4 -60 7 -71 7 -21 -33 -117 -48 -117 -50 0 -63 61 -23 108 14 17 25 35 25 41 0 11 30 91 35 91 1 0 3 -23 4 -52z m-1074 -13 l0 -50 -35 2 c-63 5 -79 12 -86 39 -8 32 5 45 53 54 64 13 68 10 68 -45z m1670 16 c39 -22 39 -52 1 -62 -15 -4 -26 -5 -22 -2 12 12 -16 43 -39 43 -18 0 -25 6 -25 18 0 37 24 38 85 3z m-1667 -158 c3 -43 3 -43 -31 -43 -66 0 -125 36 -100 61 11 11 83 28 108 26 16 -2 21 -10 23 -44z m945 -5 c24 -24 51 -47 61 -53 15 -9 14 -12 -6 -36 -37 -41 -58 -49 -122 -40 -67 9 -91 30 -99 83 -8 52 26 88 82 88 33 0 47 -7 84 -42z m667 22 c-17 -17 -18 -23 -8 -40 7 -10 20 -21 30 -23 10 -3 6 -4 -9 -3 -29 1 -40 18 -42 64 -1 17 4 22 24 22 l25 0 -20 -20z m85 8 c32 -14 32 -31 0 -52 -32 -21 -38 -20 -30 5 4 13 0 27 -11 40 -15 17 -15 19 -1 19 9 0 28 -5 42 -12z m-1707 -137 c8 -5 12 -21 10 -37 -2 -22 -9 -30 -28 -32 -21 -3 -22 -2 -11 12 20 24 6 46 -29 46 -36 0 -40 -22 -8 -44 22 -16 22 -16 1 -16 -24 0 -55 42 -47 64 7 18 88 23 112 7z m1092 -51 c0 -32 -37 -120 -51 -120 -3 0 -16 11 -29 25 -21 22 -22 29 -12 45 7 11 12 26 12 33 0 7 14 28 32 46 36 36 48 29 48 -29z m613 31 c17 -17 15 -51 -4 -51 -5 0 -9 -10 -9 -23 0 -16 -6 -23 -22 -24 -25 -2 -58 14 -58 28 0 6 8 5 22 -2 18 -10 24 -8 35 7 7 10 13 22 13 28 0 14 -31 46 -46 46 -7 0 -15 4 -19 9 -10 17 69 0 88 -18z m-759 -90 c14 -21 37 -47 52 -58 30 -22 28 -48 -3 -60 -10 -4 -24 -13 -32 -20 -11 -12 -19 -10 -48 7 -37 22 -68 26 -78 10 -13 -21 -24 -9 -30 33 -11 74 22 127 81 127 28 0 38 -6 58 -39z m-936 -79 c2 -32 0 -42 -11 -42 -10 0 -13 7 -10 19 5 21 -25 37 -41 21 -7 -7 -7 -16 1 -30 11 -16 10 -18 -9 -15 -36 7 -43 21 -24 50 18 27 51 45 76 42 10 -1 16 -16 18 -45z m1714 6 c10 -10 18 -20 18 -23 0 -17 -75 -76 -93 -73 -28 4 -33 25 -6 24 12 -1 26 6 32 16 15 23 -9 51 -40 45 -19 -3 -23 0 -23 19 0 22 3 23 47 17 25 -3 54 -14 65 -25z m-615 -55 c-9 -108 -16 -130 -42 -135 -26 -5 -45 6 -68 42 -16 25 -15 26 27 70 23 25 48 55 55 68 23 42 33 25 28 -45z m-1097 -93 l0 -50 -42 0 c-43 0 -88 29 -88 56 0 20 50 43 93 44 l37 0 0 -50z m972 -22 l47 -51 -18 -26 c-10 -14 -21 -34 -24 -45 -6 -14 -13 -17 -35 -12 -15 4 -40 10 -57 14 -41 9 -58 22 -71 52 -17 37 -6 87 25 111 38 31 76 19 133 -43z m764 18 c6 -16 -12 -56 -34 -72 -19 -14 -68 -6 -84 14 -12 13 -11 14 8 2 12 -7 29 -10 39 -6 16 6 16 8 3 29 -9 12 -27 23 -42 25 -48 6 -16 22 45 22 42 0 61 -4 65 -14z m-642 -176 c-14 -46 -33 -86 -61 -133 -9 -15 -42 25 -48 57 -8 43 13 88 71 153 l49 54 3 -37 c2 -21 -4 -63 -14 -94z m-1094 19 l0 -52 -51 6 c-59 7 -81 22 -77 51 3 23 52 44 101 45 26 1 27 -1 27 -50z m1724 1 l29 -28 -28 -36 c-22 -29 -34 -36 -61 -36 -27 0 -34 4 -34 20 0 18 2 19 20 8 15 -10 24 -10 38 -2 34 22 3 74 -45 74 -27 0 -31 26 -5 33 28 7 55 -3 86 -33z m-800 -51 c14 -11 26 -25 26 -31 0 -23 33 -78 50 -83 24 -8 15 -33 -15 -41 -33 -8 -104 14 -132 42 -13 13 -28 24 -33 24 -22 0 -9 60 17 85 34 30 52 31 87 4z m210 -92 c6 -77 6 -78 -30 -132 -20 -30 -38 -55 -40 -55 -2 0 -13 18 -24 40 l-20 40 47 99 c27 54 51 96 54 92 4 -3 10 -41 13 -84z m-1154 29 c0 -21 -22 -80 -35 -94 -17 -19 -91 12 -99 41 -8 31 -8 34 10 51 20 21 124 23 124 2z m-380 -58 c30 -15 56 -40 77 -72 18 -27 51 -69 75 -93 37 -37 39 -43 21 -43 -12 0 -25 5 -28 10 -3 6 -20 10 -36 10 -19 0 -32 6 -35 18 -13 38 -49 98 -76 124 -29 27 -107 51 -144 43 -10 -2 -39 -6 -64 -9 -63 -7 -25 14 44 24 89 13 121 11 166 -12z m2129 -29 l44 -39 -19 -40 c-15 -31 -26 -41 -51 -46 -38 -7 -53 0 -53 27 0 15 7 19 34 19 41 0 48 15 27 52 -11 20 -24 28 -43 28 -21 0 -28 5 -28 20 0 33 40 23 89 -21z m-2437 -28 c-8 -4 -13 -12 -13 -17 0 -5 -5 -26 -11 -47 -17 -58 3 -141 43 -184 56 -57 123 -81 282 -98 40 -5 57 -11 57 -21 0 -20 -30 -18 -141 11 -215 54 -279 100 -293 208 -4 25 -2 56 3 69 12 32 60 88 74 88 8 0 7 -3 -1 -9z m278 -4 c34 -26 50 -62 49 -107 l-1 -45 -9 45 c-11 56 -57 102 -102 103 -53 1 -103 -12 -131 -34 -51 -40 -30 -130 43 -183 45 -34 106 -46 246 -50 66 -2 122 -8 124 -13 9 -19 -45 -34 -104 -28 -138 12 -171 16 -185 22 -8 3 -28 8 -44 10 -41 6 -103 39 -115 62 -19 34 -24 100 -11 145 11 39 18 47 59 65 52 23 157 28 181 8z m370 -26 c0 -20 -19 -57 -44 -86 -25 -29 -27 -29 -54 -15 -30 17 -40 56 -22 90 9 16 20 20 65 20 30 0 55 -4 55 -9z m1023 0 c14 -5 36 -30 50 -56 l26 -46 -30 -18 c-45 -28 -118 -35 -141 -14 -10 9 -18 25 -18 35 0 19 1 19 26 -1 34 -26 40 -26 47 1 9 32 -17 68 -43 61 -29 -8 -24 14 8 31 32 18 43 19 75 7z m200 -108 c11 -17 -9 -25 -43 -18 -37 8 -37 17 -2 61 l27 34 6 -33 c3 -18 8 -38 12 -44z m-63 -95 c0 -13 -9 -38 -20 -56 -28 -46 -60 -41 -78 12 -18 56 -11 66 48 66 45 0 50 -2 50 -22z m120 -4 c23 -61 3 -97 -42 -77 -16 7 -21 19 -23 56 -3 46 -2 47 26 47 22 0 32 -6 39 -26z m-1089 -161 c0 -10 2 -25 4 -34 5 -26 -23 -166 -39 -196 -17 -32 -17 -32 -20 73 -1 47 -7 69 -28 101 -24 37 -25 41 -10 57 23 23 92 22 93 -1z m-601 -24 c54 -23 54 -26 11 -94 -34 -54 -40 -56 -74 -37 -76 45 -85 95 -24 132 39 24 29 24 87 -1z m418 -15 c53 -31 67 -62 70 -159 2 -49 8 -94 13 -100 5 -5 9 -32 9 -60 l-1 -50 -18 35 c-10 19 -28 64 -40 100 -34 100 -41 110 -72 110 -15 0 -31 -4 -34 -10 -9 -15 -41 -12 -56 6 -10 13 -10 25 -1 62 20 76 71 102 130 66z m441 -5 c29 -31 35 -71 16 -114 -19 -46 -41 -64 -78 -65 -28 0 -76 25 -90 47 -4 7 -14 13 -21 13 -15 0 -46 -58 -46 -83 0 -9 -4 -18 -9 -22 -5 -3 -13 -20 -16 -38 -4 -17 -18 -65 -31 -106 -13 -40 -24 -91 -24 -113 0 -22 -4 -37 -9 -33 -28 17 18 234 71 338 11 22 17 45 14 52 -7 19 30 86 65 116 41 36 128 40 158 8z m364 -85 c10 -14 29 -24 43 -24 30 0 81 -25 87 -42 2 -7 -3 -27 -11 -45 -12 -26 -22 -32 -58 -38 -24 -3 -48 -4 -53 -1 -5 3 -15 26 -22 51 -7 25 -16 45 -20 45 -4 0 -10 12 -13 28 -4 15 -9 35 -12 45 -5 16 -2 18 17 12 13 -4 32 -18 42 -31z m-1304 -55 c35 -21 35 -22 14 -109 -8 -29 -13 -35 -33 -32 -46 5 -114 46 -124 74 -8 24 -6 32 19 58 35 36 75 39 124 9z m342 -16 c46 -27 39 -53 -26 -96 -43 -29 -74 -34 -93 -15 -19 19 -14 29 11 23 52 -12 64 39 14 63 -23 11 -31 11 -44 0 -14 -11 -15 -11 -11 2 12 39 99 52 149 23z m136 -43 c29 -57 86 -219 95 -270 10 -63 20 -195 12 -165 -3 11 -12 34 -19 50 -8 17 -19 49 -25 73 -6 23 -14 42 -19 42 -4 0 -24 24 -44 53 -20 28 -50 68 -67 87 -35 41 -36 49 -10 92 11 18 20 41 20 51 0 27 41 18 57 -13z m328 4 c24 -16 84 -19 185 -12 l35 3 3 -52 c2 -43 0 -54 -16 -62 -29 -15 -102 -30 -102 -20 0 4 -16 11 -35 15 -19 3 -38 10 -41 15 -12 20 -30 6 -48 -39 -22 -56 -43 -107 -62 -146 -7 -15 -16 -44 -20 -65 -10 -53 -23 -73 -23 -36 -1 17 -2 41 -4 55 -1 14 0 41 4 60 4 19 12 62 19 95 18 91 60 205 76 205 2 0 16 -7 29 -16z m639 -123 l29 -30 -31 -30 c-23 -23 -40 -31 -66 -31 -20 0 -36 3 -37 8 0 4 -2 25 -4 47 -3 37 -2 38 7 13 12 -34 49 -40 43 -7 -6 32 -23 48 -45 42 -11 -3 -20 0 -20 6 0 7 19 11 48 11 40 0 53 -5 76 -29z m-1455 -16 c2 -3 -1 -16 -7 -30 -7 -14 -12 -37 -12 -50 0 -22 -4 -25 -37 -25 -109 0 -154 121 -49 132 27 3 91 -14 105 -27z m356 -35 c33 -16 67 -35 75 -42 20 -17 74 -88 87 -113 13 -24 80 -229 88 -267 5 -28 35 -40 35 -15 0 8 -9 40 -20 72 -11 32 -20 59 -20 60 0 2 8 2 18 1 14 -1 18 9 22 54 4 44 6 50 12 30 4 -14 8 -51 8 -83 0 -36 4 -56 10 -52 6 3 10 17 10 30 0 13 5 27 10 30 10 6 10 -28 -6 -207 -6 -81 -8 -87 -32 -93 -13 -3 -26 -5 -27 -3 -2 2 -15 38 -29 81 -14 43 -38 102 -53 130 -37 75 -130 212 -180 266 l-42 46 -26 -27 c-32 -34 -82 -38 -108 -8 -19 23 -15 25 12 8 44 -27 71 30 31 67 -23 21 -50 13 -50 -14 0 -30 -17 -34 -24 -7 -8 31 10 71 38 85 31 15 92 4 161 -29z m587 -9 c42 -9 63 -9 77 -1 36 19 68 -12 76 -72 8 -58 2 -66 -63 -92 -53 -20 -87 -13 -130 27 -19 19 -35 27 -41 21 -14 -15 -72 -213 -82 -278 -22 -153 -32 -185 -62 -186 -11 0 0 108 20 185 8 32 12 71 9 85 -9 48 21 162 71 268 28 59 37 71 51 64 9 -5 43 -14 74 -21z m493 -85 c11 -2 24 -4 29 -5 12 -2 0 -69 -16 -85 -19 -19 -54 -28 -78 -21 -15 5 -20 15 -19 38 0 18 3 26 6 20 2 -7 18 -13 34 -13 17 0 29 5 29 13 -1 15 -31 52 -50 60 -8 4 -1 5 15 2 17 -3 39 -7 50 -9z m-1460 -38 c1 -2 5 -29 7 -60 l5 -58 -33 0 c-18 0 -36 5 -39 10 -3 6 1 10 9 10 20 0 21 34 1 50 -35 29 -72 -12 -40 -44 9 -9 12 -16 7 -16 -16 0 -62 41 -62 54 0 22 39 64 63 68 19 3 76 -6 82 -14z m379 -20 c39 -41 135 -188 141 -217 4 -19 15 -42 24 -52 20 -22 76 -167 68 -176 -9 -8 -57 25 -64 45 -4 9 -15 29 -25 44 -10 14 -18 31 -18 38 0 6 -16 36 -35 66 -19 30 -35 60 -35 67 0 15 -44 67 -56 67 -5 0 -22 -13 -37 -30 -33 -34 -62 -39 -77 -11 -14 26 12 86 58 134 41 42 39 41 56 25z m661 -73 c25 -1 31 -5 33 -29 2 -15 -4 -43 -13 -61 -20 -43 -74 -58 -105 -30 -11 10 -22 16 -24 14 -12 -13 -66 -135 -66 -150 0 -23 -31 -89 -42 -89 -9 0 -7 12 33 163 27 98 56 173 81 204 6 8 17 7 41 -5 18 -9 46 -16 62 -17z m420 -35 c14 -5 28 -16 31 -24 9 -23 -26 -86 -46 -86 -10 0 -20 -4 -22 -10 -6 -18 -68 28 -68 51 0 19 1 19 16 5 18 -19 40 -21 50 -5 9 14 -16 59 -33 59 -7 0 -13 5 -13 10 0 13 51 13 85 0z m-1430 -52 c10 -12 35 -78 37 -97 3 -25 -13 -33 -65 -31 -110 3 -158 109 -63 137 25 8 82 2 91 -9z m427 -134 c20 -38 41 -74 47 -81 17 -19 13 -53 -6 -53 -23 0 -143 60 -143 71 0 6 7 6 18 2 9 -5 26 -8 37 -8 24 1 22 33 -2 52 -14 11 -20 10 -35 -4 -17 -15 -18 -14 -18 14 0 33 35 86 54 80 6 -2 27 -34 48 -73z m901 54 c25 -12 67 -55 67 -67 0 -50 -75 -95 -119 -72 -11 7 -21 16 -21 21 0 18 20 21 36 6 24 -25 37 -19 31 13 -4 19 -2 31 6 34 9 3 9 8 -1 18 -11 12 -17 10 -38 -14 -22 -26 -24 -27 -24 -7 0 22 26 80 36 80 3 0 15 -5 27 -12z m-346 -31 c5 -9 -98 -117 -113 -117 -9 0 9 75 27 112 18 35 20 36 49 27 17 -6 33 -16 37 -22z m-881 -108 l32 -46 -28 -22 c-33 -24 -61 -26 -111 -10 -47 16 -62 30 -49 43 5 5 10 18 10 28 0 20 72 60 99 55 8 -1 29 -23 47 -48z m1191 -41 c17 -13 17 -72 1 -86 -7 -5 -28 -13 -46 -17 -30 -6 -38 -3 -68 26 l-34 33 42 37 c36 32 46 35 67 27 14 -5 31 -14 38 -20z m-1064 -82 c45 -41 48 -73 8 -115 -29 -31 -61 -41 -61 -20 0 7 -9 9 -23 5 -67 -16 -74 66 -11 129 19 19 38 35 42 35 5 0 25 -15 45 -34z m924 -18 c29 -27 29 -50 -1 -84 -47 -56 -147 -20 -131 46 4 14 7 25 8 26 13 7 84 33 91 33 6 1 20 -9 33 -21z m-756 -74 c27 -9 49 -21 50 -28 6 -56 -16 -86 -60 -86 -58 1 -99 73 -65 111 21 23 14 23 75 3z m584 -10 c21 -32 9 -97 -19 -102 -29 -6 -71 17 -90 49 -18 30 -18 31 5 47 54 39 81 41 104 6z m-362 -56 c25 -13 22 -63 -5 -82 -29 -20 -72 -20 -92 0 -16 15 -22 84 -9 97 7 8 81 -2 106 -15z m189 -10 c26 -42 13 -58 -47 -58 -56 0 -65 8 -65 56 0 22 4 24 49 24 40 0 51 -4 63 -22z"/>
 <path d="M1412 14624 c4 -37 32 -54 54 -32 22 22 3 58 -32 58 -22 0 -25 -4 -22 -26z"/>
 <path d="M1387 9593 c-11 -10 -8 -51 3 -58 22 -14 50 6 50 36 0 24 -4 29 -23 29 -13 0 -27 -3 -30 -7z"/>
 <path d="M1767 4980 c7 -27 27 -42 47 -34 33 13 10 54 -30 54 -17 0 -21 -4 -17 -20z"/>
 <path d="M1612 4937 c-16 -18 -3 -57 18 -57 26 0 39 21 29 48 -9 25 -31 29 -47 9z"/>
 <path d="M1981 4906 c-16 -19 -3 -45 26 -52 39 -10 51 11 23 41 -27 29 -33 30 -49 11z"/>
 <path d="M1441 4802 c-8 -16 -6 -25 9 -44 17 -20 20 -21 34 -8 13 12 13 19 3 39 -16 32 -33 37 -46 13z"/>
 <path d="M1563 4409 c-13 -13 -6 -46 13 -53 35 -14 59 25 32 52 -15 15 -31 15 -45 1z"/>
 <path d="M2423 3648 c-19 -26 2 -68 33 -68 37 0 41 28 9 56 -33 28 -30 27 -42 12z"/>
 <path d="M1484 3559 c-3 -6 1 -18 10 -27 19 -19 49 -7 54 22 3 12 -4 16 -27 16 -16 0 -33 -5 -37 -11z"/>
 <path d="M1483 3204 c-8 -21 24 -46 52 -42 23 4 33 37 13 49 -22 14 -58 10 -65 -7z"/>
 <path d="M1495 3070 c-11 -18 10 -32 41 -28 40 4 38 32 -3 36 -17 2 -34 -2 -38 -8z"/>
 <path d="M2390 2966 c0 -23 28 -56 48 -56 35 0 12 62 -27 73 -17 4 -21 0 -21 -17z"/>
 <path d="M1498 2949 c-24 -13 -23 -36 1 -49 35 -18 60 -12 67 16 10 39 -28 57 -68 33z"/>
 <path d="M1491 2801 c-8 -5 -11 -16 -8 -26 5 -12 17 -15 44 -13 30 2 38 7 38 23 0 15 -8 21 -30 23 -16 1 -36 -2 -44 -7z"/>
 <path d="M2393 2744 c-7 -18 37 -64 62 -64 27 0 29 29 5 56 -27 27 -58 31 -67 8z"/>
 <path d="M2405 2519 c-9 -14 24 -49 45 -49 26 0 32 25 11 44 -20 18 -47 21 -56 5z"/>
 <path d="M1484 2358 c-8 -12 30 -48 52 -48 18 0 26 17 19 40 -7 22 -59 28 -71 8z"/>
 <path d="M2410 2318 c0 -3 5 -19 11 -36 15 -42 48 -49 77 -15 12 15 19 30 14 35 -9 9 -102 23 -102 16z"/>
 <path d="M1490 2200 c-12 -7 -12 -12 4 -29 22 -25 51 -27 60 -6 14 37 -26 59 -64 35z"/>
 <path d="M2432 2108 c-27 -27 -2 -68 41 -68 23 0 29 30 12 56 -17 26 -35 30 -53 12z"/>
 <path d="M1462 2033 c2 -20 9 -28 23 -28 14 0 21 8 23 28 3 23 0 27 -23 27 -23 0 -26 -4 -23 -27z"/>
 <path d="M1424 1896 c-9 -23 0 -51 16 -51 10 0 15 10 15 29 0 32 -21 47 -31 22z"/>
 <path d="M1022 1472 c-9 -6 -7 -14 9 -31 21 -22 40 -24 46 -4 4 11 -23 43 -35 43 -4 0 -13 -4 -20 -8z"/>
 <path d="M1452 1469 c-11 -16 -9 -23 12 -44 32 -32 53 -32 68 0 9 21 9 29 -5 42 -24 24 -61 25 -75 2z"/>
 <path d="M1864 1429 c-6 -10 32 -59 45 -59 20 1 33 20 28 42 -5 19 -13 25 -37 26 -16 0 -32 -4 -36 -9z"/>
 <path d="M2341 1371 c-9 -17 -8 -22 10 -32 24 -12 41 3 36 31 -4 23 -34 24 -46 1z"/>
 <path d="M933 1313 c-11 -29 64 -72 81 -45 7 12 -42 62 -60 62 -8 0 -17 -7 -21 -17z"/>
 <path d="M1944 1238 c-4 -15 -1 -25 12 -35 25 -18 37 -16 52 8 11 18 11 23 -5 35 -27 20 -51 17 -59 -8z"/>
 <path d="M880 1147 c0 -31 18 -47 52 -47 21 0 28 5 28 19 0 27 -27 51 -56 51 -18 0 -24 -5 -24 -23z"/>
 <path d="M2001 1097 c-29 -14 -34 -38 -14 -66 20 -30 66 -28 83 3 11 21 10 27 -1 38 -37 35 -44 37 -68 25z"/>
 <path d="M1327 928 c-6 -20 15 -59 31 -56 21 4 36 32 29 52 -7 19 -53 22 -60 4z"/>
 <path d="M1974 876 c-15 -40 20 -72 51 -46 12 10 12 15 -2 36 -17 27 -41 31 -49 10z"/>
 <path d="M944 785 c-11 -28 4 -45 40 -45 44 0 53 13 26 40 -24 24 -58 26 -66 5z"/>
 <path d="M1047 593 c-14 -14 -6 -34 19 -45 20 -10 27 -9 34 2 18 29 -29 67 -53 43z"/>
 <path d="M2220 546 c-10 -13 -9 -20 4 -42 10 -14 23 -23 29 -21 15 5 11 48 -7 65 -10 11 -15 10 -26 -2z"/>
 <path d="M1202 429 c-31 -12 -25 -43 9 -47 18 -2 29 3 33 14 10 26 -14 44 -42 33z"/>
 <path d="M2100 442 c-30 -10 -40 -46 -15 -56 14 -5 55 28 55 45 0 10 -23 17 -40 11z"/>
 <path d="M1374 355 c-11 -26 4 -45 35 -45 38 0 48 16 25 41 -20 23 -52 25 -60 4z"/>
 <path d="M1970 380 c0 -5 -9 -10 -20 -10 -24 0 -28 -35 -4 -44 39 -15 54 -7 54 29 0 24 -5 35 -15 35 -8 0 -15 -4 -15 -10z"/>
 <path d="M1570 296 c0 -30 13 -40 40 -31 13 4 20 15 20 31 0 20 -5 24 -30 24 -25 0 -30 -4 -30 -24z"/>
 <path d="M1750 301 c0 -17 6 -21 36 -21 28 0 35 3 32 18 -2 11 -14 18 -36 20 -27 3 -32 0 -32 -17z"/>
 <path d="M1274 15410 c-16 -6 -22 -20 -27 -62 -8 -62 6 -81 52 -68 67 19 93 57 75 109 -7 21 -17 26 -44 28 -19 1 -44 -2 -56 -7z"/>
 <path d="M934 14990 c-50 -20 -54 -72 -7 -101 31 -19 34 -19 67 -4 58 28 60 85 4 104 -36 13 -36 13 -64 1z"/>
 <path d="M1402 14048 c-21 -21 -13 -38 18 -38 28 0 57 29 43 44 -11 10 -48 7 -61 -6z"/>
 <path d="M1888 14046 c-79 -15 -89 -28 -53 -66 38 -40 57 -44 96 -22 37 20 48 52 27 80 -12 16 -19 17 -70 8z"/>
 <path d="M1516 13995 c-7 -20 11 -27 56 -23 21 2 33 8 33 18 0 22 -80 27 -89 5z"/>
 <path d="M1388 13928 c-16 -5 -29 -15 -29 -21 -6 -56 29 -97 82 -97 41 0 55 13 69 60 8 28 6 33 -23 50 -35 22 -58 24 -99 8z"/>
 <path d="M1541 13876 c-10 -12 -8 -17 9 -26 33 -17 75 -9 75 15 0 16 -8 21 -36 23 -22 2 -40 -2 -48 -12z"/>
 <path d="M1255 13840 c-13 -42 28 -62 80 -38 32 14 32 36 0 43 -14 3 -36 7 -49 10 -19 4 -26 0 -31 -15z"/>
 <path d="M1494 13749 c-11 -19 10 -29 49 -22 51 8 50 33 -2 33 -22 0 -43 -5 -47 -11z"/>
 <path d="M1330 13711 c-25 -17 3 -33 51 -29 31 2 44 7 44 18 0 18 -71 26 -95 11z"/>
 <path d="M1753 13420 c-18 -17 -33 -34 -34 -38 0 -4 -2 -16 -4 -27 -7 -37 18 -60 68 -62 42 -2 46 0 61 32 22 46 25 107 6 111 -8 2 -26 6 -40 9 -19 4 -33 -2 -57 -25z m56 -34 c16 -19 -4 -59 -26 -54 -26 5 -39 34 -24 52 17 20 35 20 50 2z"/>
 <path d="M1375 10468 c1 -13 -5 -28 -14 -35 -13 -10 -8 -12 28 -10 23 1 38 3 32 5 -13 4 -15 32 -3 32 5 0 9 7 9 15 0 13 -3 12 -19 -2 -18 -16 -18 -16 -12 0 4 11 1 17 -8 17 -9 0 -14 -9 -13 -22z"/>
 <path d="M1153 10458 c-13 -6 -23 -17 -23 -25 0 -15 16 -17 25 -3 3 6 20 10 37 10 26 0 29 2 18 15 -14 17 -26 18 -57 3z"/>
 <path d="M1490 10361 c-22 -15 -18 -88 6 -106 29 -22 77 -33 97 -23 15 8 17 17 11 61 -4 29 -10 56 -14 60 -12 13 -83 19 -100 8z"/>
 <path d="M1860 9943 c-26 -10 -50 -35 -50 -53 0 -26 46 -63 78 -63 53 0 90 64 54 96 -20 18 -61 28 -82 20z"/>
 <path d="M890 8985 c-16 -30 -5 -59 26 -73 41 -19 68 -14 99 18 25 26 27 32 15 44 -8 8 -41 18 -72 23 -53 9 -57 8 -68 -12z"/>
 <path d="M1387 9004 c-14 -15 15 -44 43 -44 31 0 39 17 18 38 -13 13 -50 16 -61 6z"/>
 <path d="M1245 8951 c-12 -20 6 -31 51 -31 38 0 45 3 42 18 -2 12 -15 18 -45 20 -22 2 -44 -2 -48 -7z"/>
 <path d="M1380 8883 c-49 -18 -57 -61 -19 -102 23 -24 75 -28 102 -7 20 16 38 68 28 84 -14 23 -77 37 -111 25z"/>
 <path d="M1224 8825 c-3 -8 -3 -19 1 -25 9 -15 58 -12 81 5 16 13 17 16 4 25 -23 15 -80 12 -86 -5z"/>
 <path d="M1543 8803 c-46 -6 -60 -27 -31 -47 28 -20 62 -21 78 -1 11 14 5 57 -8 53 -4 0 -21 -3 -39 -5z"/>
 <path d="M1270 8696 c0 -16 70 -30 83 -17 17 17 -4 31 -44 31 -26 0 -39 -4 -39 -14z"/>
 <path d="M1425 8660 c-12 -19 6 -30 50 -30 45 0 68 16 44 31 -19 12 -86 11 -94 -1z"/>
 <path d="M1010 8391 c-22 -6 -24 -12 -22 -46 2 -22 11 -53 21 -70 15 -26 23 -30 60 -31 47 0 73 23 66 61 -2 11 -4 23 -4 27 -2 14 -67 68 -81 67 -8 -1 -26 -4 -40 -8z m83 -63 c8 -12 7 -21 -2 -32 -18 -22 -38 -20 -51 5 -22 40 29 66 53 27z"/>
 <path d="M1003 4038 c-5 -7 -15 -25 -22 -39 -16 -32 -79 -69 -117 -69 -16 0 -42 -9 -59 -20 -34 -23 -65 -26 -83 -8 -19 19 -37 -4 -23 -31 12 -21 40 -32 90 -35 15 -1 35 -9 45 -19 10 -9 22 -17 27 -17 5 0 9 -7 9 -15 0 -8 14 -36 30 -62 17 -26 30 -53 30 -60 0 -16 -17 -17 -22 -1 -2 6 -9 8 -16 4 -14 -8 -5 -36 12 -36 7 0 25 -14 41 -31 24 -28 27 -37 22 -80 -3 -27 -13 -59 -22 -71 -17 -25 -20 -99 -4 -115 19 -19 -28 -81 -70 -93 -52 -14 -69 -50 -43 -94 15 -26 25 -32 60 -34 33 -2 46 -9 62 -33 12 -16 30 -29 40 -29 24 0 35 -31 15 -42 -10 -6 -15 -24 -15 -56 0 -26 -7 -56 -15 -66 -17 -22 -17 -22 -30 18 -13 38 -41 50 -31 13 3 -14 9 -32 12 -41 4 -11 -2 -17 -23 -21 -142 -29 -166 -55 -87 -96 25 -13 64 -44 85 -69 l39 -45 -25 -3 c-30 -4 -33 -18 -4 -27 11 -4 25 -20 31 -37 9 -24 15 -29 34 -24 28 7 38 -17 28 -71 -11 -64 -20 -73 -69 -73 -35 0 -48 -5 -64 -26 -12 -15 -21 -34 -21 -43 1 -31 51 -71 90 -71 13 0 20 -7 20 -18 0 -25 29 -50 67 -58 24 -5 36 -1 52 15 12 12 21 28 21 36 0 8 3 15 8 16 63 6 88 29 70 63 -15 28 -77 101 -86 100 -16 -1 -40 44 -46 88 -4 26 -14 54 -22 62 -8 8 -14 19 -14 24 0 25 97 82 139 82 10 0 26 6 36 14 18 13 15 18 -56 87 l-75 74 4 67 c2 37 0 81 -6 97 -8 21 -8 33 0 37 5 4 16 22 24 40 9 21 21 34 33 34 24 0 71 37 71 56 0 8 -4 14 -9 14 -5 0 -11 9 -14 20 -5 20 -49 44 -100 55 -23 5 -27 10 -21 23 24 54 6 162 -27 162 -6 0 -8 16 -4 44 8 48 -4 80 -39 108 -12 10 -16 18 -8 18 7 0 11 4 7 9 -3 5 -1 12 4 16 6 3 8 12 5 19 -9 23 49 56 99 56 25 0 48 4 52 9 3 5 19 12 35 16 36 8 39 32 5 45 -14 5 -25 13 -25 17 0 5 -13 15 -28 24 -15 9 -41 41 -57 72 -26 49 -28 60 -17 77 21 34 -12 79 -35 48z m7 -148 c30 -26 14 -49 -30 -42 -23 3 -30 9 -30 27 0 20 10 31 31 34 3 1 16 -8 29 -19z m-113 -45 c-8 -9 -16 -10 -24 -3 -18 15 -16 26 5 30 22 5 33 -11 19 -27z m177 -41 c22 -8 20 -21 -4 -29 -28 -9 -44 3 -29 21 13 16 12 16 33 8z m-91 -21 c12 -7 -20 -33 -42 -33 -27 0 -34 15 -16 34 14 13 31 13 58 -1z m33 -429 c-4 -14 -12 -24 -19 -21 -17 5 -21 45 -6 63 11 14 14 13 22 -1 5 -9 6 -28 3 -41z m14 -136 c0 -13 -8 -18 -30 -18 -26 0 -30 3 -30 29 0 16 6 31 13 34 17 6 47 -22 47 -45z m90 -3 c0 -2 -3 -10 -6 -19 -10 -25 -39 -20 -39 7 0 19 4 22 23 19 12 -2 22 -6 22 -7z m-174 -19 c8 -21 -14 -56 -34 -56 -10 0 -27 6 -37 14 -19 14 -19 15 -1 35 22 24 64 28 72 7z m89 -57 c4 -5 -1 -19 -11 -30 -15 -16 -20 -17 -31 -6 -8 7 -11 21 -7 30 7 19 39 23 49 6z m-14 -330 c14 -28 -1 -44 -35 -35 -30 7 -34 30 -8 45 25 15 30 14 43 -10z m-106 -19 c0 -18 -16 -22 -35 -10 -13 9 -13 11 0 20 19 12 35 8 35 -10z m188 -45 c7 -18 -9 -29 -30 -21 -12 5 -13 9 -3 21 16 19 26 19 33 0z m-108 -39 c16 -16 10 -26 -16 -26 -17 0 -32 23 -22 34 10 10 23 7 38 -8z m74 -318 c11 -28 6 -38 -19 -38 -25 0 -33 15 -20 40 14 26 29 25 39 -2z m-89 -28 c0 -5 -5 -10 -11 -10 -6 0 -17 -7 -25 -15 -20 -19 -54 -19 -54 0 0 7 8 19 18 24 22 13 72 14 72 1z m80 -81 c-14 -24 -38 -35 -51 -22 -18 18 2 43 32 43 27 0 29 -2 19 -21z"/>
 <path d="M1355 82 c-9 -9 -6 -20 11 -36 22 -23 39 -20 42 8 1 18 -4 25 -23 28 -13 3 -27 3 -30 0z"/>
 <path d="M1436 74 c-21 -21 -20 -24 9 -24 15 0 25 6 25 14 0 23 -17 28 -34 10z"/>
 <path d="M1817 84 c-11 -12 3 -24 28 -24 18 0 23 4 19 15 -6 15 -35 20 -47 9z"/>
 </g>
<g id="layer102" fill="#a72d20" stroke="none">
 <path d="M2096 15949 c-71 -84 -77 -104 -85 -288 -8 -184 2 -296 30 -328 9 -10 24 -33 33 -50 15 -30 36 -44 36 -25 0 4 -11 41 -24 82 -39 120 -49 217 -37 351 12 129 25 168 71 217 25 28 36 33 58 28 60 -14 81 -28 95 -64 15 -36 14 -38 -10 -64 -35 -37 -28 -62 20 -66 21 -2 45 2 53 9 23 19 17 84 -13 141 -33 60 -81 87 -155 88 -40 0 -50 -4 -72 -31z"/>
 <path d="M1000 15811 c0 -14 91 -91 107 -91 9 0 11 -5 7 -12 -4 -7 -4 -10 1 -6 4 4 23 1 42 -7 20 -8 63 -15 97 -14 67 1 67 0 -60 39 -42 13 -92 38 -123 61 -51 39 -71 47 -71 30z"/>
 <path d="M1274 15410 c-16 -6 -22 -20 -27 -61 -4 -28 -4 -56 -1 -60 11 -19 73 -9 103 17 32 27 39 60 21 95 -11 20 -57 25 -96 9z"/>
 <path d="M607 15242 c-32 -52 -142 -155 -231 -216 -48 -32 -54 -32 -68 -1 -11 25 -38 35 -38 15 0 -6 7 -24 15 -40 15 -29 15 -30 -21 -45 -44 -18 -44 -18 -44 -1 0 20 -19 31 -32 18 -7 -7 -6 -17 2 -33 11 -20 10 -25 -9 -37 -11 -8 -21 -21 -21 -28 0 -17 5 -17 31 -4 16 9 21 7 31 -15 6 -14 18 -25 26 -25 14 0 13 13 -2 51 -6 12 1 19 25 28 18 6 34 11 36 11 2 0 10 -18 19 -39 32 -81 59 -50 29 33 -13 37 -12 39 12 62 14 13 29 24 32 24 3 0 24 16 46 36 22 19 57 46 78 60 20 13 37 28 37 32 0 4 18 27 40 51 38 41 50 74 32 85 -5 3 -16 -7 -25 -22z"/>
 <path d="M1622 15050 c-27 -26 -28 -37 -2 -45 35 -11 62 4 58 33 -4 34 -27 39 -56 12z"/>
 <path d="M1476 15045 c-25 -19 -9 -38 25 -33 16 2 24 10 24 23 0 25 -24 29 -49 10z"/>
 <path d="M935 14991 c-52 -22 -52 -73 -1 -106 23 -15 27 -15 61 0 44 21 56 58 29 85 -23 23 -62 32 -89 21z"/>
 <path d="M1312 14991 c-22 -14 -10 -46 17 -46 22 0 52 28 41 38 -12 11 -46 16 -58 8z"/>
 <path d="M1722 14962 c-24 -24 -26 -31 -13 -51 11 -17 56 -8 64 13 3 8 -2 25 -12 37 l-18 22 -21 -21z"/>
 <path d="M1536 14914 c-19 -50 4 -80 45 -58 33 17 37 34 11 57 -23 21 -48 22 -56 1z"/>
 <path d="M1394 14806 c-6 -7 -15 -22 -18 -33 -12 -37 54 -43 68 -6 11 28 -30 60 -50 39z"/>
 <path d="M653 14759 c3 -23 15 -54 26 -68 12 -14 27 -39 34 -56 30 -66 158 -221 322 -389 33 -34 79 -86 102 -116 70 -92 151 -160 191 -160 19 0 23 5 20 22 -2 13 -11 24 -23 26 -34 7 -82 49 -132 119 -26 36 -79 98 -117 136 -37 39 -100 107 -139 151 -39 45 -73 83 -76 86 -16 13 -60 80 -80 118 -29 57 -103 159 -120 167 -11 4 -13 -3 -8 -36z"/>
 <path d="M1578 14727 c-25 -19 -32 -54 -12 -61 17 -7 64 18 64 33 0 4 -8 15 -18 24 -15 14 -21 14 -34 4z"/>
 <path d="M1821 14651 c-12 -8 -13 -14 -3 -35 6 -14 15 -26 19 -26 20 1 34 19 31 41 -3 26 -24 34 -47 20z"/>
 <path d="M1414 14635 c-15 -38 29 -72 52 -40 9 13 10 23 3 36 -12 23 -47 25 -55 4z"/>
 <path d="M1637 14624 c-4 -4 -7 -18 -7 -31 0 -21 4 -24 28 -21 21 2 27 8 27 28 0 18 -6 26 -20 28 -12 2 -24 0 -28 -4z"/>
 <path d="M1262 14598 c-7 -7 -12 -17 -12 -23 0 -19 38 -48 55 -42 29 12 12 77 -20 77 -6 0 -16 -5 -23 -12z"/>
 <path d="M1717 14478 c-7 -25 -1 -38 18 -38 18 0 28 30 14 46 -16 20 -26 17 -32 -8z"/>
 <path d="M1577 14456 c-3 -8 0 -21 6 -30 11 -15 15 -15 31 -3 12 9 17 20 13 31 -8 20 -43 21 -50 2z"/>
 <path d="M655 14401 c-5 -10 -7 -75 -2 -171 1 -23 -14 -291 -18 -320 -2 -14 -13 -72 -24 -130 -12 -62 -17 -108 -12 -113 13 -13 37 38 46 98 12 77 13 85 26 155 14 78 15 451 1 475 -6 13 -11 14 -17 6z"/>
 <path d="M2260 14341 c0 -21 -3 -52 -6 -68 -5 -26 7 -42 163 -200 183 -185 233 -221 300 -210 55 9 63 21 63 96 0 77 -9 91 -60 91 -41 0 -87 -38 -77 -64 8 -21 54 -31 72 -16 13 10 15 8 15 -13 0 -14 -7 -28 -16 -31 -24 -9 -84 -7 -84 3 0 5 -9 13 -20 16 -30 9 -268 253 -291 297 -10 21 -19 48 -19 62 0 33 -17 76 -30 76 -5 0 -10 -17 -10 -39z"/>
 <path d="M1402 14048 c-21 -21 -13 -38 18 -38 28 0 57 29 43 44 -11 10 -48 7 -61 -6z"/>
 <path d="M1888 14046 c-79 -15 -89 -28 -53 -66 38 -40 57 -44 96 -22 37 20 48 52 27 80 -12 16 -19 17 -70 8z"/>
 <path d="M1516 13995 c-7 -20 11 -27 56 -23 21 2 33 8 33 18 0 22 -80 27 -89 5z"/>
 <path d="M1541 13876 c-10 -12 -8 -17 9 -26 33 -17 75 -9 75 15 0 16 -8 21 -36 23 -22 2 -40 -2 -48 -12z"/>
 <path d="M1260 13840 c-12 -7 -12 -13 -4 -27 16 -26 56 -27 85 -4 20 18 22 22 9 31 -19 12 -70 13 -90 0z"/>
 <path d="M1494 13749 c-11 -19 10 -29 49 -22 51 8 50 33 -2 33 -22 0 -43 -5 -47 -11z"/>
 <path d="M1330 13711 c-25 -17 3 -33 51 -29 31 2 44 7 44 18 0 18 -71 26 -95 11z"/>
 <path d="M1753 13419 c-18 -16 -33 -33 -34 -37 0 -4 -2 -16 -4 -27 -7 -37 18 -60 67 -62 49 -2 58 7 78 75 8 29 6 37 -15 58 -32 32 -53 30 -92 -7z m56 -33 c16 -19 -4 -59 -26 -54 -26 5 -39 34 -24 52 17 20 35 20 50 2z"/>
 <path d="M1940 13165 c0 -43 121 -68 163 -34 28 22 17 34 -20 22 -21 -8 -39 -5 -71 9 -53 22 -72 23 -72 3z"/>
 <path d="M1914 13085 c-8 -20 2 -32 48 -61 36 -23 63 -28 130 -22 19 1 31 35 17 44 -5 3 -27 3 -49 -1 -35 -6 -78 9 -100 35 -13 16 -41 19 -46 5z"/>
 <path d="M1006 12948 c-9 -35 -8 -38 18 -38 33 0 39 12 20 38 -19 28 -30 28 -38 0z"/>
 <path d="M1160 12904 c-44 -40 -44 -54 1 -54 38 0 58 20 63 59 5 42 -14 40 -64 -5z"/>
 <path d="M840 12815 c0 -1 9 -12 20 -25 11 -13 20 -19 20 -14 0 5 4 3 9 -4 6 -11 11 -10 25 3 30 31 20 46 -29 44 -25 -2 -45 -3 -45 -4z"/>
 <path d="M813 12710 c-29 -12 -29 -18 4 -46 32 -28 43 -21 36 24 -6 35 -7 35 -40 22z"/>
 <path d="M1443 12598 c-11 -25 -6 -95 8 -104 18 -11 9 -45 -14 -53 -13 -5 -29 -16 -36 -25 -11 -14 -11 -16 2 -16 9 0 28 5 43 10 33 13 43 5 74 -55 16 -30 30 -45 43 -45 17 0 19 5 14 35 -3 19 -15 48 -26 64 -28 38 -27 42 14 70 19 13 35 30 35 37 0 20 -12 17 -50 -11 -39 -29 -50 -31 -50 -11 0 8 -4 16 -10 18 -5 2 -11 19 -13 39 -2 19 -8 43 -14 53 -8 15 -10 15 -20 -6z"/>
 <path d="M842 12499 c-23 -21 -21 -39 4 -39 12 0 34 36 34 56 0 10 -18 2 -38 -17z"/>
 <path d="M1238 12413 c-24 -6 -23 -25 2 -46 44 -37 88 -7 46 32 -12 12 -24 20 -27 20 -2 -1 -12 -3 -21 -6z"/>
 <path d="M1020 12358 c0 -13 -3 -34 -6 -48 -6 -23 -3 -22 32 13 30 31 35 40 23 48 -26 16 -49 10 -49 -13z"/>
 <path d="M1530 12013 c1 -22 16 -42 56 -70 33 -23 72 -21 123 6 32 18 18 26 -44 26 -45 0 -58 5 -82 28 -33 31 -53 35 -53 10z"/>
 <path d="M1507 11894 c-20 -20 48 -86 80 -79 12 3 25 1 28 -5 8 -14 42 -13 51 2 10 15 -19 34 -65 42 -20 3 -46 15 -56 26 -19 21 -28 24 -38 14z"/>
 <path d="M1140 10931 c0 -24 88 -49 130 -36 35 11 22 20 -45 33 -77 14 -85 15 -85 3z"/>
 <path d="M599 10914 c-68 -28 -128 -178 -85 -213 8 -7 32 -11 53 -9 31 2 39 7 41 25 2 14 -6 32 -21 47 -22 22 -23 27 -11 54 24 58 103 87 146 53 45 -35 67 -99 79 -228 12 -136 2 -232 -37 -353 -36 -112 -29 -120 29 -33 39 59 49 111 51 278 3 199 -21 289 -97 373 -25 26 -92 29 -148 6z"/>
 <path d="M1106 10842 c-10 -16 18 -39 69 -56 41 -13 51 -14 62 -3 21 21 5 44 -35 51 -20 3 -49 8 -63 12 -15 3 -29 2 -33 -4z"/>
 <path d="M1777 10731 c-27 -22 -78 -47 -115 -59 -139 -44 -133 -40 -66 -41 34 -1 77 6 97 14 19 8 38 11 42 7 5 -4 5 -1 1 6 -4 7 -2 12 7 12 16 0 107 77 107 91 0 18 -25 7 -73 -30z"/>
 <path d="M1491 10361 c-9 -5 -15 -25 -15 -47 0 -50 41 -86 93 -82 l36 3 -3 55 c-2 30 -7 59 -12 63 -12 13 -83 19 -99 8z"/>
 <path d="M2216 10213 c-16 -16 -1 -44 57 -103 63 -66 156 -148 186 -164 9 -5 24 -17 33 -26 15 -16 15 -22 3 -56 -30 -83 -3 -114 29 -33 9 21 17 39 19 39 2 0 18 -5 36 -11 24 -9 31 -16 25 -28 -16 -40 -16 -51 0 -51 9 0 21 11 26 25 8 22 13 24 29 15 26 -13 31 -13 31 4 0 7 -10 20 -22 28 -20 13 -21 18 -9 32 14 17 9 46 -10 46 -6 0 -13 -9 -16 -20 -6 -24 -2 -23 -47 -5 -36 15 -36 16 -21 45 19 37 19 50 0 50 -8 0 -15 -4 -15 -8 0 -5 -6 -16 -13 -26 -13 -17 -15 -17 -45 -2 -29 15 -82 58 -166 134 -16 15 -46 48 -67 74 -20 26 -39 44 -43 41z"/>
 <path d="M1177 10013 c-15 -14 -6 -52 13 -58 23 -7 60 2 60 16 0 27 -56 59 -73 42z"/>
 <path d="M1326 10001 c-11 -17 6 -41 29 -41 31 0 40 16 21 35 -16 17 -42 20 -50 6z"/>
 <path d="M1498 9943 c-22 -5 -23 -26 -3 -43 23 -19 50 -8 50 20 0 25 -14 32 -47 23z"/>
 <path d="M1860 9943 c-26 -10 -50 -35 -50 -53 0 -21 40 -59 65 -61 42 -4 53 2 70 37 16 35 16 37 -1 55 -21 20 -61 31 -84 22z"/>
 <path d="M1092 9917 c-20 -27 -21 -36 -6 -51 20 -20 50 -21 58 0 12 32 -32 76 -52 51z"/>
 <path d="M1257 9862 c-21 -23 -14 -45 18 -60 30 -14 48 5 43 45 -4 35 -36 42 -61 15z"/>
 <path d="M1421 9753 c-32 -26 -19 -53 25 -53 39 0 44 16 15 49 -18 20 -19 21 -40 4z"/>
 <path d="M2185 9742 c-19 -13 -92 -117 -115 -162 -22 -44 -60 -98 -90 -130 -8 -9 -38 -43 -66 -76 -28 -32 -85 -93 -125 -134 -41 -41 -85 -91 -98 -110 -54 -78 -114 -140 -151 -156 -25 -11 -40 -24 -40 -36 0 -58 122 23 213 141 23 30 69 82 102 116 155 158 291 323 322 390 8 17 25 45 38 64 15 20 25 48 25 67 0 37 0 37 -15 26z"/>
 <path d="M1229 9664 c-11 -14 -10 -19 10 -35 26 -22 30 -22 50 -10 12 8 13 14 3 35 -13 29 -43 34 -63 10z"/>
 <path d="M987 9604 c-14 -14 -7 -52 10 -58 20 -8 45 20 41 44 -3 16 -39 26 -51 14z"/>
 <path d="M1387 9593 c-11 -10 -8 -51 3 -58 22 -14 50 6 50 36 0 24 -4 29 -23 29 -13 0 -27 -3 -30 -7z"/>
 <path d="M1164 9566 c-8 -21 13 -46 38 -46 30 0 21 54 -10 58 -13 2 -25 -3 -28 -12z"/>
 <path d="M1542 9548 c-17 -17 -15 -57 4 -65 9 -3 25 3 37 16 17 17 19 25 11 39 -14 22 -36 26 -52 10z"/>
 <path d="M1101 9436 c-14 -16 -4 -46 14 -46 19 0 25 13 18 38 -6 25 -16 28 -32 8z"/>
 <path d="M1223 9404 c-4 -11 1 -22 13 -31 16 -12 20 -12 31 3 6 9 9 22 6 30 -7 19 -42 18 -50 -2z"/>
 <path d="M2175 9339 c-12 -37 -9 -398 4 -469 7 -36 14 -81 17 -100 11 -82 39 -160 56 -160 11 0 10 43 -1 73 -5 13 -10 44 -12 68 -1 24 -6 49 -10 54 -4 6 -10 44 -13 85 -4 41 -9 95 -11 120 -2 25 -4 95 -4 155 0 159 -1 179 -10 188 -5 5 -12 -1 -16 -14z"/>
 <path d="M567 9323 c-2 -5 -10 -37 -17 -72 -12 -59 -20 -71 -84 -140 -174 -186 -241 -241 -294 -241 -30 0 -52 16 -52 37 0 8 14 13 39 13 47 0 58 13 41 46 -15 27 -43 39 -80 35 -42 -5 -50 -19 -50 -88 0 -73 10 -88 63 -98 66 -13 116 22 301 208 166 168 168 171 162 206 -3 20 -6 51 -6 69 0 29 -13 43 -23 25z"/>
 <path d="M890 8985 c-16 -30 -5 -59 26 -73 41 -19 68 -14 99 18 25 26 27 32 15 44 -8 8 -41 18 -72 23 -53 9 -57 8 -68 -12z"/>
 <path d="M1387 9004 c-14 -15 15 -44 43 -44 31 0 39 17 18 38 -13 13 -50 16 -61 6z"/>
 <path d="M1245 8951 c-12 -20 6 -31 51 -31 38 0 45 3 42 18 -2 12 -15 18 -45 20 -22 2 -44 -2 -48 -7z"/>
 <path d="M1224 8825 c-3 -8 -3 -19 1 -25 9 -15 58 -12 81 5 16 13 17 16 4 25 -23 15 -80 12 -86 -5z"/>
 <path d="M1501 8786 c-10 -11 -7 -17 11 -30 42 -29 99 -10 84 29 -7 19 -79 20 -95 1z"/>
 <path d="M1270 8696 c0 -16 70 -30 83 -17 17 17 -4 31 -44 31 -26 0 -39 -4 -39 -14z"/>
 <path d="M1425 8660 c-12 -19 6 -30 50 -30 45 0 68 16 44 31 -19 12 -86 11 -94 -1z"/>
 <path d="M1012 8384 c-28 -19 -29 -67 -2 -111 17 -29 23 -32 61 -29 47 3 71 26 64 60 -2 12 -4 24 -4 28 -2 14 -66 68 -81 68 -9 0 -26 -7 -38 -16z m81 -56 c8 -12 7 -21 -2 -32 -18 -22 -38 -20 -51 5 -22 40 29 66 53 27z"/>
 <path d="M855 8119 c-28 -14 -52 -18 -82 -14 -46 5 -55 -5 -23 -28 46 -32 160 -1 160 43 0 24 -4 24 -55 -1z"/>
 <path d="M910 8042 c-8 -3 -17 -8 -20 -11 -21 -26 -65 -42 -100 -36 -22 4 -44 4 -49 1 -14 -9 -2 -43 17 -44 61 -5 94 -1 119 14 36 22 73 55 73 65 0 10 -23 17 -40 11z"/>
 <path d="M1806 7898 c-19 -26 -13 -38 20 -38 20 0 24 5 24 30 0 36 -22 40 -44 8z"/>
 <path d="M1626 7859 c2 -16 10 -37 18 -45 16 -15 86 -20 86 -5 0 13 -78 81 -94 81 -9 0 -12 -10 -10 -31z"/>
 <path d="M1920 7757 c0 -8 9 -22 20 -32 11 -10 20 -13 20 -7 0 6 9 13 19 17 11 3 22 12 25 20 4 12 -4 15 -39 15 -31 0 -45 -4 -45 -13z"/>
 <path d="M1997 7638 c-7 -46 4 -52 38 -23 30 26 27 38 -11 49 -18 6 -22 2 -27 -26z"/>
 <path d="M1394 7563 c4 -7 2 -13 -3 -13 -6 0 -11 -12 -11 -26 0 -28 -28 -94 -39 -94 -4 0 -22 11 -41 25 -38 28 -50 31 -50 11 0 -7 16 -24 35 -37 41 -28 42 -32 14 -70 -11 -16 -23 -45 -26 -64 -5 -30 -3 -35 14 -35 13 0 30 19 53 59 30 51 37 58 53 49 10 -5 31 -12 45 -14 26 -4 26 -3 -11 29 l-38 33 16 38 c9 21 14 41 11 43 -3 3 -2 13 3 22 6 11 2 22 -12 36 -11 11 -17 14 -13 8z"/>
 <path d="M1980 7446 c0 -28 14 -40 35 -32 18 7 11 28 -15 44 -18 11 -20 10 -20 -12z"/>
 <path d="M1564 7351 c-41 -51 8 -73 54 -24 24 26 24 28 6 32 -10 2 -23 7 -29 11 -6 4 -19 -4 -31 -19z"/>
 <path d="M1782 7321 c-10 -6 -4 -17 24 -46 33 -34 37 -36 31 -14 -4 13 -7 34 -7 47 0 23 -23 29 -48 13z"/>
 <path d="M1267 6953 c-23 -24 -36 -28 -82 -28 -62 0 -76 -8 -44 -26 51 -27 90 -29 123 -6 40 28 55 48 56 70 0 25 -22 21 -53 -10z"/>
 <path d="M1305 6830 c-10 -11 -36 -23 -56 -26 -46 -8 -75 -27 -65 -42 9 -15 43 -16 51 -2 3 6 16 8 28 5 26 -6 74 30 79 59 4 27 -15 30 -37 6z"/>
 <path d="M1675 5890 c-11 -5 -39 -9 -62 -9 -46 -1 -60 -12 -38 -31 30 -25 157 13 130 38 -6 6 -19 6 -30 2z"/>
 <path d="M1685 5790 c-11 -5 -32 -9 -46 -9 -31 -1 -46 -28 -26 -48 25 -25 149 30 131 58 -6 11 -33 10 -59 -1z"/>
 <path d="M1542 5014 c-26 -18 -30 -69 -6 -102 23 -33 35 -27 30 15 -2 21 0 49 5 62 13 32 -1 45 -29 25z"/>
 <path d="M1770 4981 c0 -10 7 -24 16 -31 12 -11 18 -10 31 3 13 13 14 19 3 31 -18 22 -50 20 -50 -3z"/>
 <path d="M1612 4937 c-16 -18 -3 -57 18 -57 26 0 39 21 29 48 -9 25 -31 29 -47 9z"/>
 <path d="M1981 4906 c-16 -19 -3 -45 26 -52 39 -10 51 11 23 41 -27 29 -33 30 -49 11z"/>
 <path d="M1441 4802 c-8 -16 -6 -25 9 -44 17 -20 20 -21 34 -8 13 12 13 19 3 39 -16 32 -33 37 -46 13z"/>
 <path d="M1430 4585 c-14 -17 -5 -51 17 -59 10 -4 24 1 35 12 18 17 18 19 -2 40 -24 26 -33 27 -50 7z"/>
 <path d="M1563 4409 c-13 -13 -6 -46 13 -53 35 -14 59 25 32 52 -15 15 -31 15 -45 1z"/>
 <path d="M1890 4335 c0 -18 7 -26 25 -31 34 -8 41 1 25 31 -18 33 -50 33 -50 0z"/>
 <path d="M660 4306 c0 -21 86 -80 160 -109 36 -14 101 -32 145 -41 44 -9 127 -25 185 -37 58 -11 132 -20 165 -20 32 0 65 -4 71 -10 12 -10 63 -16 194 -25 138 -10 194 -20 210 -39 22 -26 41 -211 61 -585 14 -250 20 -1183 8 -1295 -29 -292 -33 -311 -80 -336 -12 -6 -37 -12 -57 -14 -21 -2 -37 -4 -37 -5 0 -9 -159 -23 -295 -27 -130 -4 -137 -3 -162 19 -16 14 -28 38 -31 63 -8 51 -56 97 -100 98 -53 1 -103 -12 -131 -34 -21 -16 -26 -29 -26 -62 0 -73 60 -135 150 -157 130 -31 581 -5 800 47 124 29 126 29 165 41 25 7 39 4 82 -20 29 -15 83 -44 120 -64 37 -19 95 -53 128 -74 68 -44 87 -56 168 -99 32 -17 83 -48 115 -69 31 -20 71 -44 87 -52 17 -8 44 -24 60 -36 17 -11 48 -29 70 -39 22 -9 54 -28 72 -41 32 -24 63 -32 63 -15 0 5 -13 14 -30 21 -16 7 -30 16 -30 21 0 4 -10 11 -22 15 -13 3 -45 21 -73 39 -92 58 -104 65 -120 65 -8 0 -15 3 -15 8 0 4 -37 27 -82 52 -44 25 -129 77 -187 115 -58 39 -126 81 -150 93 -56 30 -63 37 -98 108 -37 72 -49 137 -62 324 -21 296 -28 520 -36 1160 -3 217 -8 459 -11 537 -5 134 -4 143 15 162 24 24 59 26 129 10 26 -5 67 -15 92 -20 25 -6 79 -19 120 -29 41 -10 118 -28 170 -40 113 -25 158 -38 185 -56 20 -13 21 -22 19 -210 -1 -108 2 -305 6 -438 5 -132 12 -338 15 -456 3 -118 7 -246 10 -285 11 -161 25 -445 25 -518 0 -97 20 -147 57 -147 l26 0 -7 188 c-4 103 -11 264 -16 357 -5 94 -12 262 -15 375 -3 113 -8 225 -11 250 -3 25 -5 252 -6 505 -1 456 -1 460 21 512 13 28 31 59 42 69 10 9 19 23 19 31 0 7 5 13 10 13 6 0 27 11 48 24 26 17 50 23 82 22 l45 -1 19 -60 c21 -66 28 -75 67 -75 33 0 44 14 53 63 10 55 -1 97 -25 97 -10 0 -19 3 -19 8 0 4 -16 18 -35 31 -35 24 -37 24 -138 12 -56 -7 -115 -16 -132 -21 -16 -5 -104 -14 -195 -20 -91 -7 -178 -13 -195 -15 -16 -2 -82 -9 -145 -15 -63 -6 -137 -16 -165 -21 -27 -5 -99 -13 -160 -18 -60 -5 -117 -10 -125 -11 -138 -16 -414 -1 -545 30 -22 5 -114 21 -205 35 -245 38 -449 89 -542 137 -31 15 -38 16 -38 4z"/>
 <path d="M1406 4051 c-14 -22 23 -59 45 -45 5 3 9 16 9 30 0 19 -5 24 -24 24 -14 0 -27 -4 -30 -9z"/>
 <path d="M3136 4007 c-18 -13 -18 -14 -1 -21 22 -8 28 -3 23 19 -3 14 -5 14 -22 2z"/>
 <path d="M1432 3927 c-23 -13 -23 -13 -3 -31 11 -10 27 -16 36 -12 22 8 30 36 14 47 -18 11 -19 11 -47 -4z"/>
 <path d="M3192 3813 c3 -30 35 -44 49 -22 11 19 -8 49 -32 49 -16 0 -20 -5 -17 -27z"/>
 <path d="M1452 3797 c-10 -11 -9 -17 2 -26 21 -18 51 -9 51 14 0 24 -36 32 -53 12z"/>
 <path d="M1470 3676 c0 -25 30 -43 50 -31 16 10 12 42 -6 49 -31 12 -44 6 -44 -18z"/>
 <path d="M3194 3665 c-10 -25 4 -45 31 -45 31 0 35 34 6 50 -26 13 -31 13 -37 -5z"/>
 <path d="M890 3650 c0 -11 6 -20 13 -20 7 0 26 -13 42 -30 25 -26 27 -34 22 -80 -3 -28 -13 -60 -22 -72 -17 -25 -20 -99 -4 -115 19 -19 -28 -81 -70 -93 -52 -14 -69 -50 -43 -94 15 -26 25 -32 60 -34 33 -2 46 -9 62 -33 12 -16 30 -29 40 -29 25 0 43 -57 41 -127 -1 -40 2 -54 12 -51 15 6 22 111 8 149 -7 19 -6 31 1 35 5 4 16 22 24 40 9 21 21 34 33 34 24 0 71 37 71 56 0 8 -4 14 -9 14 -5 0 -11 9 -14 20 -5 20 -49 44 -100 55 -23 5 -27 10 -21 23 24 54 6 162 -27 162 -6 0 -8 16 -4 44 7 42 -13 106 -33 106 -4 0 -21 14 -39 30 -38 35 -43 37 -43 10z m126 -296 c-4 -14 -12 -24 -19 -21 -17 5 -21 45 -6 63 11 14 14 13 22 -1 5 -9 6 -28 3 -41z m14 -136 c0 -13 -8 -18 -30 -18 -26 0 -30 3 -30 29 0 16 6 31 13 34 17 6 47 -22 47 -45z m90 -3 c0 -2 -3 -10 -6 -19 -10 -25 -39 -20 -39 7 0 19 4 22 23 19 12 -2 22 -6 22 -7z m-174 -19 c8 -21 -14 -56 -34 -56 -10 0 -27 6 -37 14 -19 14 -19 15 -1 35 22 24 64 28 72 7z m89 -57 c4 -5 -1 -19 -11 -30 -15 -16 -20 -17 -31 -6 -8 7 -11 21 -7 30 7 19 39 23 49 6z"/>
 <path d="M2417 3643 c-4 -10 -2 -24 7 -45 10 -22 54 -24 63 -2 10 27 -57 72 -70 47z"/>
 <path d="M1484 3559 c-3 -6 1 -18 10 -27 19 -19 49 -7 54 22 3 12 -4 16 -27 16 -16 0 -33 -5 -37 -11z"/>
 <path d="M3210 3500 c-18 -11 -3 -43 23 -48 20 -4 34 38 16 49 -18 11 -21 11 -39 -1z"/>
 <path d="M2427 3468 c-25 -14 -22 -57 6 -67 22 -9 47 2 47 21 0 5 -8 20 -18 33 -14 17 -22 21 -35 13z"/>
 <path d="M1473 3425 c-7 -19 -5 -20 27 -28 31 -8 55 6 47 27 -8 21 -66 22 -74 1z"/>
 <path d="M3192 3368 c-19 -19 -14 -38 15 -49 36 -14 51 2 33 36 -15 27 -30 31 -48 13z"/>
 <path d="M1485 3332 c-8 -22 8 -34 41 -30 40 4 37 30 -3 39 -24 5 -33 2 -38 -9z"/>
 <path d="M3196 3215 c-13 -36 24 -61 52 -33 9 9 8 16 -5 30 -20 22 -39 23 -47 3z"/>
 <path d="M1483 3204 c-8 -21 24 -46 52 -42 23 4 33 37 13 49 -22 14 -58 10 -65 -7z"/>
 <path d="M2407 3173 c-14 -17 -14 -21 8 -57 l23 -39 26 26 c32 33 32 40 0 66 -32 25 -37 26 -57 4z"/>
 <path d="M1495 3070 c-11 -18 10 -32 41 -28 40 4 38 32 -3 36 -17 2 -34 -2 -38 -8z"/>
 <path d="M3184 3065 c-8 -20 13 -45 37 -45 29 0 33 19 8 41 -27 23 -38 24 -45 4z"/>
 <path d="M2390 2966 c0 -23 28 -56 48 -56 35 0 12 62 -27 73 -17 4 -21 0 -21 -17z"/>
 <path d="M1498 2949 c-24 -13 -23 -36 1 -49 35 -18 60 -12 67 16 10 39 -28 57 -68 33z"/>
 <path d="M914 2914 c8 -33 23 -51 33 -41 10 11 -10 60 -26 65 -11 4 -12 -2 -7 -24z"/>
 <path d="M3175 2910 c-9 -15 13 -40 35 -40 24 0 31 10 19 31 -11 20 -44 26 -54 9z"/>
 <path d="M3201 2801 c-18 -18 -19 -24 -9 -41 17 -27 55 -26 63 1 5 15 1 28 -13 41 -20 20 -20 20 -41 -1z"/>
 <path d="M1491 2801 c-8 -5 -11 -16 -8 -26 5 -12 17 -15 44 -13 30 2 38 7 38 23 0 15 -8 21 -30 23 -16 1 -36 -2 -44 -7z"/>
 <path d="M2393 2744 c-7 -18 37 -64 62 -64 27 0 29 29 5 56 -27 27 -58 31 -67 8z"/>
 <path d="M1490 2646 c0 -8 10 -22 22 -30 19 -14 24 -14 37 -2 7 8 11 22 8 30 -8 21 -67 22 -67 2z"/>
 <path d="M3187 2653 c-16 -16 -6 -53 19 -70 25 -16 27 -16 40 2 19 25 18 39 -4 58 -19 18 -44 22 -55 10z"/>
 <path d="M890 2632 c0 -11 46 -33 53 -25 3 3 3 11 0 19 -5 15 -53 20 -53 6z"/>
 <path d="M995 2580 c-3 -5 -1 -19 5 -31 7 -12 9 -37 5 -62 -12 -67 -20 -77 -70 -77 -35 0 -48 -5 -64 -26 -12 -15 -21 -34 -21 -43 1 -31 51 -71 90 -71 13 0 20 -7 20 -18 0 -25 29 -50 67 -58 24 -5 36 -1 52 15 12 12 21 28 21 36 0 8 3 15 8 16 63 6 88 29 70 63 -15 29 -78 102 -84 98 -9 -5 -44 46 -44 65 0 57 -38 121 -55 93z m74 -192 c11 -28 6 -38 -19 -38 -25 0 -33 15 -20 40 14 26 29 25 39 -2z m-89 -28 c0 -5 -5 -10 -11 -10 -6 0 -17 -7 -25 -15 -20 -19 -54 -19 -54 0 0 7 8 19 18 24 22 13 72 14 72 1z m80 -81 c-14 -24 -38 -35 -51 -22 -18 18 2 43 32 43 27 0 29 -2 19 -21z"/>
 <path d="M2405 2519 c-9 -14 24 -49 45 -49 26 0 32 25 11 44 -20 18 -47 21 -56 5z"/>
 <path d="M1524 2475 c-7 -18 3 -35 22 -35 20 0 30 30 13 41 -20 12 -29 11 -35 -6z"/>
 <path d="M3197 2474 c-15 -16 -7 -53 14 -59 30 -10 58 19 43 43 -12 18 -45 28 -57 16z"/>
 <path d="M1484 2358 c-8 -12 30 -48 52 -48 18 0 26 17 19 40 -7 22 -59 28 -71 8z"/>
 <path d="M3202 2309 c4 -27 29 -44 53 -35 16 6 16 8 2 29 -8 12 -24 23 -36 25 -18 3 -22 -1 -19 -19z"/>
 <path d="M2410 2318 c0 -3 5 -19 11 -36 15 -42 48 -49 77 -15 12 15 19 30 14 35 -9 9 -102 23 -102 16z"/>
 <path d="M1490 2200 c-12 -7 -12 -12 4 -29 22 -25 51 -27 60 -6 14 37 -26 59 -64 35z"/>
 <path d="M3213 2164 c-7 -19 5 -43 30 -58 22 -14 53 5 49 30 -7 39 -67 60 -79 28z"/>
 <path d="M2432 2108 c-27 -27 -2 -68 41 -68 23 0 29 30 12 56 -17 26 -35 30 -53 12z"/>
 <path d="M1462 2033 c2 -20 9 -28 23 -28 14 0 21 8 23 28 3 23 0 27 -23 27 -23 0 -26 -4 -23 -27z"/>
 <path d="M3230 1956 c0 -43 10 -56 45 -56 40 0 47 15 26 52 -22 38 -71 40 -71 4z"/>
 <path d="M1424 1896 c-9 -23 0 -51 16 -51 10 0 15 10 15 29 0 32 -21 47 -31 22z"/>
 <path d="M2463 1880 c-28 -11 -24 -39 10 -64 29 -22 31 -21 41 10 10 31 -22 65 -51 54z"/>
 <path d="M1452 1469 c-11 -16 -9 -23 12 -44 32 -32 53 -32 68 0 9 21 9 29 -5 42 -24 24 -61 25 -75 2z"/>
 <path d="M1022 1472 c-9 -6 -7 -14 9 -31 21 -22 40 -24 46 -4 4 11 -23 43 -35 43 -4 0 -13 -4 -20 -8z"/>
 <path d="M1864 1429 c-6 -10 32 -59 45 -59 20 1 33 20 28 42 -5 19 -13 25 -37 26 -16 0 -32 -4 -36 -9z"/>
 <path d="M2341 1371 c-9 -17 -8 -22 10 -32 24 -12 41 3 36 31 -4 23 -34 24 -46 1z"/>
 <path d="M1242 1328 c-20 -20 -14 -48 14 -59 34 -12 64 -3 64 20 0 33 -56 61 -78 39z"/>
 <path d="M933 1313 c-11 -29 64 -72 81 -45 7 12 -42 62 -60 62 -8 0 -17 -7 -21 -17z"/>
 <path d="M1946 1244 c-10 -26 -7 -34 19 -46 21 -10 27 -8 39 8 13 16 12 21 -1 37 -20 21 -49 22 -57 1z"/>
 <path d="M2383 1203 c-19 -7 5 -63 27 -63 14 0 18 6 15 22 -6 27 -26 47 -42 41z"/>
 <path d="M880 1147 c0 -31 18 -47 52 -47 21 0 28 5 28 19 0 27 -27 51 -56 51 -18 0 -24 -5 -24 -23z"/>
 <path d="M1217 1113 c-2 -5 -7 -20 -10 -34 -5 -21 -2 -28 18 -39 31 -17 55 -7 55 23 0 35 -49 74 -63 50z"/>
 <path d="M2001 1097 c-29 -14 -34 -38 -14 -66 20 -30 66 -28 83 3 11 21 10 27 -1 38 -37 35 -44 37 -68 25z"/>
 <path d="M2391 1028 c-12 -33 -3 -48 30 -48 17 0 29 5 29 13 -1 13 -34 57 -44 57 -4 0 -10 -10 -15 -22z"/>
 <path d="M907 963 c-22 -21 11 -64 43 -56 22 6 26 33 8 51 -13 13 -41 16 -51 5z"/>
 <path d="M1327 928 c-6 -20 15 -59 31 -56 21 4 36 32 29 52 -7 19 -53 22 -60 4z"/>
 <path d="M1974 876 c-15 -40 20 -72 51 -46 12 10 12 15 -2 36 -17 27 -41 31 -49 10z"/>
 <path d="M2374 844 c-4 -17 -2 -29 7 -35 35 -22 58 0 38 37 -16 31 -37 31 -45 -2z"/>
 <path d="M944 785 c-11 -28 4 -45 40 -45 44 0 53 13 26 40 -24 24 -58 26 -66 5z"/>
 <path d="M2327 692 c-21 -23 -21 -36 -1 -56 24 -25 37 -19 31 13 -4 18 -2 31 5 33 12 4 3 28 -11 28 -4 0 -15 -8 -24 -18z"/>
 <path d="M1374 669 c-18 -20 -18 -22 -2 -33 18 -13 51 -15 56 -3 6 19 0 37 -17 46 -14 8 -23 6 -37 -10z"/>
 <path d="M1047 593 c-14 -14 -6 -34 19 -45 20 -10 27 -9 34 2 18 29 -29 67 -53 43z"/>
 <path d="M2220 546 c-10 -13 -9 -20 4 -42 10 -14 23 -23 29 -21 15 5 11 48 -7 65 -10 11 -15 10 -26 -2z"/>
 <path d="M2100 442 c-30 -10 -40 -46 -15 -56 14 -5 55 28 55 45 0 10 -23 17 -40 11z"/>
 <path d="M1202 429 c-31 -12 -25 -43 9 -47 18 -2 29 3 33 14 10 26 -14 44 -42 33z"/>
 <path d="M1970 380 c0 -5 -9 -10 -20 -10 -24 0 -28 -35 -4 -44 39 -15 54 -7 54 29 0 24 -5 35 -15 35 -8 0 -15 -4 -15 -10z"/>
 <path d="M1374 355 c-11 -26 4 -45 35 -45 38 0 48 16 25 41 -20 23 -52 25 -60 4z"/>
 <path d="M1570 296 c0 -30 13 -40 40 -31 13 4 20 15 20 31 0 20 -5 24 -30 24 -25 0 -30 -4 -30 -24z"/>
 <path d="M1750 301 c0 -17 6 -21 36 -21 28 0 35 3 32 18 -2 11 -14 18 -36 20 -27 3 -32 0 -32 -17z"/>
 <path d="M1443 83 c-21 -7 -15 -33 7 -33 11 0 20 6 20 14 0 18 -11 25 -27 19z"/>
 <path d="M1817 84 c-11 -12 3 -24 28 -24 18 0 23 4 19 15 -6 15 -35 20 -47 9z"/>
 </g>

</svg>