<?xml version="1.0" encoding="UTF-8" standalone="no"?>
<svg
   xmlns:dc="http://purl.org/dc/elements/1.1/"
   xmlns:cc="http://creativecommons.org/ns#"
   xmlns:rdf="http://www.w3.org/1999/02/22-rdf-syntax-ns#"
   xmlns:svg="http://www.w3.org/2000/svg"
   xmlns="http://www.w3.org/2000/svg"
   viewBox="0 0 435.14999 118.6"
   height="118.6"
   width="435.14999"
   xml:space="preserve"
   version="1.1"
   id="svg2"><metadata
     id="metadata8"><rdf:RDF><cc:Work
         rdf:about=""><dc:format>image/svg+xml</dc:format><dc:type
           rdf:resource="http://purl.org/dc/dcmitype/StillImage" /></cc:Work></rdf:RDF></metadata><defs
     id="defs6" /><g
     transform="matrix(1.25,0,0,-1.25,0,118.6)"
     id="g10"><g
       transform="scale(0.1,0.1)"
       id="g12"><path
         id="path14"
         style="fill:#181210;fill-opacity:1;fill-rule:nonzero;stroke:none"
         d="m 1447.37,436.656 -326.33,0 0.87,12.188 c 18.3,0 39.25,4.316 48.61,9.414 6,3.398 6.52,51.699 6.52,170.273 0,117.715 -0.52,166.856 -6.52,170.254 -9.36,5.137 -29.04,8.574 -48.61,8.574 l -0.87,12.227 177.43,0 -0.83,-12.227 c -17.8,0 -36.69,-3.437 -46.07,-8.574 -6.01,-3.398 -6.54,-52.539 -6.54,-170.254 0,-118.574 0.53,-160.351 6.54,-163.73 9.38,-5.196 51.74,-9.434 91.77,-9.434 33.27,0 54.61,10.254 66.54,21.309 16.19,14.512 31.57,43.515 39.25,76.816 l 11.07,-2.617 -12.83,-114.219" /><path
         id="path16"
         style="fill:#181210;fill-opacity:1;fill-rule:nonzero;stroke:none"
         d="m 1681.96,811.93 c -84.43,0 -129.64,-68.242 -129.64,-181.7 0,-114.296 60.52,-185.937 147.55,-185.937 84.43,0 130.5,68.242 130.5,181.699 0,114.238 -61.43,185.938 -148.41,185.938 z m 11.1,-385.571 c -145.89,0 -213.27,105.825 -213.27,206.469 0,102.324 89.62,197.012 208.97,197.012 145.86,0 213.21,-104.922 213.21,-206.445 0,-102.325 -89.53,-197.036 -208.91,-197.036" /><path
         id="path18"
         style="fill:#181210;fill-opacity:1;fill-rule:nonzero;stroke:none"
         d="m 2302.31,806.637 c -18.21,0 -41.84,-5.137 -53.72,-17.051 -26.46,-26.426 -56.51,-67.227 -103.48,-141.426 -19.59,-30.742 -20.74,-39.238 -20.74,-84.453 0,-69.102 1.44,-102.871 6.55,-105.449 9.37,-5.977 34.24,-9.414 52.89,-9.414 l 0.83,-12.188 -188.49,0 0.86,12.188 c 17.4,0 43.49,3.437 52.88,9.414 5.11,2.578 6.45,28.652 6.45,111.387 0,20.488 -2.52,30.742 -17.86,58.046 -59.72,103.184 -97.68,160.879 -113.05,169.395 -11.93,6.836 -22.58,9.414 -41.75,9.414 l -0.96,12.246 182.53,0.84 -0.76,-12.227 c -26.35,0 -54.62,-5.976 -54.62,-12.832 0,-7.675 23.83,-48.281 98.01,-168.535 89.56,140.723 95.49,148.262 95.49,165.293 0,5.977 -10.61,16.211 -45.21,16.211 l -0.79,12.09 145.84,-0.84 -0.9,-12.109" /><path
         id="path20"
         style="fill:#181210;fill-opacity:1;fill-rule:nonzero;stroke:none"
         d="m 2482.64,811.93 c -84.45,0 -129.61,-68.242 -129.61,-181.7 0,-114.296 60.53,-185.937 147.54,-185.937 84.42,0 130.51,68.242 130.51,181.699 0,114.238 -61.43,185.938 -148.44,185.938 z m 11.1,-385.571 c -145.88,0 -213.24,105.825 -213.24,206.469 0,102.324 89.56,197.012 208.98,197.012 145.84,0 213.24,-104.922 213.24,-206.445 0,-102.325 -89.55,-197.036 -208.98,-197.036" /><path
         id="path22"
         style="fill:#181210;fill-opacity:1;fill-rule:nonzero;stroke:none"
         d="m 3041.06,436.656 -326.43,0 0.9,12.188 c 17.95,0 39.26,4.316 48.62,9.414 5.95,3.398 6.5,51.699 6.5,170.273 0,117.715 -0.55,166.856 -6.5,170.254 -9.36,5.137 -29.75,8.555 -48.62,8.555 l -0.9,12.246 177.45,0 -0.83,-12.246 c -16.6,0 -36.69,-3.418 -46.09,-8.555 -5.94,-3.398 -6.52,-52.539 -6.52,-170.254 0,-118.574 0.54,-160.351 6.48,-163.73 9.4,-5.196 51.8,-9.434 91.88,-9.434 33.28,0 54.61,10.254 66.52,21.309 16.21,14.512 31.56,43.515 39.22,76.816 l 11.11,-2.617 -12.79,-114.219" /><path
         id="path24"
         style="fill:#181210;fill-opacity:1;fill-rule:nonzero;stroke:none"
         d="m 3251.72,743.688 c -0.84,2.558 -3.39,1.679 -4.27,0 -27.29,-65.684 -47.76,-115.157 -63.09,-152.676 16.21,-0.879 40.06,-0.879 81.04,-0.879 17.89,0 33.22,0 45.19,0 -19.65,52.91 -44.37,118.574 -58.87,153.555 z m 38.42,-307.032 0.8,12.188 c 18.93,0 36.68,2.617 46.94,7.715 11.07,5.976 13.63,11.621 -13.64,94.316 -2.56,6.855 -5.13,14.531 -7.67,23.066 -13.64,0 -29.85,0 -51.17,0 -47.8,0 -73.36,0 -87.86,-1.679 -29.06,-71.66 -33.26,-87.559 -33.26,-100.371 0,-12.774 0.86,-17.891 39.22,-23.047 l 1.7,-12.188 -125.37,0 0.86,12.188 c 19.63,2.617 34.08,8.594 45.17,22.187 23.05,29.883 48.62,85 157.84,357.949 l 21.29,0.86 c 131.36,-351.406 133.08,-357.09 150.11,-368.184 9.38,-5.976 25.94,-12.812 45.22,-12.812 l 0.88,-12.188 -191.06,0" /><path
         id="path26"
         style="fill:#181210;fill-opacity:1;fill-rule:nonzero;stroke:none"
         d="m 1724.16,232.688 -0.23,-0.969 c -2.65,-10.266 -7.21,-17.871 -11.94,-22.571 -5.14,-4.871 -10.84,-6.726 -20.23,-6.746 -10.13,-0.019 -17.26,0.832 -19.21,2.032 -1.13,1.543 -1.8,16.242 -1.71,39.875 0,2.886 0.54,3.757 1.07,3.925 0.8,0.582 0.72,0.645 9.38,0.645 5.53,0 9.18,-0.734 12.08,-2.727 2.6,-2.148 4.76,-6.347 6.2,-11.55 l 0.17,-0.696 3.88,-0.312 1.08,-0.059 0,37.813 -4.23,-0.313 -0.8,-0.058 -0.13,-0.789 c -0.97,-5.469 -2.6,-9.094 -5.26,-11.29 -2.41,-2.187 -6,-3.156 -12.99,-3.156 -8.95,0.039 -8.09,0.176 -9.22,0.813 -0.89,0.613 -1.16,0.867 -1.23,3.75 0,10.672 0.13,19.824 0.45,26.367 0.17,3.301 0.39,5.945 0.67,7.793 0.13,0.906 0.3,1.64 0.45,2.098 0.11,0.449 0.17,0.332 0.11,0.449 2.13,1.062 5.62,1.816 15.82,1.797 8.34,0 14.4,-2.356 19.09,-6.297 4.47,-3.762 8.5,-9.367 10.39,-17.18 l 0.24,-0.945 4.15,0.945 0.83,0.195 -2.32,30.899 -89.51,0 0.33,-4.5 0.06,-0.93 0.95,0 c 4.99,0.02 10.3,-0.984 12.66,-2.285 0.02,0 0.02,0 0.11,-0.438 1.1,-3.527 1.35,-18.683 1.33,-47.89 0,-16.848 -0.07,-28.742 -0.34,-36.496 -0.13,-3.867 -0.32,-6.707 -0.59,-8.621 -0.12,-0.95 -0.27,-1.661 -0.4,-2.09 -0.11,-0.442 -0.17,-0.317 -0.11,-0.442 -2.38,-1.511 -7.67,-2.519 -12.66,-2.5 l -0.93,0 -0.32,-4.328 -0.09,-1.101 93.36,0 0.11,0.886 4.49,35.832 -4.04,0.926 -0.97,0.239" /><path
         id="path28"
         style="fill:#181210;fill-opacity:1;fill-rule:nonzero;stroke:none"
         d="m 1579.16,301.863 0.12,-0.886 0.87,0 c 10.82,-0.313 9.92,-2.743 10.21,-6.25 0.05,-4.063 -3.81,-15.606 -27.26,-72.063 -5.44,12.348 -14.97,36.289 -19.75,49.414 -5.58,15.422 -7.46,21.953 -7.44,24.621 0.11,1.516 0.25,1.438 1.11,1.992 2.76,1.375 6.22,2.286 11.95,2.286 l 0.95,0 0.3,4.355 0.07,1.066 -58.52,0 0.64,-4.535 0.13,-0.886 0.88,0 c 5.37,0 8.77,-1.797 11.39,-3.457 4.21,-2.52 10.93,-17.04 46.88,-104.5 l 0.27,-0.657 6.8,0.274 0.66,0.019 0.25,0.633 c 30.44,76.82 38.27,93.305 44.2,101.098 3.01,3.902 7.38,6.59 12.36,6.59 l 0.93,0 0.07,0.949 0.25,3.406 0.06,1.066 -39.04,0 0.66,-4.535" /><path
         id="path30"
         style="fill:#181210;fill-opacity:1;fill-rule:nonzero;stroke:none"
         d="m 1475.6,300.996 0.3,4.317 0.09,1.113 -58.94,0 0.3,-4.5 0.07,-0.93 0.97,0 c 5.17,0.02 12.03,-1.238 14.36,-2.527 0.02,0 0.02,0 0.11,-0.434 1.1,-3.472 1.33,-18.445 1.31,-47.652 0,-16.848 -0.07,-28.664 -0.33,-36.36 -0.12,-3.867 -0.31,-6.668 -0.58,-8.543 -0.13,-0.929 -0.27,-1.632 -0.4,-2.074 -0.11,-0.386 -0.17,-0.293 -0.11,-0.386 -2.33,-1.528 -9.19,-2.805 -14.36,-2.786 l -0.95,0 -0.33,-4.328 -0.08,-1.101 58.96,0 -0.33,4.48 -0.06,0.949 -0.95,0 c -5.18,-0.019 -12.04,1.258 -14.32,2.746 -0.06,0.04 -0.06,0.04 -0.17,0.426 -1.12,3.293 -1.57,17.563 -1.55,46.977 0,16.726 0.14,28.719 0.45,36.629 0.18,3.945 0.39,6.886 0.67,8.84 0.15,0.984 0.3,1.714 0.43,2.183 0.13,0.434 0.2,0.317 0.13,0.434 2.32,1.289 9.18,2.547 14.36,2.527 l 0.95,0" /><path
         id="path32"
         style="fill:#181210;fill-opacity:1;fill-rule:nonzero;stroke:none"
         d="m 1350.84,301.941 0.07,-0.945 0.95,0 c 5.16,0.02 10.98,-1.433 13.41,-2.781 1.1,-0.356 4.22,-5.727 4.09,-46.887 0,-6.301 -0.45,-16.301 -0.47,-22.707 -0.09,0.039 -0.17,0.102 -0.24,0.18 -11.68,13.308 -50.4,53.789 -69.13,76.512 -0.49,0.773 -1.31,1.289 -2.49,1.425 -0.31,0 -0.58,-0.117 -0.78,-0.215 l -32.23,0.411 0.33,-4.5 0.06,-0.942 0.95,0 c 6.1,0.024 11.73,-4.129 15.52,-9.058 3.87,-5.305 4.22,-17.161 4.17,-36.379 l 0,-6.407 c 0.11,-33.222 -1.74,-44.011 -6.32,-46.394 -2.45,-1.359 -7.74,-3.039 -12.88,-3.02 l -0.94,0 -0.33,-4.343 -0.08,-1.067 46.37,0 -0.66,4.539 -0.13,0.871 -0.86,0 c -4.88,-0.019 -10.19,1.661 -12.67,3.039 -0.96,-0.019 -3.09,11.446 -2.9,45.157 0,10.215 0.48,20.41 0.72,27.91 0.01,0 0.01,0 0.01,0 19.72,-24.024 60.91,-63.535 77.4,-84.055 l 0.33,-0.437 6.43,0.808 0.96,0.117 -0.08,0.95 c -1.2,14.48 -1.47,35.332 -1.47,57.605 -0.1,40.305 1.79,45.703 4.58,46.887 2.41,1.348 8.5,2.801 13.68,2.781 l 0.92,0 0.07,0.945 0.26,3.391 0.06,1.066 -47,0 0.32,-4.457" /><path
         id="path34"
         style="fill:#181210;fill-opacity:1;fill-rule:nonzero;stroke:none"
         d="m 1203.44,301.863 0.12,-0.867 0.89,0 c 4.41,0.039 11.76,-1.504 14.26,-3.43 2.32,-1.113 3.2,-28.289 3,-54.722 -0.1,-22.09 -8.7,-38.469 -29.45,-38.489 -22.08,0.176 -33.91,9.766 -34.08,35.586 0,23.399 0.06,38.02 0.36,46.875 0.16,8.836 1.21,11.914 1.36,11.914 2.25,1.258 8.62,2.305 13.85,2.266 l 0.92,0 0.32,4.317 0.07,1.085 -54.55,0 0.32,-4.472 0.07,-0.93 0.95,0 c 5.22,0 9.24,-0.969 11.69,-2.285 0,0 0.02,0.019 0.09,-0.344 1.03,-2.918 1.12,-16.98 1.09,-60.594 0.05,-29.082 17.93,-45.832 48.03,-45.871 l 0.32,0 c 33.38,0 46.88,20.461 46.99,48.774 0.04,36.414 0.94,55.664 3.69,56.875 2.39,1.512 8.71,3.484 13.81,3.445 l 0.94,0 0.07,0.93 0.26,3.387 0.06,1.085 -46.1,0 0.65,-4.535" /><path
         id="path36"
         style="fill:#181210;fill-opacity:1;fill-rule:nonzero;stroke:none"
         d="m 2271.08,306.426 0.3,-4.5 0.07,-0.93 0.94,0 c 9.85,0 11.66,-3.406 11.66,-4.082 0.06,-4.973 -1.47,-7.383 -24.33,-44.617 -20.48,32.937 -26.7,44.793 -26.52,46.07 -0.02,0.063 0,0.117 0.82,0.481 2.29,1.164 8.23,2.168 13.78,2.148 l 0.92,0 0.33,4.317 0.06,1.113 -57.71,-0.242 0.3,-4.493 0.07,-0.929 0.95,0 c 5.28,-0.02 8.18,-0.696 11.44,-2.528 3.79,-1.957 15.32,-19.347 32.28,-48.625 4.33,-7.714 4.45,-10.156 4.49,-15.957 0,-11.738 -0.18,-19.511 -0.55,-24.343 -0.17,-2.422 -0.41,-4.145 -0.67,-5.227 -0.19,-1.102 -0.45,-1.199 -0.41,-1.289 -2.32,-1.531 -9.45,-2.598 -14.66,-2.559 l -0.92,0 -0.33,-4.328 -0.08,-1.101 59.19,0 -0.33,4.48 -0.06,0.949 -0.94,0 c -5.21,-0.039 -12.35,1.028 -14.56,2.5 -0.09,0.059 -0.13,0.246 -0.13,0.246 -0.97,2.129 -1.63,11.875 -1.61,28.973 0.07,12.918 0.16,14.758 5.69,23.457 13.4,21.082 21.2,32.918 28.61,40.305 4.21,4.156 8.14,5.008 14.65,5.047 l 0.94,0 0.07,0.929 0.26,3.387 0.09,1.106 -44.1,0.242" /><path
         id="path38"
         style="fill:#181210;fill-opacity:1;fill-rule:nonzero;stroke:none"
         d="m 1803.12,249.668 c -1.83,-0.02 -7.16,0.332 -7.91,0.676 -1.08,0.308 -0.95,0.254 -1.08,1.707 -0.17,22.988 1.08,46.047 1.66,46.086 0.72,0.906 4.36,1.402 9.7,1.402 l 1.28,0 c 11.31,0 21.12,-9.59 21.16,-25.406 -0.15,-16.145 -7.65,-24.309 -24.81,-24.465 z m 71.14,-50.879 c -2.54,0 -4.17,0.457 -7.39,0.945 -12.09,1.489 -15.76,15.664 -19.48,23.672 -8.04,16.594 -16.42,20.813 -20.72,23.032 14.5,4.253 25.15,18.027 25.21,29.382 -0.04,15.965 -14.8,30.559 -40.96,30.606 l -57.38,0 0.32,-4.5 0.07,-0.93 0.95,0 c 5.21,0.02 10.79,-0.984 13.15,-2.285 0.02,0 0,0 0.11,-0.422 1.14,-3.367 1.59,-17.984 1.57,-47.203 0,-16.828 -0.13,-28.879 -0.48,-36.828 -0.14,-3.965 -0.39,-6.887 -0.66,-8.875 -0.13,-0.988 -0.28,-1.723 -0.43,-2.192 -0.11,-0.437 -0.18,-0.308 -0.14,-0.437 -2.33,-1.516 -7.91,-2.539 -13.12,-2.52 l -0.95,0 -0.3,-4.328 -0.09,-1.101 56.27,0 -0.33,4.504 -0.08,0.925 -0.93,0 c -4.97,-0.019 -10.27,1.004 -12.62,2.5 -0.14,0.059 -0.17,0.059 -0.17,0.34 -1.11,2.715 -1.57,15.168 -1.55,37.367 0.15,1.875 0.15,1.649 0.9,1.914 1.79,0.489 1.7,0.45 3.71,0.465 7.85,-0.132 9.59,0.024 15.24,-7.808 17.15,-25.571 9.65,-40.207 40.51,-41.645 2.27,-0.039 4.4,-0.094 6.49,-0.094 4.57,0 8.77,0.235 13.22,1.082 l 0.73,0.157 0.32,3.152 0.14,1.125 -1.13,0" /><path
         id="path40"
         style="fill:#181210;fill-opacity:1;fill-rule:nonzero;stroke:none"
         d="m 2177.6,301.902 c 0,1.719 0.02,3.157 0.04,4.203 l 0.02,0.809 -4.14,1.16 -0.54,0.16 -0.41,-0.375 c -3.59,-3.269 -9.55,-4.375 -48.31,-4.336 -33.09,-0.054 -44.35,1.321 -48.12,4.36 l -0.43,0.351 -3.94,-1.379 -0.66,-0.234 0,-0.73 c 0,-5.625 -3.42,-32.317 -3.42,-32.375 l -0.15,-1.2 5.12,0.332 0.71,0.04 0.19,0.671 c 5.12,16.438 14.51,23.457 28.77,23.516 l 8.8,0 c 0.93,-11.836 1.15,-25.234 1.15,-46.492 0,-16.848 -0.3,-28.703 -0.81,-36.457 -0.26,-3.867 -0.59,-6.731 -0.93,-8.621 -0.17,-0.95 -0.34,-1.645 -0.52,-2.09 -0.12,-0.481 -0.21,-0.356 -0.14,-0.481 -2.29,-1.472 -9.4,-2.539 -14.62,-2.5 l -0.93,0 -0.32,-4.328 -0.09,-1.101 58.71,0 -0.31,4.48 -0.09,0.949 -0.93,0 c -5.22,-0.019 -11.82,1.028 -14.08,2.5 -0.06,0 -0.06,0 -0.19,0.457 -1.22,3.332 -2.04,17.778 -2.02,47.192 0,21.18 0.24,35.957 1.15,46.492 4.64,0 4.58,0 10.99,0 12.99,-0.078 21.4,-6.727 25.59,-24.656 l 0.15,-0.715 0.76,-0.078 3.42,-0.235 1.09,-0.078 -0.02,1.106 c 0,0.015 -0.54,19.551 -0.54,29.683" /><path
         id="path42"
         style="fill:#181210;fill-opacity:1;fill-rule:nonzero;stroke:none"
         d="m 2044.54,200.234 -0.93,0 c -5.2,-0.019 -12.06,1.258 -14.34,2.746 -0.07,0.04 -0.07,0.04 -0.14,0.426 -1.15,3.293 -1.6,17.563 -1.58,46.977 0,16.726 0.13,28.719 0.45,36.629 0.18,3.945 0.41,6.886 0.67,8.84 0.14,0.984 0.3,1.714 0.46,2.183 0.09,0.434 0.16,0.317 0.09,0.434 2.33,1.289 9.19,2.547 14.39,2.527 l 0.93,0 0.32,4.317 0.07,1.113 -58.94,0 0.32,-4.5 0.07,-0.93 0.94,0 c 5.18,0.02 12.05,-1.238 14.38,-2.527 0,0 0,0 0.09,-0.434 1.11,-3.472 1.34,-18.445 1.34,-47.652 0,-16.848 -0.07,-28.664 -0.35,-36.36 -0.13,-3.867 -0.31,-6.668 -0.58,-8.543 -0.12,-0.929 -0.27,-1.632 -0.41,-2.074 -0.11,-0.386 -0.16,-0.293 -0.11,-0.386 -2.31,-1.528 -9.18,-2.805 -14.36,-2.786 l -0.94,0 -0.3,-4.328 -0.11,-1.101 58.98,0 -0.36,4.48 -0.05,0.949" /><path
         id="path44"
         style="fill:#181210;fill-opacity:1;fill-rule:nonzero;stroke:none"
         d="m 1908.41,285.273 c 0.09,10.04 5.55,16.114 15.8,16.219 9.94,0 18.59,-6.804 25.38,-23.855 0.41,-0.684 0.99,-0.852 1.37,-0.852 1.42,0.129 2.49,1.137 2.61,1.137 l 0.45,0.332 -1.55,25.66 -0.58,0.234 c -6.94,2.961 -14.19,4.446 -25,4.446 -21.14,-0.02 -38.75,-14.383 -38.77,-33.028 0.56,-35.586 52.84,-30.418 52.14,-58.64 -0.07,-11.192 -7.06,-18.586 -17.74,-18.625 -15.76,0 -29.05,12.129 -34.36,33.164 l -0.24,0.937 -3.37,-0.664 -0.86,-0.175 1.52,-31.211 0.48,-0.293 c 9.93,-5.918 21.54,-8.645 32.92,-8.645 27.97,0.039 42.4,18.09 42.44,33.266 -0.45,38.855 -53.44,35.625 -52.64,60.593" /><path
         id="path46"
         style="fill:#181210;fill-opacity:1;fill-rule:nonzero;stroke:none"
         d="m 2563.64,200.234 -0.88,0 c -5.2,-0.019 -12.05,1.028 -14.3,2.5 -0.27,0.039 -1.21,2.43 -1.58,9.668 -0.51,7.227 -1.02,19.102 -1.88,37.996 -0.68,14.106 -1.4,24.18 -1.4,31.45 0.02,9.05 1.17,13.445 4.71,16.211 1.36,1.218 5.89,2.957 12.26,2.937 l 0.96,0 0.29,4.317 0.08,1.113 -40.8,0 c -0.9,0.078 -2.13,-0.559 -2.42,-1.66 -10.92,-30.008 -16.27,-45.45 -32.29,-80.235 -14.1,34.59 -22.13,54.153 -31.83,80.254 -0.82,1.145 -1.68,1.778 -2.64,1.641 l -42.77,0 0.35,-4.485 0.04,-0.945 0.97,0 c 6.37,-0.019 10.26,-1.641 13.01,-3.672 3.22,-2.129 5.1,-9.148 5.04,-25.859 0,-5.801 -0.2,-12.742 -0.55,-21.067 -1.5,-32.605 -3.14,-46.472 -6.31,-47.625 -2.38,-1.32 -8.2,-2.558 -13.39,-2.539 l -0.94,0 -0.33,-4.328 -0.08,-1.082 43.61,0 -0.33,4.485 -0.06,0.925 -0.96,0 c -5.21,-0.019 -10,0.989 -12.36,2.5 -0.45,0.039 -1.58,4.856 -1.39,16.004 0,7.453 0.24,17.778 0.65,31.606 0.21,14.472 0.47,24.734 1.62,34.656 11.54,-25.918 23.61,-55.02 38.34,-91.238 l 0.29,-0.703 4.65,0.562 0.57,0.063 0.23,0.515 c 20.86,47.102 27.01,65.84 38.6,92.52 0.17,0 0.17,0 0.17,0.019 0.49,-12.429 0.72,-15.547 1.23,-34.707 0.33,-13.965 0.59,-23.926 0.59,-31.008 -0.02,-15.164 -1.1,-16.941 -3.5,-18.269 -2.21,-1.316 -6.74,-2.52 -11.93,-2.52 l -0.94,0 -0.31,-4.328 -0.08,-1.082 58.77,0 -0.65,4.539 -0.13,0.871" /><path
         id="path48"
         style="fill:#181210;fill-opacity:1;fill-rule:nonzero;stroke:none"
         d="m 2901.16,301.926 0.06,-0.93 0.97,0 c 9.85,0 11.64,-3.406 11.66,-4.082 0.06,-4.973 -1.46,-7.383 -24.33,-44.617 -20.49,32.937 -26.7,44.793 -26.53,46.07 0,0.063 0,0.117 0.8,0.481 2.31,1.164 8.27,2.168 13.79,2.148 l 0.94,0 0.31,4.317 0.06,1.113 -57.71,-0.266 0.31,-4.469 0.06,-0.929 0.97,0 c 5.28,-0.02 8.17,-0.696 11.43,-2.528 3.81,-1.957 15.33,-19.347 32.29,-48.625 4.31,-7.714 4.47,-10.156 4.49,-15.957 0,-11.738 -0.2,-19.511 -0.57,-24.343 -0.17,-2.422 -0.39,-4.145 -0.64,-5.227 -0.22,-1.102 -0.47,-1.199 -0.43,-1.289 -2.33,-1.531 -9.46,-2.598 -14.65,-2.559 l -0.94,0 -0.31,-4.328 -0.1,-1.101 59.2,0 -0.31,4.48 -0.08,0.949 -0.94,0 c -5.21,-0.039 -12.36,1.028 -14.57,2.5 -0.1,0.059 -0.14,0.246 -0.14,0.246 -0.95,2.129 -1.6,11.875 -1.58,28.973 0.04,12.918 0.16,14.758 5.71,23.457 13.37,21.082 21.17,32.918 28.61,40.305 4.16,4.156 8.1,5.008 14.61,5.047 l 0.96,0 0.05,0.929 0.26,3.387 0.08,1.106 -44.09,0.242 0.3,-4.5" /><path
         id="path50"
         style="fill:#181210;fill-opacity:1;fill-rule:nonzero;stroke:none"
         d="m 3051.29,231.199 -0.23,-0.965 c -2.15,-9.289 -6.29,-17.929 -10.66,-21.777 -3.25,-2.996 -9.09,-6.289 -18.32,-6.289 -11.37,0 -18.42,1.262 -20.73,2.559 -0.06,-0.039 -0.35,0.515 -0.58,2.214 -0.9,5.129 -1.35,18.188 -1.33,43.442 0,16.726 0.19,28.582 0.58,36.375 0.2,3.887 0.45,6.738 0.75,8.652 0.15,0.969 0.31,1.68 0.47,2.141 0.11,0.429 0.17,0.332 0.13,0.429 2.48,1.336 7.78,3.016 12.68,3.016 l 0.92,0 0.31,4.317 0.08,1.113 -56.27,0 0.31,-4.5 0.08,-0.93 0.94,0 c 5.13,0.02 10.97,-1.68 13.39,-3.016 0.02,0 0.02,0 0.1,-0.414 1.11,-3.375 1.37,-17.976 1.35,-47.183 0,-16.848 -0.08,-28.742 -0.35,-36.496 -0.12,-3.867 -0.32,-6.707 -0.57,-8.621 -0.14,-0.95 -0.29,-1.661 -0.43,-2.09 -0.1,-0.442 -0.16,-0.317 -0.1,-0.442 -2.36,-1.281 -8.18,-2.519 -13.39,-2.5 l -0.94,0 -0.31,-4.328 -0.08,-1.101 93.86,0 0.08,0.91 3.77,34.383 -4.55,0.91 -0.96,0.191" /><path
         id="path52"
         style="fill:#181210;fill-opacity:1;fill-rule:nonzero;stroke:none"
         d="m 3284.2,301.941 0.06,-0.945 0.96,0 c 5.18,0.02 10.98,-1.433 13.4,-2.781 1.13,-0.356 4.22,-5.727 4.12,-46.887 0,-6.301 -0.47,-16.301 -0.51,-22.683 -0.08,0.039 -0.15,0.078 -0.21,0.156 -11.68,13.308 -50.41,53.789 -69.14,76.512 -0.49,0.773 -1.31,1.289 -2.5,1.425 -0.32,0 -0.57,-0.117 -0.77,-0.234 l -32.22,0.391 0.31,-4.461 0.06,-0.942 0.98,0 c 6.09,0.024 11.71,-4.129 15.5,-9.058 3.83,-5.305 4.2,-17.063 4.16,-36.157 l 0,-6.629 c 0.12,-33.222 -1.73,-44.011 -6.29,-46.394 -2.48,-1.359 -7.77,-3.039 -12.91,-3.02 l -0.93,0 -0.32,-4.343 -0.07,-1.067 46.34,0 -0.64,4.539 -0.14,0.871 -0.84,0 c -4.9,-0.019 -10.21,1.661 -12.69,3.039 -0.96,-0.019 -3.09,11.446 -2.87,45.157 0,10.191 0.45,20.386 0.7,27.871 19.75,-23.985 60.92,-63.496 77.4,-84.016 l 0.33,-0.437 6.43,0.808 0.96,0.098 -0.06,0.969 c -1.23,14.5 -1.47,35.332 -1.47,57.605 -0.11,40.305 1.76,45.703 4.59,46.887 2.39,1.348 8.46,2.801 13.66,2.781 l 0.91,0 0.08,0.945 0.24,3.391 0.07,1.066 -47.01,0 0.33,-4.457" /><path
         id="path54"
         style="fill:#181210;fill-opacity:1;fill-rule:nonzero;stroke:none"
         d="m 3414.61,202.168 c -14.18,0 -18.45,0.754 -21.99,3.887 -2.46,1.496 -3.01,21.953 -2.85,45.05 -0.16,33.243 0.88,45.516 1.86,45.77 2.24,1.895 7.46,2.941 15.41,2.922 25.37,-0.102 42.24,-15.371 42.36,-48.449 -0.12,-34.903 -15.18,-49.102 -34.79,-49.18 z m -2.93,104.492 -62.01,0 0.32,-4.48 0.05,-0.95 0.96,0 c 5.24,0.02 10.55,-0.988 12.93,-2.285 0,0.02 0,0.02 0.1,-0.41 1.09,-3.437 1.35,-18.23 1.33,-47.43 0,-16.867 -0.08,-28.898 -0.36,-36.847 -0.11,-3.965 -0.33,-6.903 -0.58,-8.86 -0.12,-1.003 -0.27,-1.753 -0.39,-2.207 -0.12,-0.457 -0.18,-0.308 -0.12,-0.457 -2.38,-1.511 -7.67,-2.519 -12.91,-2.5 l -0.94,0 -0.31,-4.328 -0.1,-1.101 63.27,0 c 33.55,0.078 62.38,22.91 62.38,55.578 -0.06,32.281 -23.75,56.219 -63.62,56.277" /><path
         id="path56"
         style="fill:#181210;fill-opacity:1;fill-rule:nonzero;stroke:none"
         d="m 3121,239.246 c -9.04,0 -15.08,0 -19.73,0.207 4.07,9.719 9.44,22.942 16.31,39.395 4.44,-10.75 10.63,-26.258 15.8,-39.602 l -12.38,0 z m 22.44,-36.941 c -2.58,-1.321 -8.69,-2.09 -14.16,-2.071 l -0.94,0 -0.31,-4.328 -0.1,-1.101 58.97,0 -0.31,4.48 -0.1,0.949 -0.92,0 c -5.12,0 -9.08,1.856 -11.66,3.489 -4.2,2.488 -8.2,12.644 -44.41,104.715 l -0.28,0.664 -6.79,-0.274 -0.67,0 -0.23,-0.637 c -31.19,-77.554 -38.54,-93.082 -44.94,-101.304 -3.17,-3.828 -5.98,-6.633 -11.14,-6.653 l -0.95,0 -0.3,-4.328 -0.11,-1.101 37.11,0 -0.65,4.558 -0.15,0.871 -0.84,0 c -10.79,0.332 -9.67,2.707 -9.97,6.25 -0.01,2.746 1.37,7.325 8.72,25.508 4.59,0.391 11.73,0.391 22.69,0.391 l 14.81,0 c 0.5,-1.731 1.15,-3.445 1.79,-4.949 4.89,-14.836 6.68,-21.106 6.64,-23.547 -0.07,-1.309 -0.15,-1.172 -0.8,-1.582" /><path
         id="path58"
         style="fill:#181210;fill-opacity:1;fill-rule:nonzero;stroke:none"
         d="m 2758.19,249.668 c -1.8,-0.02 -7.15,0.332 -7.91,0.676 -1.06,0.308 -0.92,0.254 -1.06,1.707 -0.17,22.988 1.08,46.047 1.64,46.086 0.75,0.926 4.34,1.402 9.67,1.426 0.43,0 0.86,-0.024 1.31,-0.024 11.35,0 21.13,-9.59 21.17,-25.406 -0.15,-16.145 -7.63,-24.309 -24.82,-24.465 z m 71.15,-50.879 c -2.52,0 -4.18,0.457 -7.4,0.945 -12.07,1.489 -15.76,15.664 -19.45,23.672 -8.07,16.594 -16.45,20.832 -20.73,23.047 14.48,4.262 25.14,18.012 25.22,29.367 -0.04,15.965 -14.81,30.559 -40.98,30.606 l -57.38,0 0.31,-4.5 0.08,-0.93 0.94,0 c 5.23,0.02 10.82,-0.984 13.18,-2.285 0,0 0,0 0.08,-0.422 1.13,-3.367 1.6,-17.984 1.58,-47.203 0,-16.828 -0.14,-28.879 -0.47,-36.828 -0.15,-3.965 -0.37,-6.887 -0.66,-8.875 -0.16,-0.988 -0.3,-1.723 -0.45,-2.192 -0.1,-0.437 -0.18,-0.308 -0.1,-0.437 -2.38,-1.516 -7.93,-2.539 -13.16,-2.52 l -0.94,0 -0.31,-4.328 -0.08,-1.101 56.25,0 -0.31,4.504 -0.06,0.925 -0.94,0 c -4.98,-0.019 -10.29,1.004 -12.62,2.5 -0.17,0.059 -0.19,0.059 -0.19,0.34 -1.1,2.715 -1.57,15.168 -1.53,37.367 0.14,1.875 0.14,1.649 0.88,1.914 1.8,0.489 1.72,0.45 3.71,0.465 7.87,-0.132 9.61,0.024 15.26,-7.808 17.17,-25.571 9.65,-40.207 40.49,-41.645 2.28,-0.039 4.41,-0.094 6.48,-0.094 4.57,0 8.81,0.235 13.26,1.082 l 0.72,0.157 0.34,3.152 0.09,1.125 -1.11,0" /><path
         id="path60"
         style="fill:#181210;fill-opacity:1;fill-rule:nonzero;stroke:none"
         d="m 2630.77,239.246 c -9.03,0 -15.08,0 -19.73,0.207 4.04,9.719 9.39,22.902 16.31,39.375 4.45,-10.754 10.64,-26.238 15.82,-39.582 l -12.4,0 z m 22.44,-36.941 c -2.58,-1.321 -8.67,-2.09 -14.14,-2.071 l -0.96,0 -0.33,-4.328 -0.08,-1.101 58.97,0 -0.34,4.48 -0.06,0.949 -0.95,0 c -5.1,0 -9.07,1.856 -11.62,3.489 -4.24,2.488 -8.25,12.644 -44.44,104.715 l -0.27,0.644 -6.78,-0.254 -0.68,0 -0.26,-0.637 c -31.15,-77.554 -38.51,-93.082 -44.92,-101.304 -3.16,-3.828 -5.97,-6.633 -11.13,-6.653 l -0.94,0 -0.33,-4.328 -0.1,-1.101 37.13,0 -0.66,4.558 -0.14,0.871 -0.86,0 c -10.78,0.332 -9.65,2.707 -9.96,6.25 -0.04,2.762 1.37,7.325 8.71,25.489 4.57,0.41 11.72,0.41 22.7,0.41 l 14.78,0 c 0.51,-1.731 1.17,-3.445 1.84,-4.949 4.84,-14.856 6.66,-21.125 6.62,-23.567 -0.1,-1.289 -0.18,-1.152 -0.8,-1.562" /><path
         id="path62"
         style="fill:#181210;fill-opacity:1;fill-rule:nonzero;stroke:none"
         d="m 0,948.84 c 0,0 0.0195313,-522.223 0.0195313,-675.735 C 0.0195313,43.5742 308.508,81.2109 389.695,0 c 81.184,81.1914 389.68,43.5938 389.68,273.105 0,153.512 0.02,675.735 0.02,675.735 L 0,948.84" /><path
         id="path64"
         style="fill:#b20d35;fill-opacity:1;fill-rule:nonzero;stroke:none"
         d="m 729.492,398.613 c -1.648,0 -3.269,0.117 -4.875,0.352 -2.078,-18.887 -18.062,-33.594 -37.515,-33.594 -19.817,0 -36.086,15.332 -37.622,34.766 l -223.765,0 0,-260.84 c 19.629,-1.387 35.125,-17.774 35.125,-37.695 0,-19.4536 -14.746,-35.4692 -33.613,-37.559 0.214,-1.5821 0.324,-3.1836 0.324,-4.8047 -0.012,-3.6719 -0.703,-7.0977 -1.692,-10.3985 115.829,48.7188 331.004,40.7305 331.004,224.5192 0,74.004 0,114.864 0.012,137.149 -6.895,-7.285 -16.582,-11.895 -27.383,-11.895" /><path
         id="path66"
         style="fill:#f2f2f2;fill-opacity:1;fill-rule:nonzero;stroke:none"
         d="m 415.352,811.047 c 7.453,-6.91 12.199,-16.695 12.199,-27.617 0,-1.621 -0.11,-3.242 -0.324,-4.844 18.867,-2.109 33.613,-18.09 33.613,-37.563 0,-19.8 -15.266,-36.074 -35.125,-37.644 l 0,-230.164 223.805,0 c 1.718,19.234 17.89,34.394 37.582,34.414 19.453,-0.02 35.527,-14.77 37.539,-33.731 1.597,0.211 3.211,0.332 4.851,0.332 10.789,-0.011 20.481,-4.617 27.371,-11.89 0.012,163.066 0.024,348.707 0.024,348.707 l -341.535,0 z M 352.258,64.0234 c -18.945,2.0704 -33.684,18.125 -33.703,37.5786 0.019,19.668 15.066,35.781 34.265,37.578 l 0,260.957 -222.5,0 c -1.582,-19.453 -17.886,-34.746 -37.7145,-34.766 -19.4492,0 -35.4883,14.766 -37.5469,33.692 -1.582,-0.235 -3.1836,-0.352 -4.8164,-0.352 -10.9961,0 -20.8086,4.797 -27.7109,12.312 0,-54.226 0,-103.082 0,-137.664 0,-183.8668 215.3127,-175.8004 331.1137,-224.5973 -1,3.3164 -1.711,6.7852 -1.719,10.4766 0,1.6211 0.117,3.2031 0.332,4.7851" /><path
         id="path68"
         style="fill:#156150;fill-opacity:1;fill-rule:nonzero;stroke:none"
         d="m 633.137,523.789 c 3.687,-0.039 -2.16,2.774 -1.621,3.098 1.226,0.801 4.695,0.183 5.117,1.402 0.262,0.969 2.762,2.07 1.035,2.309 -1.152,0.136 -3.305,0.554 -5.078,1.132 -1.848,0.516 -4.25,3.653 -2.445,3.504 2.062,-0.175 -9.618,10.813 3.832,1.082 2.168,-1.55 2.195,2.543 4.761,-2.703 0.305,-0.652 4.7,-2.812 5.246,-3.152 2.664,-1.945 -0.437,-5.109 3.899,-7.453 1.773,-0.996 0.086,5.539 1.773,4.805 1.074,-0.497 10.766,-1.622 11.992,-1.692 7.305,3.781 -5.418,4.152 -6.152,5.207 -6.609,1.746 -12.383,4.942 -11.375,7.129 3.301,7.371 4.695,-1.641 6.836,-2.078 4.766,-0.883 13.84,-4.152 15.227,-2.309 1.121,1.489 2.3,3.496 -3.379,2.493 -0.383,-0.071 -1.157,-0.071 -1.528,0.167 -2.515,1.317 -3.906,3.739 -4.922,6.004 -0.242,0.547 0.333,2.039 1.458,2.375 2.761,0.797 4.191,-1.933 6.457,-2.699 3.496,-1.199 2.527,0.824 6.257,0.305 2.2,-0.305 2.2,1.848 4.27,0.613 3.848,-2.262 7.93,-0.762 11.758,0.793 0.457,0.215 -0.813,1.328 -0.293,1.863 1.785,1.731 4.136,0.754 6.289,0.957 -0.461,2.883 -3.996,1.704 -5.996,2.356 -1.848,0.598 -3.989,0.027 -5.918,0.027 -5.84,0.039 -0.168,-2.984 -12.453,0.239 1.914,-0.52 25.046,14.214 4.875,6.746 -1.028,-0.371 -4.836,0.593 -5.981,0.324 -6.015,-1.574 -7.273,0 -11.949,-1.352 -2.324,-0.625 -6.508,-0.222 -8.242,2.016 -0.571,0.84 1.316,0.84 3.804,1.98 2.5,1.164 6.914,-1.023 6.743,1.563 -0.481,5.332 -5.121,0.637 -8.301,1.601 -1.02,0.34 -0.051,1.106 -2.395,1.106 -1.843,0 -2.754,1.308 -1.843,2.793 1.074,1.773 3.464,3.816 4.761,2.168 2.922,-3.664 8.313,-3.735 8.071,-2.192 -0.227,1.426 -5.188,3.418 -3.762,2.668 0.769,-0.398 2.851,1.829 3.601,1.172 1.622,-1.457 4.082,-4.179 6.157,-4.863 1.843,-0.547 3.465,1.199 5.144,0.684 2.012,-0.618 5.469,0.109 7.473,0.617 5.68,1.492 7.598,2.312 5.84,3.301 -1.543,0.828 -6.836,0.132 -6.379,0.015 0.488,-0.113 -4.082,1.32 -2.625,2.094 1.969,1.031 4.219,1.18 5.703,1.504 0.613,0.144 4.305,4.07 3.875,3.914 -10.613,-3.281 -25.149,-0.918 -26.941,-0.106 -2.161,1.012 -7.297,1.153 -9.536,2.723 -4.004,2.461 6.758,0.664 8.618,0.266 1.46,-0.332 -1.477,3.648 0.3,3.965 1.758,0.3 3.692,-3.125 5.059,-3.586 1.687,-0.567 3.074,1.621 4.851,0.546 2.168,-1.308 4.153,3.34 6.387,2.801 l 0.996,0.473 5.996,1.797 c 4.028,1.387 4.614,6.726 3.34,5.933 -6.875,-4.148 -8.765,-3.386 -12.793,-2.593 -1.531,0.308 0.774,1.226 2.91,2.547 1.582,0.957 -1.414,2.148 -0.964,2.609 3.664,3.418 0.937,2.383 -1.036,2.422 -2.175,-2.766 -2.441,-1.828 -2.441,-1.828 l -6.855,-0.594 c -1.622,-0.637 -5.606,-2.531 -7.227,-2.363 -9.98,1.226 -7.227,0.054 -12.637,1.863 -0.578,0.187 -1.804,2.883 -1.562,3.074 1.433,1.477 6.062,1.984 9.433,2.27 5.086,0.457 12.078,-0.411 14.317,1.492 1.457,1.23 0.91,2.617 -1.551,3.23 -2.688,0.715 -5.922,-0.418 -7.719,0.637 -2.742,1.602 3.254,3.398 5.293,3.789 3.813,0.723 9.699,-4.07 11.582,0.899 0.18,0.554 -2.09,1.054 -2.09,2.011 0,0.965 1.782,1.223 2.317,2.18 0.527,0.984 -0.227,1.941 -1.231,1.949 -6.242,0.141 -12.136,-2.32 -18.066,-4.129 -5.078,-1.551 -5.645,2.383 -10.852,0.617 -1.98,-0.695 -1.297,-3.105 -1.843,-4.836 -0.098,-0.39 -1.844,-1.66 -2.051,-1.66 -4.695,0.176 1.23,4.2 -3.235,5.02 -3.535,0.637 -5.703,-3.274 -7.73,0 -2.277,0.754 -1.496,3.32 5.809,2.976 4.101,-0.203 8.144,1.497 12.414,2.278 2.175,0.371 4.57,-0.547 6.714,0.066 0.317,0.078 1.348,0 1.235,0.649 0,0.254 -0.547,0.464 -0.305,0.855 0.457,0.727 5.449,1.731 10.281,2.609 5.559,0.965 9.036,4.266 9.094,5.34 0.195,4.016 -7.707,-3.379 -10.527,-2.578 -3.82,1.106 -8.543,0.703 -11.16,0.703 -3.157,0 -7.461,-1.265 -10.215,-0.457 -3.43,0.989 -4.223,-1.316 -7.844,-0.683 -0.769,0.117 -1.101,1.308 -1.543,1.406 -6.523,1.437 -5.976,4.394 -2.449,4.309 l 3.379,-0.786 c 8.367,-0.984 4.605,2.278 6.082,2.121 1.687,-0.125 13.254,-2.07 14.394,0 1.121,1.844 -18.086,2.872 -18.242,4.688 -0.09,0.891 6.25,-0.09 7.129,0.039 0.742,0.156 -0.996,2.316 1.316,4.043 l 5.649,-0.254 c -3.691,-3.359 -1.723,-2.883 1.844,-2.937 1.035,-0.063 1.738,0.222 2.429,0.515 l 2.883,0.215 c 2.988,0.422 6.641,-1.152 9.403,0.422 1.652,0.945 -7.208,1.121 -6.297,2.359 1.496,2.082 5.379,0.825 6.765,3.821 -6.304,-0.047 0.168,3.691 -9.297,-1.493 l -0.546,1.422 c 2.921,2.942 5.468,4.348 5.277,3.625 1.336,6.524 -7.043,-4.023 -14.27,-1.738 -2.605,0.82 6.77,4.27 4.114,4.531 -1.954,0.266 -5.325,-0.332 -9.036,-3.496 l -0.593,0 c -3.977,-0.793 -4.016,1.653 -5,1.719 0,0 -1.387,3.164 0.691,3.43 1.984,0.261 3.984,1.726 5.676,2.578 3.387,1.609 -1.367,2.136 1.805,3.914 2.656,1.433 3.117,1.965 5.769,3.39 2.57,1.375 6.418,4.793 4.797,5.758 -3.457,2.114 -3.828,-3.972 -7.227,-3.301 -2.421,0.493 -9.675,-4.082 -12.988,-5.308 -1.824,-0.688 -5.906,2.156 -2.527,2.637 0.703,0.086 6.765,3.816 6.453,3.359 1.316,2.266 2.734,4.617 -1.926,3.047 -2.223,-0.781 -5.984,-3.098 -7.832,-4.367 -0.777,-0.489 -1.355,1.054 -2.234,0.058 -1.367,-1.562 0.656,-3.242 -1.367,-2.773 -2.098,0.5 -0.165,2.715 -1.399,4.211 l -0.73,0.437 c -1.883,1.985 -1.621,2.078 -3.118,4.082 -0.808,1.106 1.094,3.262 2.551,3.078 4.219,-0.683 7.598,-1.488 11.406,0.106 0.586,0.234 2.305,1.211 2.305,1.687 1.145,3.039 -2.305,1.313 -3.23,0.735 -0.11,-0.071 -1.887,0.597 -1.606,0.937 1.848,2.559 4.875,2.317 7.492,1.387 3.079,-1.094 7.254,-3.801 9.981,-0.938 -2.141,2.696 -6.184,1.125 -6.68,4.129 -0.222,1.477 1.184,-0.867 0.039,1.633 -2.566,-0.039 -2.07,-0.43 -4.504,-0.461 -2.136,-0.047 -4.214,0.149 -6.375,-0.535 -1.535,-0.469 -10.144,1.035 -11.601,0.488 -1.492,-0.617 0.461,0.618 -0.852,1.477 -3.386,2.144 -3.914,-1.574 -5.371,1.949 -0.23,0.586 0.805,3.117 1.613,2.895 0.528,-0.129 1.075,-0.149 1.731,-0.129 l 0.641,-0.215 2.46,0.168 c 2.004,0.281 0.461,1.316 2.551,1.824 2.879,0.684 8.367,-3.73 10.723,-0.652 0.793,1.023 0,0.945 -2.879,2.371 -1.848,0.89 -0.395,3.254 4.898,1.164 1.321,-0.551 3.047,-0.793 3.852,-0.395 4.922,2.485 3.238,4.172 -3.527,3.508 -0.286,-0.039 -4.192,1.297 -4.539,2.188 -0.547,1.34 2.656,2.566 2.695,2.629 0.293,0.449 1.324,0.718 2.527,1.035 1.543,0.398 4.461,1.015 6.614,2.039 1.542,0.73 3.496,2.539 3.367,3.789 0,0.937 -3.145,-0.574 -5.45,-1.25 l -3.652,0.098 c -7.844,-1.543 -4.64,1.671 -10.832,-1.075 -5.574,-1.953 -5.641,-4.179 -6.348,-3.769 l -1.074,-0.664 c -0.535,-0.364 -4.336,-1.321 -4.922,-1.629 l -3.789,-0.528 c -3.504,-0.832 -2.195,5.008 -2.129,5.282 0.161,0.5 2.317,1.457 4.661,2.48 3.105,1.375 6.726,2.879 6.445,3.516 -0.188,0.461 1.394,0.476 3.508,1.476 1.472,0.645 2.996,1.129 4.226,1.746 1.043,0.528 5.418,3.118 5.684,3.477 5.539,6.563 -6.262,-1.824 -7.688,-0.969 -2.136,1.34 -2.039,4.282 -7.761,-0.925 0.312,0.183 -0.079,-0.989 -1.141,-1.211 -2.324,-0.489 -6.738,-1.055 -7.23,1.894 -0.157,0.613 0.617,0.684 0.375,1.27 4.683,1.867 10.308,6.882 14.917,9.011 0.618,0.266 6.997,4.133 6.614,4.172 -5.449,0.735 -9.422,-3.015 -11.692,-1.172 -0.918,0.782 1.703,1.289 2.09,2.578 1.692,5.129 8.442,4.676 6.875,7.383 -3.133,-0.293 -8.262,-3.144 -10.808,-3.027 -1.075,0.078 3.425,5.637 -0.528,4.844 -0.168,-0.02 -4.343,-7.586 -4.629,-7.84 -2.304,-1.875 -3.984,-3.957 -7.519,-3.379 0,0 -0.547,1.98 3.301,4.742 3.847,2.793 1.035,3.637 -0.84,3.012 -1.934,-0.637 -5.078,-6.406 -6.614,-5.024 0,0 -2.761,3.743 0.422,7.305 0.235,0.188 3.496,3.695 5.071,3.586 0.117,1.633 4.199,1.824 4.617,1.965 2.656,0.894 6.113,2.391 5.996,4.59 -0.039,0.386 1.34,1.004 -3.34,-0.774 -4.277,-1.609 0.84,2.637 -6.855,-0.832 -2.723,-1.179 -1.692,0.688 -0.989,3.071 1.274,2.742 1.274,4.461 -2.683,-0.43 0.066,0.113 -1.817,-1.359 -3.242,-1.582 -0.618,-0.102 -2.618,2.144 -3.692,1.851 -1.805,-0.457 -4.219,0.688 -4.305,2.09 -0.07,1.594 2.165,1.145 3.536,2.485 0.23,0.214 3.582,1.648 4.011,1.843 1.368,0.618 -3.664,0.782 -2.785,1.829 2.696,3.191 3.164,2.339 4.238,2.859 0.84,0.391 3.887,1.074 3.379,2.043 -0.781,1.492 -4.921,-1.43 -4.148,1.015 0.383,1.407 1.316,2.918 2.07,4.547 -3.301,0 -3.918,-2.031 -6.836,-3.875 -2.461,-1.66 -2.59,-2.695 -5.144,-2.961 -1.113,-0.117 -2.082,2.192 -2.696,3.555 -0.617,1.43 3.536,3.254 4.54,4.387 0.683,0.781 0.683,2.93 -1.817,1.894 -1.875,-0.586 -3.652,-1.941 -5.535,-1.992 -0.488,0 -1.191,0.781 -0.813,1.531 0.325,0.532 3.008,2.883 3.118,3.481 0.664,6.551 -3.496,1.473 -3.957,1.668 -1.368,0.613 -0.528,2.969 -1.758,5.762 -0.93,3.82 0.652,3.425 -0.93,3.769 -1.055,0.242 -1.14,-0.105 -1.758,-0.996 -1.465,-1.746 -1.043,-4.148 0.532,-5.547 1.89,-3.008 0.171,-5.762 0.171,-7.137 0,-3.566 -4.785,4.286 -5.398,1.622 -0.227,-0.93 3.074,-4.747 2.09,-8 -0.402,-1.336 -3.059,-0.879 -4.942,0.253 -1.101,0.672 -3.632,3.457 -4.218,2.942 -1.067,-1.02 1.394,-3.059 2.148,-4.074 1.192,-1.493 3.621,-3.02 4.238,-4.649 0.528,-1.172 0.313,-2.422 -0.742,-2.773 -1.191,-0.352 -4.863,4.304 -6.328,2.304 0,0 -1.562,0.079 1.231,-2.918 2.695,-2.929 5.683,-5.48 2.832,-6.269 -0.723,-0.18 -1.231,0.789 -1.602,1.148 -0.996,1.25 -3.547,0.246 -5.117,0.891 -1.856,0.773 -2.902,3.059 -4.844,3.965 -0.476,0.234 -1.316,0.265 -1.621,-0.02 -0.242,-0.273 0.813,-1.523 1.055,-1.98 0.683,-1.352 1.191,-1.25 2.238,-2.27 1.102,-1.074 -1.273,-1.383 -0.605,-2.34 0.542,-0.902 3.445,-1.144 3.992,-2.035 2.812,-4.734 3.449,-6.226 3.293,-8.386 0,-0.618 -3.293,0.078 -3.977,0.617 -1.824,1.441 -3.574,3.23 -5.398,4.82 -1.34,1.137 -2.668,2.16 -4.153,2.91 -1.406,0.703 -2.91,1.145 -4.597,1.074 3.367,-4.714 6.55,-5.769 4.246,-8.335 -0.469,-0.469 2.89,-1.348 2.629,-2.512 -0.266,-1.172 -2.434,-3.192 -3.032,-3.848 -3.035,-1.953 -2.507,-3.586 -1.648,-3.039 1.648,1.02 4.836,1.477 6.437,2.297 0,0 1.766,-2.527 -0.082,-4.016 -0.964,-0.781 -2.175,-1.746 -3.511,-2.144 -2.969,-1.008 -5.395,1.844 -8.469,1.98 0.332,-0.793 1.719,-1.035 1.211,-2.09 -0.789,-1.511 -6.594,-0.246 -7.559,-1.375 -0.261,-0.285 1.758,-2.421 2.071,-2.445 1.425,-0.191 5,1.848 6.406,1.543 1.367,-0.34 -4.207,-3.965 -3.684,-4.383 4.7,-3.457 9.922,0.735 10.727,-1.14 0.515,-1.203 5.293,-1.821 5.008,-2.832 -0.578,-2.286 2.019,0.175 1.445,-1.743 -0.637,-1.968 -9.453,-3.203 -10.859,-2.808 -4.832,1.355 -8.985,3.758 -13.45,6.414 -1.199,0.703 -3.25,0.449 -4.031,-1.145 -0.265,-0.457 -0.273,-1.179 0,-1.582 2.258,-3.164 6.492,-2.965 8.789,-6.121 0.43,-0.554 -0.488,-1.035 -0.801,-1.054 -4.699,-0.442 -9.355,-0.293 -14.05,0.293 0.254,-2.032 3.484,-1.766 3.093,-3.348 -0.554,-2.336 -4.074,-1.25 -5.656,-3.078 4.817,-1.016 9.633,1.386 14.445,0.488 2.305,-0.449 5.54,0.383 6.59,-1.887 0.442,-0.972 -5.476,-2.957 -6.59,-3.59 -0.593,-0.343 -10.019,0.497 -4.636,-2.699 7.183,-0.957 11.953,-1.179 16.59,-3.496 0.898,-0.437 4.746,0.813 4.902,0.039 0.351,-2.176 -0.352,-3.238 -2.285,-4.851 -0.879,-1.055 -2.317,-1.114 -3.035,-0.789 -1.094,0.457 -2.637,0.679 -3.743,1.171 -3.796,1.61 -7.121,3.622 -11.003,4.918 -2.61,0.864 -5.317,2.668 -8.247,3.008 -0.144,-1.765 3.301,-2.801 0.801,-4.16 -2.262,-1.25 -4.312,0.742 -6.773,0.344 1.14,-3.555 4.707,-3.477 7.344,-4.442 2.156,-0.761 4.968,0.387 7.046,-0.246 1.758,-0.515 3.215,-2.683 4.707,-4.355 0.5,-0.586 -0.195,-1.317 -0.808,-1.555 -3.496,-1.453 -6.953,-1.734 -10.403,-1.941 l -2.656,0.066 c -3.711,1.195 -7.871,1.406 -11.844,0.317 0.665,-2.2 -1.777,-2.336 -2.937,-3.481 -0.18,-0.144 -0.109,-0.652 -0.023,-0.711 4.765,-2.219 11.078,1.836 14.296,-3.191 0.84,-1.313 -1.121,-1.848 -1.929,-1.809 -1.407,0.059 -2.871,1.555 -4.199,0.918 -0.254,-0.098 -0.266,-1.055 0,-1.504 0.972,-1.679 2.75,-2.136 4.597,-2.644 4.063,-1.133 4.153,-0.879 7.883,-1.235 l 0.555,-0.34 c 3.515,-1.386 3.691,1.043 7.507,0.262 1.958,-0.398 3.196,-1.355 3.372,-2.754 0.234,-2 -3.614,-4.539 -5.723,-3.496 -2.609,1.242 0.117,2.055 -3.606,0.715 -0.261,-0.066 -0.789,0.969 -1.25,0.984 -1.25,0.149 -2.039,0.676 -3.074,1.274 -2.285,1.336 -4.98,0.371 -7.629,0.789 -2.097,0.351 -4.207,-0.266 -6.402,-0.859 -1.723,-0.489 -3.652,0.886 -5.449,-0.274 -0.531,-0.344 -1.086,-1.133 -0.774,-1.523 3.008,-3.797 7,-1.426 10.879,-4.114 1.223,-0.828 3.074,-4.57 4.387,-4.761 2.559,-0.422 4.988,-1.274 7.676,-1.157 0.586,0.032 0.523,-0.796 0.32,-1.128 -1.047,-1.633 -3.254,-1.868 -4.57,-1.809 -4.571,0.207 -8.867,3.191 -13.684,2.91 -1.719,-0.09 -2.859,-1.621 -2,-3.191 0.828,-1.477 2.07,-2.989 3.391,-3.664 1.394,-0.704 3.867,0.793 4.469,-1.575 0.277,-1.148 -0.458,-2.461 -1.29,-2.761 l -2,-2.039 c -1.796,0.386 -3.125,1.48 -4.46,2.554 l -0.286,0.254 c -3.816,1.34 -7.343,-1.363 -10.761,-2.437 -3.196,-1.008 -6.993,0.437 -10.547,-0.442 0.957,-1.164 2.285,-0.586 3.379,-0.965 1.457,-0.539 1.355,-1.691 0.476,-2.882 4.289,0.754 8.418,-0.977 12.793,-0.618 l 0.488,-0.437 c -0.132,-2.285 -4.753,-1.934 -6.218,-3.508 -0.86,-0.887 -2.793,-0.32 -3.653,-1.851 1.336,0.156 2.356,-0.618 3.411,-1.274 -4.36,-2.613 -9.653,-0.594 -14.043,-3.074 -0.11,-0.051 -0.039,-0.481 -0.039,-0.762 2.871,0.266 5.781,0.078 8.457,-0.691 3.726,-1.074 7.664,-2.324 11.035,-1.074 2.097,0.781 4.058,1.875 6.101,2.769 l 0.391,0.258 0.906,0.047 c 1.274,-0.047 2.168,1.914 3.469,2.566 1.164,0.578 3.516,3.723 3.918,2.766 0.371,-0.84 -7.719,-8.211 2.652,-5.528 0.918,0.223 0.774,4.075 1.828,3.879 0.703,-0.121 0.196,-1.195 0.879,-1.195 2.957,0 6.067,0 4.551,-3.672 -0.398,-1.012 1.223,-3.015 -0.574,-3.711 -2.375,-0.918 -2.707,0 -5.324,-0.445 -1.622,-0.324 -0.457,-2.297 -1.375,-2.434 -0.598,-0.066 -2.954,1.055 -4.336,1.465 -0.813,0.227 -5.246,3.848 -3.071,0.227 l 0,-1.914 -3.347,-0.586 c -1.145,-0.031 -2.637,1.179 -5.262,0.652 0.367,-1.648 -5.52,0.156 -4.707,-1.379 1.973,-3.765 7.273,-4.031 10.699,-4.031 1.125,0 2.617,-0.867 3.891,-1.113 3.113,-0.625 6.238,0.742 9.351,0.761 0.91,0.02 2.407,-1.23 2.207,-1.804 -0.75,-2.258 -0.222,-5.266 1.606,-5.246 2.371,0.019 1.883,1.687 4.012,-0.555 0.507,-0.539 0.046,-1.887 -0.723,-1.848 -4.414,0.164 -4.817,-0.301 -9.18,0.657 -1.863,0.425 -3.933,1.589 -5.429,3.257 -0.899,1.008 -3.204,1.938 -4.375,0.879 -2.5,-2.254 4.003,-4.597 1.21,-6.98 0.579,0.515 -1.71,0.246 -5.91,2.324 -2.066,1.016 -3.425,2.051 -3.797,2.859 -0.183,0.5 -6.75,8.489 -5.918,3.657 l 1.829,-3.95 -3.254,-0.093 c -1.953,0.925 -0.528,4.656 -2.442,5.23 -1.23,0.383 -2.883,0.52 -3.711,-0.762 -0.3,-0.504 0.703,-1.004 0.313,-1.66 -0.363,-0.574 -0.879,-1.172 -1.629,-0.816 -1.984,0.879 -3.852,2.234 -5.981,1.914 -1.382,-0.195 -2.683,-0.813 -4.019,-1.75 -1.359,-0.996 -3.254,0.558 -4.961,-0.234 -0.332,-0.176 -0.598,-0.442 -0.402,-0.801 1.015,-1.946 2.199,-3.313 4.265,-3.672 1.692,-0.313 3.188,-0.527 4.59,-1.563 1.828,-1.336 2.688,-3.371 4.785,-4.113 1.352,-0.476 2.817,0.371 4.27,-0.418 0.84,-0.461 1.633,-1.035 2.59,-1.269 1.582,-0.34 -2.012,0.324 -0.395,0.234 l 6.859,1.191 c 4.344,0.039 2.594,-1.765 6.368,-4.648 0.203,-0.145 12.949,0.234 12.754,0.098 -3.618,-2.286 10.007,-0.789 -0.793,-7.278 -1.895,-1.14 -12.969,-0.789 -15.118,-0.894 -3.808,-0.129 -3.281,2.984 -7.082,1.582 -1.179,-0.461 -0.562,-2.043 -0.945,-3.254 -0.234,-0.742 -1.113,-1.074 -1.648,-1.121 -6.235,-0.637 -12.102,1.347 -17.922,3.261 0.261,-2.648 3.769,-2.355 4.172,-4.738 0.039,-0.273 -0.371,-0.515 -0.793,-0.371 -0.086,-1.57 1.125,-2.187 2.199,-2.43 4.723,-1.086 9.266,-0.644 14.043,-1.359 3.133,-0.488 1.64,-0.359 4.59,-0.254 0.808,0 1.929,-1.141 3.008,-1.308 4.707,-0.54 4.531,1.425 7.671,-3.086 0.918,-1.329 1.606,-2.188 2.922,-3.172 -2.218,-2.539 -2.722,-6.145 -6.062,-4.844 -1.496,0.574 -1.848,2.945 -2.571,3.758 -2.351,2.566 -6.043,-0.313 -9.453,-0.684 -0.593,-0.078 -1.054,-1.23 -1.738,-1.426 -2.062,-0.656 1.16,-0.117 -1.25,-0.656 -0.566,-0.113 -1.516,0.481 -2.461,0.695 -2.246,0.5 -2.004,3.633 -4.707,3.918 -5.527,0.567 -10.742,2.118 -15.906,4.266 -1.289,0.496 -4.211,0.945 -4.262,-0.613 -0.086,-1.457 1.367,-3.078 2.766,-4.114 0.625,-0.496 1.496,-0.91 2.402,-1.171 2.703,-0.789 -0.117,-2.637 2.168,-3.946 0.684,-0.34 4.512,0.871 5.371,0.871 0.899,0 3.555,-0.8 4.324,-1.269 0.766,-0.442 1.25,-2.402 1.211,-3.164 -0.093,-1.621 0.532,-2.754 1.399,-3.774 0.859,-0.972 6.379,0.383 7.343,-0.535 0.262,-0.246 2.708,-1.75 1.297,-3.144 -0.996,-1.004 -6.922,-3.66 -7.058,-3.692 -3.504,-0.965 -7.84,3.692 -9.199,0.293 -0.899,-2.258 2.304,-3.301 4.343,-3.906 1.782,-0.52 3.696,-0.625 4.953,-1.992 0.606,-0.645 -0.593,-2.078 -0.246,-2.196 5.688,-1.496 18.352,15.477 16.035,4.586 -0.476,-2.324 3.458,1.372 6.118,2.305 1.824,0.676 3.66,-0.445 4.539,-2.098 0.683,-1.25 -0.657,-2.507 -1.621,-2.683 -1.629,-0.266 -3.028,-1.192 -3.973,-1.887 -4.707,-3.457 -9.785,-6.199 -15.625,-5.605 0,-0.293 0,-0.567 0,-0.852 0.809,0.195 1.578,-0.379 1.531,-0.84 -0.078,-0.613 -0.871,-1.367 -1.57,-1.621 -3.391,-1.277 -6.992,-1.824 -9.77,-4.351 10.664,-0.442 19.496,5.894 29.954,7.625 0.617,0.089 1.433,-3.036 3.273,-2.344 2.027,0.762 2.898,3.379 5.184,3.996 2.023,0.516 3.964,-0.539 5.937,-0.156 1.191,0.23 2.18,1.543 1.973,2.769 -0.235,1.34 -1.934,2.285 -1.446,3.86 0.301,0.82 0.84,1.964 1.653,1.98 2.371,0.109 5.359,0.656 7,-1.285 0.996,-1.176 -0.02,-3.137 -0.828,-4.367 -1.914,-2.942 -6.614,-4.934 -8.02,-8.086 -0.312,-0.703 -13.406,-4.563 -12.969,-4.903 1.809,-1.433 2.657,-5 12.024,-0.3 3.582,1.773 9.422,6.336 10,3.992 0.015,-0.106 -6.489,-6.25 -6.008,-6.348 12.18,-2.219 10.156,2.18 11.426,3.781 3.301,4.215 6.308,4.649 14.797,0.758 1.621,-0.711 1.902,2.766 3.132,4.426 0.911,1.145 -2.832,5.09 -2.019,6.027 1.473,1.739 5.281,0.157 5.254,0.157 0,0 7.078,1.543 7.222,-2.493 0.071,-1.003 0.188,-4.043 0.188,-4.043 0,0 -0.02,-8.203 -0.332,-14.05 0,-4.914 -20.242,-5.41 -20.242,-7.539 l 56.453,0 c 0,2.91 -20.137,2.089 -20.137,7.39 0,5.305 -0.105,7.207 -0.183,9.395 0,0 -1.457,8.847 1.46,9.648 2.93,0.774 8.774,0.813 8.774,0.813 2,-6.465 3.824,-4.028 5.379,-5 0,0 3.535,-3.711 5.996,-5.383 5.371,-3.66 3.523,-0.789 5.605,-1.152 3.758,-0.657 2.461,-0.977 2.918,-0.918 0,0 5.766,-1.797 4.817,0.605 -1.035,2.395 -2.879,2.316 -2.879,2.316 -4.277,2.918 -6.125,3.692 -3.86,2.391 -0.996,0.606 -1.582,1.301 -2.031,1.992 -0.461,0.684 3.262,0.149 2.727,0.567 0,0 3.262,-2.879 5.847,-2.879 2.598,0 1.985,1.375 0.75,1.804 0,0 0.239,1.172 1.399,0.579 1.23,-0.579 4.07,-5.461 8.84,-5.52" /><path
         id="path70"
         style="fill:#181210;fill-opacity:1;fill-rule:nonzero;stroke:none"
         d="m 152.488,314.758 c 10.903,10.32 25.926,16.687 42.567,16.687 16.621,0 31.648,-6.367 42.547,-16.687 10.093,-9.563 16.539,-22.492 17.453,-36.848 l -120.012,0 c 0.914,14.356 7.359,27.285 17.445,36.848 z m 116.227,-63.606 0,26.758 -5.918,0 c -1.93,33.906 -31.473,60.86 -67.742,60.86 -36.282,0 -65.825,-26.954 -67.746,-60.86 l -5.918,0 0,-26.758 5.519,0 c 0.926,-16.347 5.137,-37.754 19.469,-52.754 l -9.91,-22.695 14.972,-0.039 10.649,11.367 c 6.918,-3.32 15.234,-5.488 25.043,-6.211 l 2.539,-10.996 10.762,0 2.546,11.016 c 9.54,0.781 17.633,2.937 24.407,6.191 l 10.656,-11.367 14.961,0.039 -9.902,22.695 c 14.332,15 18.539,36.407 19.464,52.754 l 6.149,0" /><path
         id="path72"
         style="fill:#cac9c9;fill-opacity:1;fill-rule:nonzero;stroke:none"
         d="m 131.586,330.066 4.703,-3.582 c -0.523,-1.093 -3.75,-0.761 -3.75,-0.761 l -0.953,4.343 z m -79.6485,-35.664 2.3086,-19.683 -2.4336,0.789 3.9609,-23.672 14.0977,-14.746 -1.0039,-3.477 1.5234,-6.386 -2.3398,-0.469 4.582,-10.567 -3.5859,-0.41 7.6562,-13.008 -16.8047,-10.957 9.0157,-14.336 -0.461,-5.585 8.1328,0.8 -0.164,-5.039 1.7734,-1.875 1.8203,-0.078 1.8125,0.469 -0.0937,-1.699 0.8711,1.914 5.5039,1.406 -0.1016,-1.719 0.8828,1.934 5.5,1.426 -0.1054,-1.758 0.8867,1.953 0.6367,0.176 3.125,6.484 -5.3789,7.715 -15.6406,-0.527 -1.8828,4.589 21.7226,9.219 -3.6172,9.844 5.1055,0.449 7.1678,-9.922 -2.515,-5.898 13.593,-9.141 -0.472,-5.742 9.632,0.352 -0.148,-4.922 1.789,-1.914 1.813,-0.059 1.8,0.469 -0.093,-1.699 0.871,1.914 5.508,1.425 -0.086,-1.738 0.859,1.934 5.516,1.426 -0.114,-1.739 0.91,1.934 0.625,0.176 3.11,6.484 -5.387,7.715 -13.433,-0.449 -10.309,7.832 6.082,17.812 -4.777,3.887 3.406,3.926 -15.985,15.507 5,4.805 25.559,-5.801 0.859,-5.683 5.813,2.168 0.988,-4.981 2.192,-1.406 1.039,-1.094 0.547,0 0.753,-2.656 1.012,0.273 0.707,3.614 3.114,1.621 0.828,-3.106 1.058,0.45 0.918,4.082 2.828,1.523 0.344,-3.027 1.25,0.664 1.156,3.652 0.52,1.66 0.129,0.352 1.523,7.031 -7.039,6.25 -12.969,-3.555 -22.007,9.746 -0.688,3.918 4.359,-0.863 0.547,1.488 16.477,-3.402 18.351,12.18 2.938,-4.442 4.867,3.817 2.477,-4.414 2.523,-0.664 1.367,-0.45 1.68,-2.421 0.938,0.847 -0.446,3.203 2.688,2.778 1.211,-2.864 1.195,1.055 -0.578,3.652 2.578,2.649 1.008,-3.293 1.09,0.918 0.23,6.504 -0.734,7.187 -8.617,3.758 -11.344,-7.586 -20.617,-5.39 -9.071,8.632 4.219,2.774 -18.625,16.535 -0.102,10.508 1.665,0.777 0.5,-0.144 c 0.351,-0.059 0.859,-0.215 1.5,-0.372 3.664,-0.996 11.468,-3.417 16.703,-7.207 l 0.789,0 4.05,4.082 3.36,0.313 6.957,2.812 2.965,2.864 -4.867,3.66 c -1.762,1.387 -4.715,3.684 -5.196,4.07 l -9.379,5.703 0.985,3.293 -9.657,10.508 2.383,5.567 -8.629,12.628 -1.597,-1.496 0.57,-3.339 -3.934,-8.223 -1.253,2.637 -11.168,11.32 -1.34,-1.379 1.078,-3.672 -1.262,-4.519 -0.324,-5 1.066,-3 -7.043,-3.516 -10.9528,-8.477 2.7109,-1.804 -8.2695,-10.469 -4.2578,-7.531 4.0351,-0.879 -5.7031,-16.817 4,-0.546 -1.8242,-8.243 -0.1289,-9.922 3.6719,-0.207 1,-12.683 -2.8985,-7.442 -12.5078,-10.332 -3.4375,7.129 c -1.9375,4.258 5.25,45.75 -3.3711,53.633 -5.0742,4.629 -18.7226,15.828 -18.7226,15.828 l -1.4297,-2.976 c 0,0 7.0039,-11.465 8.4844,-23.008 l -2.0313,0.437" /><path
         id="path74"
         style="fill:#181210;fill-opacity:1;fill-rule:nonzero;stroke:none"
         d="m 119.719,341.426 -5.039,10.558 -0.719,-0.929 -0.625,-6.192 5.437,-4.238 0.946,0.801 z m 12.82,-15.703 -0.953,4.343 4.703,-3.582 c -0.523,-1.093 -3.75,-0.761 -3.75,-0.761 z m 5.457,-2.051 2.801,-0.918 0.625,1.25 -8.672,9.187 -8.195,-5.476 11.086,-4.531 2.355,0.488 z m 51.313,-56.25 -1.09,-0.918 -0.914,2.988 0.859,0.899 1.293,1.3 -0.148,-4.269 z m -2.524,5.137 -1.222,3.808 -4.141,2.09 -0.707,-0.996 2.746,-3.406 0.82,-4.106 -2.008,-2.066 -1.242,3.863 -4.133,2.043 -0.71,-0.957 2.757,-3.418 0.805,-4.141 -2.187,-2.246 -1.516,-0.293 -1.258,0.254 -2.781,5.403 -4.906,-3.723 -2.856,4.629 -19.141,-12.012 -13.972,2.637 0.676,1.863 4.48,-1.004 0.727,10.391 4.023,-0.938 -0.148,4.883 6.828,-5.801 21.562,6.028 10.821,7.097 7.671,-3.027 0.641,-5.215 -1.629,-1.64 z m -2.769,-10.118 -1.078,2.539 0.71,0.743 1.043,1.074 0.52,-3.301 -1.195,-1.055 z m -4.391,-3.964 -1.426,2.05 0.887,0.489 0.031,0.039 1.055,1.074 0.391,-2.805 -0.938,-0.847 z m -50.039,7.363 -2.414,-6.629 c -0.07,0.008 -1.063,0.223 -1.961,0.418 l -1.914,10.676 1.914,2.156 -0.898,1.133 -4.696,-2.071 2.906,-18.867 23.872,-10.84 12.472,3.418 6.375,-5.254 -1.008,-5.136 -2.054,-1.074 0.015,4.023 -3.312,3.242 -0.977,-0.722 1.574,-4.063 -0.488,-4.18 -2.554,-1.367 0.007,4.043 -3.293,3.262 -0.972,-0.742 1.586,-4.063 -0.508,-4.18 -2.778,-1.503 -1.535,0.214 -1.125,0.625 -0.984,5.704 -5.106,-1.934 -0.832,4.941 -32.976,8.028 -5.524,12.238 -5.3121,-0.656 0.1172,-1.856 2.4453,-0.808 4.7106,-11.496 4.481,-1.016 -12.0548,-11.582 3.5038,-20.313 -8.5077,-0.644 3.789,-10.527 -21.7148,-9.336 3.4258,-7.637 14.9179,0.508 5,-6.602 -2.2109,-4.746 -2.2383,-0.605 0.9375,3.925 -2.4258,3.907 -1.1562,-0.43 0.5898,-4.356 -1.4531,-3.945 -2.7813,-0.723 0.9493,3.926 -2.4571,3.946 -1.1093,-0.489 0.5703,-4.336 -1.4532,-3.965 -3.0507,-0.781 -1.4336,0.567 -0.9453,0.859 0.3515,5.781 -7.3984,-0.761 0.3594,4.98 -8.125,12.93 16.2734,10.781 -7.5469,12.754 3.375,0.43 -4.6094,10.605 2.5782,0.527 -1.7618,7.012 2.4883,9.082 12.6446,10.012 3.707,8.64 -1.1719,14.825 -3.5,0.195 0.0938,7.781 2.2265,10.149 -3.7109,0.527 5.6016,16.555 -3.2852,0.808 3.2422,6.106 8.8555,11.054 -2.211,1.473 8.6172,6.652 6.039,3.016 c 1.172,-1.57 2.266,-2.832 2.266,-2.832 l 0.754,1.965 -2.84,5.547 0.433,5.222 1.395,4.895 -0.68,2.234 0.485,0.801 8.628,-10 2.309,-3.476 1.051,-1.622 0.48,1.165 0.907,1.902 2.101,0.332 0.477,-2.313 5.656,-3.683 8.742,-9.883 -1.07,-3.262 3.765,-2.363 0,0.039 6.782,-4.18 c 0.297,-0.254 5.101,-4.168 5.101,-4.168 0,0 0.367,-4.464 0.43,-4.804 0.008,-0.117 -5.578,-2.825 -5.578,-2.825 l -2.141,-0.222 -7.375,5.125 -11.812,3.933 -3.602,-1.168 0.852,-1.398 2.75,-0.051 10.687,-3.562 5.938,-4.129 c -0.266,-0.274 -0.539,-0.539 -0.821,-0.832 -0.5,-0.496 -1.007,-1.004 -1.406,-1.438 -7.453,5.11 -18.617,7.539 -18.711,7.571 l -0.5,0.129 -8.058,-3.782 -0.067,3.711 -4.89,2.246 -0.461,-1.347 2.386,-2.207 0.118,-7.063 7.535,3.527 0.086,-8.847 17.179,-15.266 -2.75,-1.519 0.243,-7.512 -3.625,0.801 -0.727,-10.364 -3.5,0.774 z m 33.828,-37.246 -1.25,-0.664 -0.324,2.832 0.98,0.527 1.743,0.93 -1.149,-3.625 z m -5.34,-3.242 -1.058,-0.45 -0.77,2.879 0.848,0.461 1.851,0.988 -0.871,-3.878 z m -5.707,-2.579 -1.012,-0.273 -0.718,2.539 0.676,0.137 0.042,0.019 1.657,0.871 -0.645,-3.293 z m -30.375,-1.562 -3.453,-3.965 5.016,-4.023 -5.789,-17.871 11.586,-9.18 12.921,0.43 4.985,-6.582 -2.192,-4.766 -2.238,-0.586 0.945,3.906 -2.433,3.926 -1.145,-0.469 0.575,-4.336 -1.446,-3.945 -2.785,-0.723 0.949,3.926 -2.449,3.945 -1.125,-0.468 0.566,-4.356 -1.445,-3.945 -3.023,-0.82 -1.457,0.566 -0.953,0.859 0.359,5.782 -8.891,-0.293 0.344,5 -13.406,9.16 2.613,5.547 -6.613,8.203 3.336,0.566 -3.75,21.641 6.636,6.387 13.762,-13.516 z m -64.3787,31.262 -3.5625,20.672 2.4219,-0.957 -2.793,20.3 2.7187,-0.586 c -2.9492,16.567 -9.1562,24.328 -9.1562,24.328 l 0.7422,0.938 c 0,0 11.4961,-8.262 16.4453,-14.602 7.8281,-10.066 0.2461,-47.5 3.0078,-52.761 l 3.7422,-7.207 -1.1094,-3.77 -12.457,13.645 z m 70.5387,104.16 0.817,0.965 6.746,-11.094 -1.402,-3.301 -3.598,2.051 -0.817,3.367 -3.125,-0.359 2.274,5.742 -0.895,2.629 z m 63.125,-75.254 -0.14,1.453 -11.215,4.883 -12.117,-8.106 -18.867,-4.941 -5.79,5.52 1.602,1.042 2.707,1.79 -20.238,17.957 -0.063,7.343 c 0.172,-0.047 0.36,-0.097 0.555,-0.136 3.465,-0.926 11.133,-3.368 15.828,-6.797 l 0.656,-0.469 2.645,0 4.144,4.16 2.438,0.235 0.371,0.039 7.301,2.929 0.453,0.188 3.32,3.191 2.113,2.051 -7.199,5.422 c -1.718,1.355 -4.718,3.687 -5.129,4.012 l -8.015,4.902 0.429,1.445 0.411,1.367 -9.532,10.352 1.762,4.062 0.531,1.27 -11.035,16.16 -3.73,-3.465 -0.985,-0.918 0.657,-3.894 -1.606,-3.371 -12.172,12.324 -3.121,-3.215 -1.004,-1.043 1.293,-4.394 -1.062,-3.829 -0.41,-5.5 -0.047,-0.515 0.496,-1.406 -5.067,-2.508 -14.1091,-10.871 3.3438,-2.227 -6.5859,-8.359 -4.4688,-7.852 -1.6797,-2.93 4.6133,-1.027 -5.7656,-17.019 4.3047,-0.586 -1.2305,-5.606 -0.1797,-10.41 -0.043,-2.402 3.8789,-0.235 0.7735,-9.941 -2.4531,-6.316 -9.5391,-7.852 -2.0508,4.246 c -0.043,-0.039 -0.1445,0.781 -0.1016,2.266 0,5.742 1.3321,18.183 1.3321,29.433 -0.1641,9.492 -0.5547,18.086 -5.168,22.676 -5.1875,4.746 -18.8047,15.918 -18.8242,15.938 l -2.4609,2.011 -2.8125,-5.84 -0.5899,-1.211 0.7149,-1.171 c 0.0351,-0.02 5.3867,-8.887 7.5156,-18.477 l -1.8164,0.391 0.4101,-3.489 1.8438,-15.808 -2.6446,0.859 4.7813,-28.484 13.6367,-14.27 -0.6133,-2.09 -0.1875,-0.625 1.0782,-4.531 -2.8204,-0.547 4.4454,-10.312 -0.2032,-0.02 -3.832,-0.429 8.4063,-14.278 -16.879,-10.996 9.8868,-15.723 -0.3907,-4.746 -0.2656,-2.968 8.3047,0.8 -0.0781,-2.199 -0.043,-1.043 2.5039,-2.617 0.6719,-0.742 2.8516,-0.125 0.2578,0 -0.1485,-2.707 1.836,0.566 1.289,2.879 3.3086,0.863 -0.1445,-2.687 1.832,0.566 1.2852,2.891 3.3125,0.852 -0.1446,-2.668 1.8086,0.546 1.3282,2.903 1.8164,0.469 3.648,7.527 0.641,1.328 -7.0156,10.012 -15.2578,-0.52 -0.2852,0.703 21.6326,9.18 -3.3044,9.004 0.4336,0.039 5.5158,-7.598 -1.969,-4.621 -0.801,-1.883 14.09,-9.492 -0.351,-4.277 -0.243,-2.805 9.782,0.344 -0.059,-2.246 -0.047,-1.035 2.508,-2.657 0.719,-0.761 2.843,-0.078 0.227,-0.008 -0.148,-2.688 1.839,0.567 1.278,2.851 3.312,0.86 -0.148,-2.676 1.832,0.586 1.289,2.851 3.309,0.86 -0.141,-2.657 1.808,0.547 1.301,2.879 1.86,0.481 3.609,7.539 0.637,1.308 -6.992,10.039 -13.903,-0.476 -8.183,6.219 6.07,17.754 -4.121,3.359 1.722,1.973 1.54,1.777 -15.836,15.351 2.152,2.071 22.602,-5.117 0.617,-3.993 0.449,-3.039 5.945,2.215 0.41,-2.117 0.207,-1.035 3.094,-1.992 0.578,-0.703 0.36,-0.379 0.355,-1.243 0.656,-2.375 3.403,0.93 1.5,0.391 0.429,2.187 0.391,-1.472 3.711,1.57 1.191,0.5 0.125,0.574 4.243,2.277 0.882,0.497 1.454,4.589 0.535,1.68 0.082,0.227 1.621,7.363 0.304,1.434 -9.144,8.125 -13.395,-3.672 -16.875,7.461 0.469,1.289 15.403,-3.184 17.125,11.387 1.562,-2.364 1.473,-2.246 4.718,3.692 1.043,-1.875 0.512,-0.918 3.551,-0.938 0.449,-0.144 1.192,-1.75 1.617,-2.332 3.054,2.761 0.989,0.879 -0.016,0.098 3.645,3.145 1.023,0.925 -0.059,0.383 3.098,2.617 0.84,0.711 0.285,7.61 -0.762,7.531" /><path
         id="path76"
         style="fill:#cac9c9;fill-opacity:1;fill-rule:nonzero;stroke:none"
         d="m 257.27,325.723 c 0,0 -3.223,-0.332 -3.75,0.761 l 4.707,3.582 -0.957,-4.343 z m 78.574,-31.758 c 1.476,11.543 8.488,23.008 8.488,23.008 l -1.437,2.976 c 0,0 -13.641,-11.199 -18.719,-15.828 -8.625,-7.883 -1.438,-49.375 -3.371,-53.633 l -3.438,-7.129 -12.508,10.332 -2.902,7.442 1.008,12.683 3.672,0.207 -0.137,9.922 -1.816,8.243 3.992,0.546 -5.703,16.817 4.035,0.879 -4.258,7.531 -8.262,10.469 2.703,1.804 -10.945,8.477 -7.051,3.516 1.075,3 -0.332,5 -1.262,4.519 1.086,3.672 -1.348,1.379 -11.164,-11.32 -1.258,-2.637 -3.926,8.223 0.567,3.339 -1.602,1.496 -8.625,-12.628 2.383,-5.567 -9.656,-10.508 0.984,-3.293 -9.383,-5.703 c -0.48,-0.386 -3.429,-2.683 -5.195,-4.07 l -4.863,-3.66 2.969,-2.864 6.953,-2.812 3.359,-0.313 4.051,-4.082 0.793,0 c 5.234,3.79 13.035,6.211 16.699,7.207 0.645,0.157 1.152,0.313 1.504,0.372 l 0.496,0.144 1.66,-0.777 -0.097,-10.508 -18.622,-16.535 4.219,-2.774 -9.074,-8.632 -20.613,5.39 -11.348,7.586 -8.613,-3.758 -0.742,-7.187 0.234,-6.504 1.094,-0.918 1.004,3.293 2.578,-2.649 -0.575,-3.652 1.192,-1.055 1.211,2.864 2.683,-2.778 -0.437,-3.203 0.937,-0.847 1.68,2.421 1.367,0.45 2.52,0.664 2.48,4.414 4.864,-3.817 2.937,4.442 18.352,-12.18 16.472,3.402 0.547,-1.488 4.367,0.863 -0.695,-3.918 -22,-9.746 -12.969,3.555 -7.043,-6.25 1.524,-7.031 0.129,-0.352 0.515,-1.66 1.164,-3.652 1.25,-0.664 0.34,3.027 2.824,-1.523 0.918,-4.082 1.063,-0.45 0.832,3.106 3.105,-1.621 0.711,-3.614 1.008,-0.273 0.762,2.656 0.547,0 1.035,1.094 2.187,1.406 0.996,4.981 5.809,-2.168 0.859,5.683 25.559,5.801 5,-4.805 -15.988,-15.507 3.41,-3.926 -4.777,-3.887 6.086,-17.812 -10.313,-7.832 -13.437,0.449 -5.383,-7.715 3.105,-6.484 0.625,-0.176 0.91,-1.934 -0.109,1.739 5.519,-1.426 0.86,-1.934 -0.09,1.738 5.508,-1.425 0.871,-1.914 -0.098,1.699 1.805,-0.469 1.809,0.059 1.796,1.914 -0.156,4.922 9.637,-0.352 -0.477,5.742 13.594,9.141 -2.519,5.898 7.168,9.922 5.117,-0.449 -3.625,-9.844 21.73,-9.219 -1.887,-4.589 -15.644,0.527 -5.379,-7.715 3.125,-6.484 0.645,-0.176 0.878,-1.953 -0.097,1.758 5.496,-1.426 0.879,-1.934 -0.098,1.719 5.5,-1.406 0.879,-1.914 -0.098,1.699 1.817,-0.469 1.816,0.078 1.778,1.875 -0.168,5.039 8.136,-0.8 -0.468,5.585 9.023,14.336 -16.809,10.957 7.657,13.008 -3.582,0.41 4.578,10.567 -2.344,0.469 1.523,6.386 -1.003,3.477 14.101,14.746 3.965,23.672 -2.441,-0.789 2.312,19.683 -2.031,-0.437" /><path
         id="path78"
         style="fill:#181210;fill-opacity:1;fill-rule:nonzero;stroke:none"
         d="m 275.855,351.055 -0.722,0.929 -5.039,-10.558 0.945,-0.801 5.441,4.238 -0.625,6.192 z M 257.27,325.723 c 0,0 -3.223,-0.332 -3.75,0.761 l 4.707,3.582 -0.957,-4.343 z m -8.875,-1.719 0.625,-1.25 2.793,0.918 2.363,-0.488 11.082,4.531 -8.192,5.476 -8.671,-9.187 z m 85.019,-32.102 2.715,0.586 -2.793,-20.3 2.422,0.957 -3.555,-20.672 -12.461,-13.645 -1.113,3.77 3.75,7.207 c 2.754,5.261 -4.824,42.695 3.008,52.761 4.941,6.34 16.445,14.602 16.445,14.602 l 0.742,-0.938 c 0,0 -6.211,-7.761 -9.16,-24.328 z m -15.051,-77.312 -7.547,-12.754 16.278,-10.781 -8.125,-12.93 0.363,-4.98 -7.402,0.761 0.351,-5.781 -0.949,-0.859 -1.434,-0.567 -3.046,0.781 -1.457,3.965 0.578,4.336 -1.114,0.489 -2.461,-3.946 0.957,-3.926 -2.785,0.723 -1.453,3.945 0.586,4.356 -1.152,0.43 -2.422,-3.907 0.937,-3.925 -2.246,0.605 -2.207,4.746 5,6.602 14.922,-0.508 3.418,7.637 -21.711,9.336 3.789,10.527 -8.504,0.644 3.496,20.313 -12.05,11.582 4.48,1.016 4.707,11.496 2.453,0.808 0.117,1.856 -5.312,0.656 -5.527,-12.238 -32.981,-8.028 -0.828,-4.941 -5.109,1.934 -0.985,-5.704 -1.125,-0.625 -1.531,-0.214 -2.773,1.503 -0.508,4.18 1.582,4.063 -0.977,0.742 -3.293,-3.262 0.012,-4.043 -2.559,1.367 -0.488,4.18 1.582,4.063 -0.976,0.722 -3.321,-3.242 0.02,-4.023 -2.051,1.074 -1.016,5.136 6.375,5.254 12.473,-3.418 23.875,10.84 2.902,18.867 -4.687,2.071 -0.899,-1.133 1.915,-2.156 -1.915,-10.676 c -0.898,-0.195 -1.894,-0.41 -1.964,-0.418 l -2.411,6.629 -3.507,-0.774 -0.723,10.364 -3.621,-0.801 0.234,7.512 -2.746,1.519 17.18,15.266 0.086,8.847 7.531,-3.527 0.117,7.063 2.391,2.207 -0.457,1.347 -4.895,-2.246 -0.066,-3.711 -8.059,3.782 -0.496,-0.129 c -0.097,-0.032 -11.261,-2.461 -18.711,-7.571 -0.402,0.434 -0.91,0.942 -1.406,1.438 -0.285,0.293 -0.559,0.558 -0.82,0.832 l 5.937,4.129 10.684,3.562 2.754,0.051 0.847,1.398 -3.601,1.168 -11.817,-3.933 -7.375,-5.125 -2.136,0.222 c 0,0 -5.586,2.708 -5.578,2.825 0.058,0.34 0.429,4.804 0.429,4.804 0,0 4.805,3.914 5.098,4.168 l 6.789,4.18 0,-0.039 3.758,2.363 -1.063,3.262 8.739,9.883 5.656,3.683 0.476,2.313 2.102,-0.332 0.906,-1.902 0.481,-1.165 1.054,1.622 2.305,3.476 8.633,10 0.476,-0.801 -0.671,-2.234 1.386,-4.895 0.438,-5.222 -2.84,-5.547 0.75,-1.965 c 0,0 1.094,1.262 2.266,2.832 l 6.046,-3.016 8.614,-6.652 -2.207,-1.473 8.847,-11.054 3.243,-6.106 -3.282,-0.808 5.606,-16.555 -3.711,-0.527 2.226,-10.149 0.086,-7.781 -3.496,-0.195 -1.172,-14.825 3.703,-8.64 12.645,-10.012 2.492,-9.082 -1.758,-7.012 2.567,-0.527 -4.598,-10.605 3.367,-0.43 z m -30.554,-8.457 -6.621,-8.203 2.617,-5.547 -13.41,-9.16 0.343,-5 -8.886,0.293 0.359,-5.782 -0.957,-0.859 -1.453,-0.566 -3.028,0.82 -1.445,3.945 0.567,4.356 -1.125,0.468 -2.45,-3.945 0.957,-3.926 -2.793,0.723 -1.445,3.945 0.574,4.336 -1.14,0.469 -2.434,-3.926 0.949,-3.906 -2.246,0.586 -2.187,4.766 4.98,6.582 12.93,-0.43 11.582,9.18 -5.793,17.871 5.019,4.023 -3.457,3.965 13.762,13.516 6.641,-6.387 -3.75,-21.641 3.34,-0.566 z m -49.356,16.367 -1.008,0.273 -0.648,3.301 1.656,-0.879 0.047,-0.019 0.68,-0.137 -0.727,-2.539 z m -5.656,2.402 -1.063,0.45 -0.871,3.878 1.856,-0.988 0.851,-0.461 -0.773,-2.879 z m -5.145,3.028 -1.25,0.664 -1.152,3.633 1.738,-0.938 0.985,-0.527 -0.321,-2.832 z m 17.051,29.355 -19.14,12.012 -2.852,-4.629 -4.902,3.723 -2.786,-5.403 -1.257,-0.254 -1.516,0.293 -2.187,2.246 0.8,4.141 2.766,3.418 -0.715,0.957 -4.129,-2.043 -1.25,-3.863 -2.004,2.066 0.821,4.106 2.746,3.406 -0.703,0.996 -4.141,-2.09 -1.231,-3.808 -1.621,1.64 0.633,5.215 7.676,3.027 10.82,-7.097 21.563,-6.028 6.828,5.801 -0.149,-4.883 4.024,0.938 0.723,-10.391 4.484,1.004 0.672,-1.863 -13.973,-2.637 z m -34.512,1.192 -0.937,0.847 0.387,2.817 1.058,-1.086 0.028,-0.039 0.89,-0.489 -1.426,-2.05 z m -4.394,3.964 -1.192,1.055 0.516,3.301 1.047,-1.074 0.707,-0.735 -1.078,-2.547 z m -4.199,4.063 -1.094,0.918 -0.156,4.277 1.297,-1.308 0.867,-0.899 -0.914,-2.988 z m 59.246,91.094 0.812,-0.965 -0.89,-2.629 2.277,-5.742 -3.125,0.359 -0.82,-3.367 -3.594,-2.051 -1.406,3.301 6.746,11.094 z m 86.336,-40.762 -2.035,4.211 -1.395,2.859 -2.445,-2.011 c -0.02,-0.02 -13.625,-11.204 -18.825,-15.926 -4.621,-4.602 -5.031,-13.196 -5.175,-22.688 0,-11.258 1.34,-23.711 1.34,-29.441 0.039,-1.477 -0.188,-2.336 -0.149,-2.356 l -1.992,-4.16 -9.555,7.871 -2.441,6.309 0.773,9.941 1.481,0.078 2.41,0.157 -0.188,12.324 -1.293,6.074 1.332,0.195 3.004,0.411 -5.797,17.031 1.313,0.281 3.312,0.727 -5.937,10.476 -6.805,8.672 0.457,0.305 2.895,1.933 -13.688,10.575 -5.504,2.793 0.348,0.91 0.168,0.496 -0.371,5.508 -1.148,4.336 0.878,2.968 0.415,1.426 -2.364,2.422 -1.785,1.824 -12.148,-12.312 -1.621,3.379 0.453,2.57 0.207,1.336 -2.571,2.383 -2.136,1.992 -11.032,-16.172 2.282,-5.32 -9.539,-10.383 0.843,-2.793 -7.722,-4.695 c -0.68,-0.539 -3.676,-2.883 -5.446,-4.231 l -4.828,-3.66 -2.324,-1.75 5.078,-4.91 0.328,-0.324 7.414,-3.008 0.328,-0.117 2.836,-0.274 3.414,-3.43 0.719,-0.73 2.653,0 0.652,0.469 c 4.707,3.429 12.375,5.879 15.887,6.797 0.179,0.039 0.347,0.089 0.504,0.136 l -0.079,-7.343 -20.23,-17.957 4.309,-2.844 -5.77,-5.508 -18.863,4.941 -12.145,8.106 -11.195,-4.883 -0.902,-8.633 0.222,-6.855 0.043,-1.114 1.949,-1.621 1.993,-1.679 -0.059,-0.403 2.219,-1.941 2.449,-2.168 -0.004,-0.039 1.934,-1.738 2.093,-1.914 2.813,4.062 0.578,0.188 2.402,0.632 1.008,0.274 1.582,2.773 2.571,-2.011 2.113,-1.668 3.062,4.617 17.114,-11.375 15.402,3.179 0.48,-1.296 -16.867,-7.469 -13.394,3.68 -9.164,-8.125 1.824,-8.458 0.23,-0.664 0.492,-1.562 1.172,-3.652 0.286,-0.965 2.156,-1.153 2.969,-1.593 0.136,-0.586 2.239,-0.938 2.652,-1.133 0.398,1.504 0.137,-0.683 0.281,-1.543 2.512,-0.684 2.383,-0.625 1.039,3.613 1.383,1.457 1.726,1.024 0.887,0.574 0.633,3.149 3.062,-1.133 2.875,-1.067 1.071,7.032 22.582,5.117 2.179,-2.078 -15.843,-15.332 3.265,-3.762 -2.773,-2.258 -1.356,-1.109 6.082,-17.746 -8.156,-6.211 -12.555,0.41 -1.375,0.039 -6.988,-10.02 3.742,-7.793 0.492,-1.043 1.875,-0.492 1.305,-2.879 1.817,-0.547 -0.141,2.657 3.305,-0.86 1.289,-2.851 1.836,-0.586 -0.153,2.668 3.321,-0.86 1.265,-2.843 1.844,-0.567 -0.145,2.676 2.016,0.059 1.051,0.05 2.504,2.645 0.699,0.762 -0.106,3.281 6.969,-0.234 2.813,-0.11 -0.594,7.082 14.098,9.473 -2.778,6.504 5.508,7.617 0.449,-0.039 -2.484,-6.777 -0.844,-2.227 21.656,-9.18 -0.285,-0.703 -15.265,0.52 -6.989,-10.032 3.762,-7.812 0.496,-1.016 1.844,-0.476 1.328,-2.903 1.809,-0.546 -0.145,2.668 3.313,-0.864 1.285,-2.879 1.836,-0.566 -0.149,2.668 3.325,-0.871 1.277,-2.852 1.836,-0.566 -0.149,2.695 2.067,0.098 1.008,0.019 2.484,2.618 0.719,0.761 -0.125,3.235 5.304,-0.52 2.996,-0.281 -0.66,7.722 9.883,15.743 -16.863,10.988 8.402,14.285 -4.047,0.43 3.223,7.48 1.234,2.832 -2.836,0.567 0.922,3.867 0.149,0.644 -0.782,2.707 13.641,14.278 4.766,28.504 -2.653,-0.867 2.262,19.285 -1.801,-0.391 c 2.129,9.57 7.547,18.438 7.516,18.477 l 0.719,1.152" /><path
         id="path80"
         style="fill:#dac677;fill-opacity:1;fill-rule:nonzero;stroke:none"
         d="m 22.5469,462.34 c 0.2344,0.242 0.539,0.43 0.7851,0.672 0.5664,0.578 1.2188,1.047 1.8243,1.593 1.164,1.024 2.2968,2.071 3.582,2.958 1.25,0.871 2.6172,1.554 3.9687,2.265 0.7891,0.41 1.5118,0.91 2.3321,1.266 4.6601,2.058 9.7968,3.254 15.2031,3.254 1.543,0 3.0586,-0.125 4.5508,-0.317 1.3086,11.891 8.2031,21.992 17.9297,27.926 0.0195,0.016 0.0429,0.027 0.0586,0.039 1.8593,1.133 3.8007,2.141 5.8632,2.945 0.086,0.036 0.1758,0.082 0.2696,0.122 0.1367,0.05 0.2539,0.128 0.4023,0.179 l 0,186.086 -56.7851,56.774 c 0.0078,-68.317 0.0156,-181.61 0.0156,-285.762 z m 278.1761,129.351 0,219.356 -55.391,0 0,-163.977 -55.293,55.325 0,108.652 -55.383,0 0,-53.274 -53.2888,53.274 -2.0508,0 0,-119.719 55.3396,-55.344 0,121.758 55.344,-55.332 0,-121.765 -55.344,55.324 0,-162.754 55.383,0 0,107.41 55.293,-55.32 0,-52.09 52.102,0 -52.051,52.051 0,121.773 55.32,-55.309 0,-118.515 52.117,0 0,66.371 -52.097,52.105" /><path
         id="path82"
         style="fill:#dac677;fill-opacity:1;fill-rule:nonzero;stroke:none"
         d="m 729.492,411.094 c -3.73,0 -7.539,0.879 -11.133,2.676 l -7.578,3.769 0.996,-8.887 0.664,-5.527 c 0,-13.945 -11.328,-25.293 -25.332,-25.293 -13.906,0 -25.273,11.348 -25.273,25.293 l 0.898,9.219 -5.078,0.254 -244.394,0 0,-286.7 9.765,1.016 c 13.985,0 25.332,-11.387 25.332,-25.312 0,-14.0043 -11.347,-25.3715 -25.332,-25.3715 l -13.925,1.6211 3.3,-7.5196 c 1.778,-3.5742 2.696,-7.3828 2.696,-11.0937 0,-14.0039 -11.387,-25.3711 -25.34,-25.3711 -13.988,0 -25.344,11.3672 -25.344,25.3711 0,3.7109 0.899,7.5195 2.688,11.1523 l 3.777,7.6367 -8.926,-1.1132 -5.566,-0.6836 c -13.965,0 -25.352,11.3672 -25.352,25.3715 0,13.925 11.387,25.312 25.352,25.312 l 8.515,-0.898 0.391,5.097 0,281.485 -248.32,0 0.988,-9.414 c 0,-13.985 -11.359,-25.332 -25.3438,-25.332 -13.9649,0 -25.3242,11.347 -25.3242,25.332 l 1.6914,14.043 -7.5586,-3.321 c -3.6328,-1.797 -7.3945,-2.715 -11.1719,-2.715 -13.9648,0 -25.3125,11.387 -25.3125,25.348 0,13.965 11.3477,25.332 25.3125,25.332 3.7774,0 7.5195,-0.898 11.1328,-2.676 l 7.5977,-3.769 -1.0547,8.887 -0.6367,5.503 c 0,13.985 11.3593,25.34 25.3242,25.34 13.9848,0 25.3438,-11.355 25.3438,-25.34 l -0.941,-8.863 5.082,-0.215 243.191,0 0,255.895 -8.906,-0.942 c -13.965,0 -25.352,11.379 -25.352,25.332 0,13.997 11.387,25.356 25.352,25.356 l 14.023,-1.711 -3.308,7.578 c -1.789,3.621 -2.688,7.371 -2.688,11.16 0,13.965 11.356,25.332 25.344,25.332 13.953,0 25.34,-11.367 25.34,-25.332 0,-3.765 -0.918,-7.508 -2.696,-11.14 l -3.73,-7.598 8.867,1.066 5.488,0.645 c 13.985,0 25.332,-11.359 25.332,-25.356 0,-13.953 -11.347,-25.332 -25.332,-25.332 l -9.441,1 -0.324,-5.082 0,-250.871 249.472,0 -0.898,9.059 c 0,13.965 11.367,25.34 25.273,25.34 14.004,0 25.332,-11.375 25.332,-25.34 l -1.66,-14.078 7.539,3.34 c 3.633,1.796 7.383,2.695 11.172,2.695 13.946,0 25.332,-11.367 25.332,-25.332 0,-13.981 -11.386,-25.328 -25.332,-25.328" /><path
         id="path84"
         style="fill:#dac677;fill-opacity:1;fill-rule:nonzero;stroke:none"
         d="M 425.715,232.188 568.598,89.3086 c 12.511,3.3398 24.941,6.9023 37.125,10.8204 l -180.008,180.008 0,-47.949 z M 540.934,400.137 741.781,199.285 c 5.133,10.969 8.981,23.11 11.539,36.406 l -164.437,164.446 -47.949,0 z m 146.168,-34.766 c -19.817,0 -36.086,15.332 -37.622,34.766 l -14.16,0 121.543,-121.543 0,47.949 -46.8,46.809 c -6.375,-4.934 -14.278,-7.981 -22.961,-7.981 z M 425.715,326.582 639.766,112.527 c 11.273,4.661 22.148,9.778 32.379,15.571 l -246.43,246.433 0,-47.949 z m 20.828,73.555 253.301,-253.301 c 8.867,7.148 16.933,15.066 24.039,23.906 l -229.391,229.395 -47.949,0 z m 284.527,-1.36 25.793,-25.797 c 0.008,16.219 0.008,28.458 0.012,37.528 -6.547,-6.922 -15.66,-11.289 -25.805,-11.731 z M 427.227,64.043 c 0.214,-1.5821 0.324,-3.1836 0.324,-4.8047 -0.012,-3.6719 -0.703,-7.0977 -1.692,-10.3985 9.731,4.0899 20.215,7.7618 31.168,11.1993 l -11.359,11.3672 c -5.27,-3.9571 -11.566,-6.6016 -18.441,-7.3633 z m -1.512,75.254 c 19.226,-1.356 34.398,-17.141 35.012,-36.516 l 32.496,-32.488 c 12.504,3.2422 25.347,6.3984 38.343,9.6015 l -105.851,105.8475 0,-46.445" /></g></g></svg>