<?xml version="1.0" encoding="UTF-8" standalone="no"?>
<!-- Generator: Adobe Illustrator 19.1.0, SVG Export Plug-In . SVG Version: 6.00 Build 0)  -->

<svg
   xmlns:dc="http://purl.org/dc/elements/1.1/"
   xmlns:cc="http://creativecommons.org/ns#"
   xmlns:rdf="http://www.w3.org/1999/02/22-rdf-syntax-ns#"
   xmlns:svg="http://www.w3.org/2000/svg"
   xmlns="http://www.w3.org/2000/svg"
   xmlns:sodipodi="http://sodipodi.sourceforge.net/DTD/sodipodi-0.dtd"
   xmlns:inkscape="http://www.inkscape.org/namespaces/inkscape"
   version="1.1"
   id="Layer_1"
   x="0px"
   y="0px"
   viewBox="0 0 1224 792"
   style="enable-background:new 0 0 1224 792;"
   xml:space="preserve"
   inkscape:version="0.91 r13725"
   sodipodi:docname="logo_unf.svg"><metadata
     id="metadata83"><rdf:RDF><cc:Work
         rdf:about=""><dc:format>image/svg+xml</dc:format><dc:type
           rdf:resource="http://purl.org/dc/dcmitype/StillImage" /></cc:Work></rdf:RDF></metadata><defs
     id="defs81" /><sodipodi:namedview
     pagecolor="#ffffff"
     bordercolor="#666666"
     borderopacity="1"
     objecttolerance="10"
     gridtolerance="10"
     guidetolerance="10"
     inkscape:pageopacity="0"
     inkscape:pageshadow="2"
     inkscape:window-width="894"
     inkscape:window-height="607"
     id="namedview79"
     showgrid="false"
     inkscape:zoom="0.25326797"
     inkscape:cx="612"
     inkscape:cy="396"
     inkscape:window-x="20"
     inkscape:window-y="43"
     inkscape:window-maximized="0"
     inkscape:current-layer="Layer_1" /><style
     type="text/css"
     id="style3">
	.st0{fill:#9D9DA0;}
	.st1{fill:#004B8D;}
</style><g
     id="g5"
     transform="matrix(1.3436409,0,0,1.3436409,-233.04169,-128.73739)"><g
       id="g7"><g
         id="g9"><path
           class="st0"
           d="m 340.2,281.4 c -7.2,0.8 -16,-5.7 -24.5,-15.8 8.1,26.8 45.6,42.1 53.3,48.6 -15.1,-28.4 -11,-41.2 -20.7,-49.8 -3.3,-2.9 -27.4,-31.1 -31.7,-53.4 -3.2,20 11.2,42.6 18.6,52.4 -10.1,-4.7 -20,-19.8 -26.8,-33 -1.4,7.6 16.7,43.4 31.8,51 z"
           id="path11"
           inkscape:connector-curvature="0"
           style="fill:#9d9da0" /><path
           class="st1"
           d="m 412,412.7 c 8.8,2.1 10.7,12.8 10.8,20.4 l 0,68.6 c 0,8.1 1.1,21.4 -8.1,24.7 l 0,0.5 34,0 0,-0.5 c -9,-3.4 -7.6,-16.6 -7.6,-24.7 l 0,-31.3 13.3,0 c 5.6,0 26.3,-0.4 29.2,5 l 0.5,0 0,-20.4 -0.5,0 c -2.2,1.1 -11.6,1.1 -14.3,1.1 l -28.2,0 0,-33.5 c 5.8,-1.1 12.1,-1.3 18.4,-1.3 8.3,0 28.8,0.7 34.4,7 l 0.5,0 0,-20.9 -0.5,0 c -2.3,1.3 -5.4,0.9 -8.5,0.9 l -72.3,0 0,0 -34.3,0 0,0.5 c 9.5,5.4 9.4,12.6 9.4,22.7 l 0,68.2 -65.8,-83.1 -2.5,-3.6 c -1.3,-1.4 -2,-2.3 -2.7,-4.5 l 0,-0.2 -59.5,0 0,0.5 c 9,3.4 7.9,16.6 7.9,24.7 l 0,54.2 c 0,6.5 0.2,11 -3.8,16.4 -5.9,8.5 -16.2,12.6 -26.3,12.6 -18.5,0 -28.6,-11.2 -28.6,-35.1 l 0,-48.1 c 0,-8.1 -1.1,-21.2 7.9,-24.7 l 0,-0.5 -34.2,0 0,0.5 c 9.2,3.4 7.9,16.6 7.9,24.7 l 0,48.1 c 0,13 -0.4,25 9.2,35.5 8.1,8.8 20.7,12.6 32.6,12.6 31.5,0 48.1,-18.7 48.1,-40.7 0,-3.7 0.3,-12.1 0.3,-15.7 l 0,-39.5 c 0,-8.3 2,-19 10.8,-21.1 8.8,2.1 10.7,12.8 10.8,20.4 l 0,70.3 c 0,10.1 0,17.3 -9.5,22.8 l 0,0.5 31.8,0 0,-0.5 c -9.5,-5.6 -9.4,-12.8 -9.4,-22.8 l 0,-69.6 61.8,78.2 c 7.9,10.2 13.5,16.2 26.2,20.5 0,0 -0.1,-93.7 0,-99.4 0.1,-7.6 2,-18.3 10.8,-20.4 z"
           id="path13"
           inkscape:connector-curvature="0"
           style="fill:#004b8d" /><path
           class="st0"
           d="m 390.9,348.3 c 1.3,-12.1 -22,-26.9 -55,-44.8 -33,-17.9 -53.3,-39.7 -61.7,-47.7 -5.6,-5.3 -47,-22.1 -68.6,-76.5 7.9,60.2 41.6,87.3 55.2,96.3 -10.8,-1.6 -22.2,-3.2 -46.9,-25 17.4,29.3 31.2,44.4 66,58.4 -9.8,1.6 -24.2,-0.4 -39,-5.5 12.6,12.1 52.5,26.8 82.3,31.2 -4.7,14.4 -42.7,43.4 -43,46.5 18,0.6 26.2,-5.1 28.2,-4.6 0.6,2.5 0.3,7.3 1.8,8.7 5.1,-0.2 18.4,-7.4 19.6,-9.8 1.3,0.5 5.7,8.6 8.5,7.2 2,-2.2 6.6,-16.4 7.8,-20.3 0.4,-1.3 1,-3 1.1,-3.4 l 6.8,12.8 c 0,0 12.8,8.4 15.5,10 -2.5,1.6 -4.2,4 -0.8,6.6 -1.7,-2.4 0.5,-4.4 2.5,-5.6 1.9,-0.7 5.6,-1.5 6.8,3.2 0.2,-2.9 -0.6,-4.4 -1.6,-5.1 1.6,-0.6 6.9,-2.9 7.5,1.2 0.4,-2.5 -0.5,-3.7 -1.9,-4.2 1.5,-0.5 3.1,-0.8 3.7,0.2 -0.6,-3.4 -8.1,-0.6 -10,0.4 -2.8,-2.6 -10.7,-11.8 -10.7,-11.8 l 0.2,-20.4 c 3,0.4 7.4,1.1 9.8,1.8 9.2,3.1 15.6,6.4 12.7,9.3 6,-1.4 4.8,-6.8 3.2,-9.1 z"
           id="path15"
           inkscape:connector-curvature="0"
           style="fill:#9d9da0" /></g><g
         id="g17"><g
           id="g19"><g
             id="g21"><path
               class="st1"
               d="m 556.5,518.3 c 0,3.7 -0.1,6.4 3.4,8.4 l 0,0.2 -11.7,0 0,-0.2 c 3.5,-2.1 3.5,-4.7 3.5,-8.4 l 0,-26.5 c 0,-3.7 0,-6.4 -3.5,-8.4 l 0,-0.2 9.7,0 0,0.1 c 0.3,0.8 0.5,1.1 1,1.7 l 0.9,1.3 24.3,30.7 0,-25.2 c 0,-3.7 0.1,-6.4 -3.5,-8.4 l 0,-0.2 11.7,0 0,0.2 c -3.5,2 -3.5,4.6 -3.5,8.4 l 0,37.2 c -4.7,-1.6 -6.8,-3.8 -9.7,-7.6 l -22.8,-28.9 0,25.8 z"
               id="path23"
               inkscape:connector-curvature="0"
               style="fill:#004b8d" /><path
               class="st1"
               d="m 646,504.6 c 0,13.5 -11.2,23.4 -24.4,23.4 -13.1,0 -24.2,-9.4 -24.2,-23 0,-12.6 11,-23.2 24.9,-22.8 13.8,-0.1 23.7,10.5 23.7,22.4 z m -41.1,-0.2 c 0,9.3 6.6,18.8 17,18.8 10.1,0 16.5,-7.4 16.5,-17.3 0,-9.7 -6.2,-19 -16.7,-19 -10.2,0 -16.8,7.4 -16.8,17.5 z"
               id="path25"
               inkscape:connector-curvature="0"
               style="fill:#004b8d" /><path
               class="st1"
               d="m 667.9,483.3 c 8.9,0 13.7,4.6 13.7,10.7 0,5.8 -5.1,10.4 -10.6,11.7 l 9.6,12 c 2.8,3.5 7,6.9 10.8,9.3 l -6.1,0 c -3.5,0 -5.7,-0.9 -7.7,-3.3 l -8.1,-10 -6.1,-9.4 c 5.3,-0.8 11.5,-3.3 11.5,-9.5 0,-4.8 -4.1,-7.6 -8.6,-7.4 -1.5,0.1 -3,0.3 -4.5,0.5 l 0,29.7 c 0,3.1 -0.4,7.9 3,9.1 l 0,0.2 -12.7,0 0,-0.2 c 3.4,-1.2 2.9,-6.1 2.9,-9.1 l 0,-25 c 0,-3.1 0.5,-7.9 -2.9,-9.2 l 0,-0.2 15.8,0 z"
               id="path27"
               inkscape:connector-curvature="0"
               style="fill:#004b8d" /><path
               class="st1"
               d="m 709.4,518.3 c 0,3.8 -0.1,6.4 3.5,8.4 l 0,0.2 -13.1,0 0,-0.2 c 3.3,-1.3 2.9,-6.1 2.9,-9.1 l 0,-29.6 -5.8,0 c -2.9,0 -5.8,0.7 -7.9,2.7 l -0.2,0 2.3,-7.9 0.2,0 c 0.8,0.3 1.7,0.3 2.5,0.5 l 26.4,0 c 1.1,0 2.2,-0.1 3.1,-0.5 l 0.2,0 -2.1,7.9 -0.2,0 c -0.9,-2.3 -3.5,-2.7 -5.7,-2.7 l -6,0 0,30.3 z"
               id="path29"
               inkscape:connector-curvature="0"
               style="fill:#004b8d" /><path
               class="st1"
               d="m 739.5,505.6 0,12 c 0,3 -0.4,7.8 2.9,9.1 l 0,0.2 -12.6,0 0,-0.2 c 3.3,-1.3 2.9,-6.1 2.9,-9.1 l 0,-25.1 c 0,-3 0.5,-7.8 -2.9,-9.1 l 0,-0.2 12.6,0 0,0.2 c -3.3,1.3 -2.9,6.1 -2.9,9.2 l 0,8.2 24,0 0,-8.2 c 0,-3.1 0.5,-7.9 -2.9,-9.2 l 0,-0.2 12.7,0 0,0.2 c -3.4,1.3 -3,6.1 -3,9.1 l 0,25.1 c 0,3 -0.4,7.8 3,9.1 l 0,0.2 -12.7,0 0,-0.2 c 3.4,-1.3 2.9,-6.1 2.9,-9.1 l 0,-12 -24,0 z"
               id="path31"
               inkscape:connector-curvature="0"
               style="fill:#004b8d" /><path
               class="st1"
               d="m 811.8,517.6 c 0,3 -0.5,7.8 2.8,9.1 l 0,0.2 -12.6,0 0,-0.2 c 3.4,-1.2 3,-6.1 3,-9.1 l 0,-25 c 0,-3.1 0.4,-7.9 -3,-9.2 l 0,-0.2 21.2,0 c 1.1,0 2.3,0.1 3.1,-0.3 l 0.2,0 0,7.7 -0.2,0 c -2.1,-2.3 -4.8,-2.6 -7.8,-2.6 -2.3,0 -4.6,0.1 -6.8,0.5 l 0,12.3 8,0 c 1,0 2.1,0 2.9,-0.4 l 0.2,0 0,7 -0.2,0 c -1.1,-2 -3.8,-1.9 -5.9,-1.9 l -4.9,0 0,12.1 z"
               id="path33"
               inkscape:connector-curvature="0"
               style="fill:#004b8d" /><path
               class="st1"
               d="m 854.2,522.1 c 4.5,0.3 8.4,-1.3 11.7,-4 l 0.2,0 -3.5,8.8 -27.3,0 0,-0.2 c 3.4,-1.2 3,-6.1 3,-9.1 l 0,-25 c 0,-3.1 0.4,-7.9 -3,-9.2 l 0,-0.2 12.7,0 0,0.2 c -3.4,1.3 -2.9,6.2 -2.9,9.2 l 0,28.9 9.1,0.6 z"
               id="path35"
               inkscape:connector-curvature="0"
               style="fill:#004b8d" /><path
               class="st1"
               d="m 916.2,504.6 c 0,13.5 -11.2,23.4 -24.4,23.4 -13.1,0 -24.2,-9.4 -24.2,-23 0,-12.6 11,-23.2 24.9,-22.8 13.9,-0.1 23.7,10.5 23.7,22.4 z m -41,-0.2 c 0,9.3 6.6,18.8 17,18.8 10.1,0 16.5,-7.4 16.5,-17.3 0,-9.7 -6.2,-19 -16.7,-19 -10.3,0 -16.8,7.4 -16.8,17.5 z"
               id="path37"
               inkscape:connector-curvature="0"
               style="fill:#004b8d" /><path
               class="st1"
               d="m 937.5,483.3 c 8.9,0 13.7,4.6 13.7,10.7 0,5.8 -5.1,10.4 -10.6,11.7 l 9.6,12 c 2.8,3.5 7,6.9 10.8,9.3 l -6.1,0 c -3.5,0 -5.7,-0.9 -7.7,-3.3 l -8.1,-10 -6.1,-9.4 c 5.3,-0.8 11.5,-3.3 11.5,-9.5 0,-4.8 -4.1,-7.6 -8.6,-7.4 -1.5,0.1 -3,0.3 -4.5,0.5 l 0,29.7 c 0,3.1 -0.4,7.9 3,9.1 l 0,0.2 -12.7,0 0,-0.2 c 3.4,-1.2 2.9,-6.1 2.9,-9.1 l 0,-25 c 0,-3.1 0.5,-7.9 -2.9,-9.2 l 0,-0.2 15.8,0 z"
               id="path39"
               inkscape:connector-curvature="0"
               style="fill:#004b8d" /><path
               class="st1"
               d="m 966.7,492.6 c 0,-3.1 0.5,-7.9 -2.9,-9.2 l 0,-0.2 12.6,0 0,0.2 c -3.3,1.3 -2.9,6.2 -2.9,9.2 l 0,25 c 0,3 -0.4,7.8 2.9,9.1 l 0,0.2 -12.6,0 0,-0.2 c 3.3,-1.2 2.9,-6.1 2.9,-9.1 l 0,-25 z"
               id="path41"
               inkscape:connector-curvature="0"
               style="fill:#004b8d" /><path
               class="st1"
               d="m 987.8,492.3 c 0,-3.1 0.5,-7.9 -2.9,-8.9 l 0,-0.2 16.3,0 c 15.1,0 24.6,8.2 24.6,21.4 0,13.1 -10,22.2 -24.9,22.2 l -15.9,0 0,-0.2 c 3.3,-2.3 2.9,-5.4 2.9,-9.4 l 0,-24.9 z m 6.8,29.4 c 1.6,0.3 3.2,0.5 4.8,0.5 9.9,0 18.7,-5.2 18.7,-16.7 0,-11.6 -6.5,-17.5 -17.6,-17.5 -2,0 -4,0.3 -6,0.7 l 0,33 z"
               id="path43"
               inkscape:connector-curvature="0"
               style="fill:#004b8d" /><path
               class="st1"
               d="m 1039.3,510.5 -3.5,9.4 c -1.4,3.7 -1.9,5.6 1.3,6.8 l 0,0.2 -12.1,0 0,-0.2 c 3.8,-1.9 5,-5.6 6.4,-9.4 l 11.1,-27.7 c 0.9,-2.4 2.2,-5.2 -1,-6.2 l 0,-0.2 10.5,0 13.8,34 c 1.5,3.8 2.7,7.5 6.5,9.4 l 0,0.2 -13.6,0 0,-0.2 c 3.3,-1.5 2.7,-2.2 0.9,-6.8 l -3.6,-9.4 -16.7,0 z m 8.3,-21.6 -6.6,16.7 13.1,0 -6.5,-16.7 z"
               id="path45"
               inkscape:connector-curvature="0"
               style="fill:#004b8d" /></g><g
             id="g47"><path
               class="st1"
               d="m 582.8,446.4 c -2.9,3.8 -7.7,6.7 -15,6.7 -5.3,0 -10.3,-1.6 -13.6,-5.1 -2.8,-2.9 -3.9,-6.5 -3.9,-13.4 l 0,-17 c 0,-3 0.5,-7.8 -2.9,-9.1 l 0,-0.2 12.6,0 0,0.2 c -3.3,1.3 -2.9,6.1 -2.9,9.1 l 0,17 c 0,10.2 4.2,13.7 11.7,13.7 4.8,0 8.3,-2.2 10.4,-5.3 1.5,-2 1.3,-7.5 1.3,-9.9 l 0,-15.5 c 0,-3 0.4,-7.8 -2.9,-9.1 l 0,-0.2 10.7,0 0.1,0.2 c -3.4,1.3 -3,6.1 -3,9.2 l 0,12.3 c -0.1,10.2 -1,14.3 -2.6,16.4 z"
               id="path49"
               inkscape:connector-curvature="0"
               style="fill:#004b8d" /><path
               class="st1"
               d="m 604.7,443.5 c 0,3.7 -0.1,6.4 3.5,8.4 l 0,0.2 -11.7,0 0,-0.2 c 3.5,-2.1 3.5,-4.7 3.5,-8.4 l 0,-26.5 c 0,-3.7 0,-6.4 -3.5,-8.4 l 0,-0.2 9.7,0 0,0.1 c 0.3,0.8 0.5,1.1 1,1.7 l 0.9,1.3 24.3,30.7 0,-25.2 c 0,-3.7 0.1,-6.4 -3.5,-8.4 l 0,-0.2 11.7,0 0,0.2 c -3.5,2 -3.5,4.6 -3.5,8.4 l 0,37.2 c -4.7,-1.6 -6.8,-3.8 -9.7,-7.6 l -22.8,-28.9 0,25.8 z"
               id="path51"
               inkscape:connector-curvature="0"
               style="fill:#004b8d" /><path
               class="st1"
               d="m 652.3,417.8 c 0,-3.1 0.5,-7.9 -2.9,-9.2 l 0,-0.2 12.6,0 0,0.2 c -3.3,1.3 -2.9,6.2 -2.9,9.2 l 0,25 c 0,3 -0.4,7.8 2.9,9.1 l 0,0.2 -12.6,0 0,-0.2 c 3.3,-1.2 2.9,-6.1 2.9,-9.1 l 0,-25 z"
               id="path53"
               inkscape:connector-curvature="0"
               style="fill:#004b8d" /><path
               class="st1"
               d="m 699.5,420.4 c 1.8,-4.7 4,-10.2 -0.1,-11.8 l 0,-0.2 9.9,0 -17.5,45.7 c -4.6,-3.1 -6.2,-3.6 -8.1,-8.8 l -10,-27.1 c -1.3,-3.4 -2.3,-7.2 -5.2,-9.5 l 0,-0.2 9.7,0 -0.1,0.8 c 0,1.5 1.3,4.7 1.8,6.2 l 10.6,28.9 9,-24 z"
               id="path55"
               inkscape:connector-curvature="0"
               style="fill:#004b8d" /><path
               class="st1"
               d="m 725.2,446.5 8.4,0.8 c 4.4,0.4 9,-1 12.3,-3.9 l 0.2,0 -3,8.7 -27.7,0 0,-0.2 c 3.4,-1.2 3,-6.1 3,-9.1 l 0,-25 c 0,-3.1 0.4,-7.9 -3,-9.2 l 0,-0.2 21.2,0 c 1.1,0 2.3,0.1 3.1,-0.3 l 0.2,0 0,7.8 -0.2,0 c -2.1,-2.4 -4.8,-2.7 -7.8,-2.7 -2.3,0 -4.6,0.1 -6.8,0.5 l 0,12.3 7.9,0 c 1.1,0 2.1,0 2.9,-0.4 l 0.2,0 0,7 -0.1,0 c -1.1,-1.9 -3.8,-1.9 -5.9,-1.9 l -4.9,0 0,15.8 z"
               id="path57"
               inkscape:connector-curvature="0"
               style="fill:#004b8d" /><path
               class="st1"
               d="m 766.5,408.4 c 8.9,0 13.7,4.6 13.7,10.7 0,5.8 -5.1,10.4 -10.6,11.7 l 9.6,12 c 2.8,3.5 7,6.9 10.8,9.3 l -6.1,0 c -3.5,0 -5.7,-0.9 -7.7,-3.3 l -8.1,-10 -6.1,-9.4 c 5.3,-0.8 11.5,-3.3 11.5,-9.5 0,-4.8 -4.1,-7.6 -8.6,-7.4 -1.5,0.1 -3,0.3 -4.5,0.5 l 0,29.7 c 0,3.1 -0.4,7.9 3,9.1 l 0,0.2 -12.7,0 0,-0.2 c 3.4,-1.2 2.9,-6.1 2.9,-9.1 l 0,-25 c 0,-3.1 0.5,-7.9 -2.9,-9.2 l 0,-0.2 15.8,0 z"
               id="path59"
               inkscape:connector-curvature="0"
               style="fill:#004b8d" /><path
               class="st1"
               d="m 818.4,416.3 c -2.6,-2.7 -6.7,-4.2 -10.4,-4.2 -3.8,0 -8.6,1.5 -8.6,6 0,9.1 22.8,9 22.8,21.2 0,7.1 -7.4,13.7 -17.8,13.7 -4,0 -8.1,-0.6 -11.9,-2 l -1.9,-8.3 c 3.9,3.4 9.4,5.5 14.5,5.5 3.8,0 9.5,-2.3 9.5,-6.9 0,-10.4 -22.8,-8.5 -22.8,-22.6 0,-8.4 8.6,-11.5 16.7,-11.5 3.3,0 6.7,0.5 9.9,1.5 l 0,7.6 z"
               id="path61"
               inkscape:connector-curvature="0"
               style="fill:#004b8d" /><path
               class="st1"
               d="m 832.6,417.8 c 0,-3.1 0.5,-7.9 -2.9,-9.2 l 0,-0.2 12.6,0 0,0.2 c -3.3,1.3 -2.9,6.2 -2.9,9.2 l 0,25 c 0,3 -0.4,7.8 2.9,9.1 l 0,0.2 -12.6,0 0,-0.2 c 3.3,-1.2 2.9,-6.1 2.9,-9.1 l 0,-25 z"
               id="path63"
               inkscape:connector-curvature="0"
               style="fill:#004b8d" /><path
               class="st1"
               d="m 868.3,443.5 c 0,3.8 -0.1,6.4 3.5,8.4 l 0,0.2 -13.1,0 0,-0.2 c 3.3,-1.3 2.9,-6.1 2.9,-9.1 l 0,-29.6 -5.8,0 c -2.9,0 -5.8,0.7 -7.9,2.7 l -0.2,0 2.3,-7.9 0.2,0 c 0.8,0.3 1.7,0.3 2.5,0.5 l 26.3,0 c 1.1,0 2.2,-0.1 3.1,-0.5 l 0.2,0 -2.1,7.9 -0.2,0 c -0.9,-2.3 -3.5,-2.7 -5.7,-2.7 l -6,0 0,30.3 z"
               id="path65"
               inkscape:connector-curvature="0"
               style="fill:#004b8d" /><path
               class="st1"
               d="m 908.5,443.5 c 0,4 0,6 3.4,8.4 l 0,0.2 -12.9,0 0,-0.2 c 3.3,-1.7 2.8,-6 2.8,-9.1 l 0,-9.8 -11,-17.7 c -1.8,-2.9 -3.1,-5.1 -6.3,-6.8 l 6,0 c 2.1,0 4.1,0.5 5,1.9 l 10.6,17.3 8.2,-12.3 c 1.1,-1.7 2.7,-4.8 -1.1,-6.6 l 0,-0.2 11.6,0 -16.3,24.4 0,10.5 z"
               id="path67"
               inkscape:connector-curvature="0"
               style="fill:#004b8d" /><g
               id="g69"><path
                 class="st1"
                 d="m 961.7,434.1 c 0,3 -0.8,6 -2.4,8.9 -1.6,2.9 -3.8,5.3 -6.7,7 -2.8,1.7 -5.6,2.6 -8.3,2.6 -2.8,0 -5,-0.9 -6.7,-2.6 -1.7,-1.8 -2.6,-4 -2.6,-6.8 0,-2.9 0.8,-5.9 2.5,-8.9 1.7,-3 4,-5.3 6.8,-7 2.8,-1.7 5.6,-2.6 8.2,-2.6 2.6,0 4.8,0.9 6.5,2.6 1.9,1.7 2.7,4 2.7,6.8 z m -4.9,-2.1 c 0,-1.9 -0.5,-3.3 -1.4,-4.3 -0.9,-1 -2.1,-1.5 -3.6,-1.5 -3,0 -5.7,2.1 -8.2,6.3 -2.5,4.2 -3.7,8.4 -3.7,12.6 0,1.9 0.5,3.4 1.5,4.4 1,1 2.2,1.5 3.7,1.5 2.8,0 5.5,-2.1 8,-6.3 2.5,-4.1 3.7,-8.4 3.7,-12.7 z"
                 id="path71"
                 inkscape:connector-curvature="0"
                 style="fill:#004b8d" /><path
                 class="st1"
                 d="m 983.7,425.3 -0.5,2 -4.5,0 -3.6,13.4 c -1.7,5.8 -3.2,10.2 -4.7,13.4 -2.1,4.5 -4.4,7.6 -6.8,9.3 -1.9,1.3 -3.7,2 -5.6,2 -1.2,0 -2.2,-0.4 -3.1,-1.1 -0.6,-0.5 -0.9,-1.1 -0.9,-1.9 0,-0.6 0.3,-1.2 0.8,-1.7 0.5,-0.5 1.1,-0.7 1.9,-0.7 0.5,0 1,0.2 1.4,0.5 0.4,0.3 0.6,0.7 0.6,1.2 0,0.4 -0.2,0.8 -0.6,1.2 -0.3,0.3 -0.4,0.5 -0.4,0.6 0,0.2 0.1,0.3 0.2,0.4 0.2,0.1 0.4,0.2 0.8,0.2 0.8,0 1.7,-0.3 2.7,-0.8 0.9,-0.5 1.8,-1.4 2.5,-2.4 0.7,-1.1 1.4,-2.6 2.1,-4.7 0.3,-0.8 1.1,-3.6 2.4,-8.3 l 5.8,-20.5 -6.2,0 0.4,-2 c 1.9,0 3.2,-0.1 3.9,-0.3 0.7,-0.2 1.4,-0.7 2,-1.3 0.6,-0.7 1.4,-1.9 2.2,-3.7 1.1,-2.4 2.2,-4.3 3.3,-5.6 1.4,-1.8 2.9,-3.1 4.5,-4 1.6,-0.9 3.1,-1.3 4.5,-1.3 1.5,0 2.6,0.4 3.5,1.2 0.9,0.8 1.3,1.6 1.3,2.5 0,0.7 -0.2,1.3 -0.7,1.8 -0.5,0.5 -1.1,0.7 -1.8,0.7 -0.6,0 -1.1,-0.2 -1.5,-0.5 -0.4,-0.4 -0.6,-0.8 -0.6,-1.3 0,-0.3 0.1,-0.7 0.4,-1.2 0.3,-0.5 0.4,-0.8 0.4,-1 0,-0.3 -0.1,-0.5 -0.2,-0.6 -0.2,-0.2 -0.6,-0.3 -1,-0.3 -1.2,0 -2.2,0.4 -3.1,1.2 -1.2,1.1 -2.3,2.8 -3.3,5.1 -0.5,1.2 -1.5,4.1 -2.9,8.6 l 4.4,0 z"
                 id="path73"
                 inkscape:connector-curvature="0"
                 style="fill:#004b8d" /></g></g></g></g></g><g
       id="g75"><path
         class="st1"
         d="m 1078.1,522.9 c 0.4,0 0.7,0.1 1.1,0.3 0.4,0.2 0.6,0.5 0.8,0.8 0.2,0.4 0.3,0.7 0.3,1.1 0,0.4 -0.1,0.7 -0.3,1.1 -0.2,0.4 -0.5,0.6 -0.8,0.8 -0.3,0.2 -0.7,0.3 -1.1,0.3 -0.4,0 -0.8,-0.1 -1.1,-0.3 -0.4,-0.2 -0.6,-0.5 -0.8,-0.8 -0.2,-0.4 -0.3,-0.7 -0.3,-1.1 0,-0.4 0.1,-0.8 0.3,-1.1 0.2,-0.4 0.5,-0.6 0.8,-0.8 0.3,-0.2 0.7,-0.3 1.1,-0.3 z m 0,0.3 c -0.3,0 -0.6,0.1 -0.9,0.2 -0.3,0.2 -0.5,0.4 -0.7,0.7 -0.2,0.3 -0.2,0.6 -0.2,0.9 0,0.3 0.1,0.6 0.2,0.9 0.2,0.3 0.4,0.5 0.7,0.7 0.3,0.2 0.6,0.2 0.9,0.2 0.3,0 0.6,-0.1 0.9,-0.2 0.3,-0.2 0.5,-0.4 0.7,-0.7 0.2,-0.3 0.2,-0.6 0.2,-0.9 0,-0.3 -0.1,-0.6 -0.2,-0.9 -0.2,-0.3 -0.4,-0.5 -0.7,-0.7 -0.3,-0.1 -0.6,-0.2 -0.9,-0.2 z m -1,3.1 0,-2.4 0.8,0 c 0.3,0 0.5,0 0.6,0.1 0.1,0 0.2,0.1 0.3,0.2 0.1,0.1 0.1,0.2 0.1,0.3 0,0.2 -0.1,0.3 -0.2,0.5 -0.1,0.1 -0.3,0.2 -0.5,0.2 0.1,0 0.2,0.1 0.2,0.1 0.1,0.1 0.2,0.3 0.4,0.5 l 0.3,0.5 -0.5,0 -0.2,-0.4 c -0.2,-0.3 -0.3,-0.5 -0.4,-0.6 -0.1,-0.1 -0.2,-0.1 -0.3,-0.1 l -0.2,0 0,1 -0.4,0 z m 0.4,-1.3 0.5,0 c 0.2,0 0.4,0 0.5,-0.1 0.1,-0.1 0.1,-0.2 0.1,-0.3 0,-0.1 0,-0.1 -0.1,-0.2 0,-0.1 -0.1,-0.1 -0.2,-0.1 -0.1,0 -0.2,0 -0.4,0 l -0.4,0 0,0.7 z"
         id="path77"
         inkscape:connector-curvature="0"
         style="fill:#004b8d" /></g></g></svg>
